<?xml version="1.0" standalone="no"?>
<!DOCTYPE svg PUBLIC "-//W3C//DTD SVG 1.1//EN" "http://www.w3.org/Graphics/SVG/1.1/DTD/svg11.dtd" >
<svg>
<metadata>
Created by FontForge 20090622 at Sun Jul 29 06:17:29 2018
 By deploy user
Copyright &#194;&#169; 2016 Miguel Reyes under exclusive license to Schwartzco Inc. / Commercial Type. All rights reserved.
</metadata>
<defs>
<font id="Canela-ThinItalic" horiz-adv-x="188" >
  <font-face 
    font-family="Canela"
    font-weight="250"
    font-style="italic"
    font-stretch="normal"
    units-per-em="1000"
    panose-1="0 0 0 0 0 0 0 0 0 0"
    ascent="775"
    descent="-225"
    x-height="475"
    cap-height="732"
    bbox="-117 -260 993 1150"
    underline-thickness="20"
    underline-position="-60"
    slope="-9"
    unicode-range="U+000D-U+FB04"
  />
<missing-glyph horiz-adv-x="161" 
 />
    <glyph glyph-name="f_b" unicode="fb" horiz-adv-x="702" 
d="M4 -165l133 622h-56l4 18h55l20 92q45 212 181 212q54 0 78 -30l60 30l-105 -482q83 193 202 193q106 0 106 -149q0 -140 -75.5 -248t-178.5 -108q-67 0 -107.5 48.5t-18.5 150.5l91 422q13 63 -3.5 107.5t-64.5 44.5q-41 0 -65 -35.5t-47 -139.5l-23 -108h99l-4 -18h-99
l-132 -622h-50zM434 3q56 0 101 53.5t67 129t22 152.5q0 118 -70 118q-100 0 -194 -230l-11 -51q-20 -90 8 -131t77 -41z" />
    <glyph glyph-name="f_f_b" unicode="ffb" horiz-adv-x="922" 
d="M137 457h-56l4 18h56l15 72q23 108 69 160t106 52q20 0 29 -4l20 -8l7 -85l-4 -1q-21 39 -39 58t-40 19q-28 0 -50.5 -37t-44.5 -138l-19 -88h170l20 92q45 212 181 212q54 0 78 -30l60 30l-105 -482q83 193 202 193q106 0 106 -149q0 -140 -75.5 -248t-178.5 -108
q-67 0 -107.5 48.5t-18.5 150.5l91 422q13 63 -3.5 107.5t-64.5 44.5q-41 0 -65 -35.5t-47 -139.5l-23 -108h99l-4 -18h-99l-132 -622h-50l133 622h-171l-132 -622h-50zM654 3q56 0 101 53.5t67 129t22 152.5q0 118 -70 118q-100 0 -194 -230l-11 -51q-20 -90 8 -131t77 -41
z" />
    <glyph glyph-name="f_f_h" unicode="ffh" horiz-adv-x="924" 
d="M357 457h-171l-132 -622h-50l133 622h-56l4 18h56l15 72q23 108 69 160t106 52q20 0 29 -4l20 -8l7 -85l-4 -1q-21 39 -39 58t-40 19q-28 0 -50.5 -37t-44.5 -138l-19 -88h170l20 92q45 212 181 212q54 0 78 -30l60 30l-121 -551q50 117 113.5 189.5t123.5 72.5
q42 0 58.5 -36t2.5 -99l-51 -240q-8 -37 -8.5 -60t11 -34t37.5 -13v-2l-115 -15l78 367q9 40 -0.5 66.5t-38.5 26.5q-42 0 -100.5 -70.5t-122.5 -216.5l-8 -41q-16 -76 -3 -121v-2h-88v2q5 7 8.5 13.5t7.5 15.5l6.5 14.5t5.5 17t4.5 16.5t5 19.5t4.5 19.5l4.5 22.5l4.5 22.5
l94 442q11 65 -3.5 109t-63.5 44q-41 0 -65 -35.5t-47 -139.5l-23 -108h99l-4 -18h-99l-132 -622h-50z" />
    <glyph glyph-name="f_f_j" unicode="ffj" horiz-adv-x="645" 
d="M521 -52q-14 -69 -45 -112t-71 -51l-2 5q44 34 63 128l85 423q14 75 -16 116h-129l-132 -622h-50l133 622h-171l-132 -622h-50l133 622h-56l4 18h56l15 72q23 108 69 160t106 52q20 0 29 -4l20 -8l7 -85l-4 -1q-21 39 -39 58t-40 19q-28 0 -50.5 -37t-44.5 -138l-19 -88
h170l20 92q23 108 68.5 160t102.5 52q40 0 73 -24l9 -114l-4 -1q-28 68 -48.5 93t-47.5 25q-31 0 -54 -36.5t-46 -138.5l-23 -108h120q50 0 99 20z" />
    <glyph glyph-name="f_f_k" unicode="ffk" horiz-adv-x="854" 
d="M137 457h-56l4 18h56l15 72q23 108 69 160t106 52q20 0 29 -4l20 -8l7 -85l-4 -1q-21 39 -39 58t-40 19q-28 0 -50.5 -37t-44.5 -138l-19 -88h170l20 92q45 212 181 212q54 0 78 -30l59 30l-130 -614q-15 -71 -17.5 -101.5t5.5 -61.5v-2h-88v2q5 7 8.5 13.5t7.5 15.5
l6.5 14.5t5.5 17t4.5 16.5t5 19.5t4.5 19.5l4.5 22.5l4.5 22.5l93 442q11 65 -3.5 109t-63.5 44q-41 0 -65 -35.5t-47 -139.5l-23 -108h99l-4 -18h-99l-132 -622h-50l133 622h-171l-132 -622h-50zM601 248l142 143q53 53 28 82v2h120v-2q-42 -16 -64.5 -32.5t-71.5 -65.5
l-107 -106l95 -177q21 -40 37 -59t42 -31v-2h-90z" />
    <glyph glyph-name="f_h" unicode="fh" horiz-adv-x="704" 
d="M186 457l-132 -622h-50l133 622h-56l4 18h55l20 92q45 212 181 212q54 0 78 -30l60 30l-121 -551q50 118 113 190t124 72q42 0 58.5 -36t2.5 -99l-51 -240q-8 -37 -8.5 -60t11 -34t37.5 -13v-2l-115 -15l78 367q9 40 -0.5 66.5t-38.5 26.5q-42 0 -100.5 -70.5
t-122.5 -216.5l-8 -41q-16 -76 -3 -121v-2h-88v2q5 7 8.5 13.5t7.5 15.5l6.5 14.5t5.5 17t4.5 16.5t5 19.5t4.5 19.5l4.5 22.5l4.5 22.5l94 442q11 65 -3.5 109t-63.5 44q-41 0 -65 -35.5t-47 -139.5l-23 -108h99l-4 -18h-99z" />
    <glyph glyph-name="f_j" unicode="fj" horiz-adv-x="425" 
d="M301 -52q-14 -69 -45 -112t-71 -51l-2 5q44 34 63 128l85 423q14 75 -16 116h-129l-132 -622h-50l133 622h-56l4 18h55l20 92q23 108 68.5 160t102.5 52q40 0 73 -24l9 -114l-4 -1q-28 68 -48.5 93t-47.5 25q-31 0 -54 -36.5t-46 -138.5l-23 -108h120q50 0 99 20z" />
    <glyph glyph-name="f_k" unicode="fk" horiz-adv-x="634" 
d="M4 -165l133 622h-56l4 18h55l20 92q45 212 181 212q54 0 78 -30l59 30l-130 -614q-15 -71 -17.5 -101.5t5.5 -61.5v-2h-88v2q5 7 8.5 13.5t7.5 15.5l6.5 14.5t5.5 17t4.5 16.5t5 19.5t4.5 19.5l4.5 22.5l4.5 22.5l93 442q11 65 -3.5 109t-63.5 44q-41 0 -65 -35.5
t-47 -139.5l-23 -108h99l-4 -18h-99l-132 -622h-50zM381 248l142 143q53 53 28 82v2h120v-2q-42 -16 -64.5 -32.5t-71.5 -65.5l-107 -106l95 -177q21 -40 37 -59t42 -31v-2h-90z" />
    <glyph glyph-name="f_t" unicode="ft" horiz-adv-x="487" 
d="M137 457h-56l4 18h55l20 92q23 108 69 160t105 52q28 0 60 -17l7 -91l-4 -1q-27 47 -46.5 67.5t-43.5 20.5q-27 0 -49.5 -37t-44.5 -138l-23 -108h124l99 74h2l-16 -74h118l-4 -18h-118l-81 -377q-12 -54 22 -54q37 0 92 78l9 -6q-62 -113 -125 -113q-27 0 -42.5 22.5
t-4.5 70.5l82 379h-161l-132 -622h-50z" />
    <glyph glyph-name="f_f_t" unicode="fft" horiz-adv-x="707" 
d="M137 457h-56l4 18h56l15 72q23 108 69 160t106 52q20 0 29 -4l20 -8l7 -85l-4 -1q-21 39 -39 58t-40 19q-28 0 -50.5 -37t-44.5 -138l-19 -88h170l20 92q23 108 69 160t105 52q28 0 60 -17l7 -91l-4 -1q-27 47 -46.5 67.5t-43.5 20.5q-27 0 -49.5 -37t-44.5 -138
l-23 -108h124l99 74h2l-16 -74h118l-4 -18h-118l-81 -377q-12 -54 22 -54q37 0 92 78l9 -6q-62 -113 -125 -113q-27 0 -42.5 22.5t-4.5 70.5l82 379h-161l-132 -622h-50l133 622h-171l-132 -622h-50z" />
    <glyph glyph-name="f_f" unicode="ff" horiz-adv-x="477" 
d="M137 457h-56l4 18h56l15 72q23 108 69 160t106 52q20 0 29 -4l20 -8l7 -85l-4 -1q-21 39 -39 58t-40 19q-28 0 -50.5 -37t-44.5 -138l-19 -88h170l20 92q23 108 69 160t105 52q28 0 60 -17l7 -91l-4 -1q-27 47 -46.5 67.5t-43.5 20.5q-27 0 -49.5 -37t-44.5 -138
l-23 -108h99l-4 -18h-99l-132 -622h-50l133 622h-171l-132 -622h-50z" />
    <glyph glyph-name="f_i" unicode="fi" horiz-adv-x="426" 
d="M4 -165l133 622h-56l4 18h55l20 92q23 108 68.5 160t102.5 52q40 0 73 -24l9 -114l-4 -1q-28 68 -48.5 93t-47.5 25q-31 0 -54 -36.5t-46 -138.5l-23 -108h120q50 0 99 20l-73 -372q-16 -76 -3 -121v-2h-88v2q5 7 8.5 13.5t7.5 15.5l6.5 14.5t5.5 17t4.5 16.5t5 19.5
t4.5 19.5l4.5 22.5l4.5 22.5l35 178q14 75 -16 116h-129l-132 -622h-50z" />
    <glyph glyph-name="f_l" unicode="fl" horiz-adv-x="429" 
d="M4 -165l133 622h-56l4 18h55l20 92q45 212 181 212q54 0 78 -30l59 30l-130 -614q-15 -71 -17.5 -101.5t5.5 -61.5v-2h-88v2q5 7 8.5 13.5t7.5 15.5l6.5 14.5t5.5 17t4.5 16.5t5 19.5t4.5 19.5l4.5 22.5l4.5 22.5l93 442q11 65 -3.5 109t-63.5 44q-41 0 -65 -35.5
t-47 -139.5l-23 -108h99l-4 -18h-99l-132 -622h-50z" />
    <glyph glyph-name="f_f_i" unicode="ffi" horiz-adv-x="646" 
d="M4 -165l133 622h-56l4 18h56l15 72q23 108 69 160t106 52q20 0 29 -4l20 -8l7 -85l-4 -1q-21 39 -39 58t-40 19q-28 0 -50.5 -37t-44.5 -138l-19 -88h170l20 92q23 108 68.5 160t102.5 52q40 0 73 -24l9 -114l-4 -1q-28 68 -48.5 93t-47.5 25q-31 0 -54 -36.5t-46 -138.5
l-23 -108h120q50 0 99 20l-73 -372q-16 -76 -3 -121v-2h-88v2q5 7 8.5 13.5t7.5 15.5l6.5 14.5t5.5 17t4.5 16.5t5 19.5t4.5 19.5l4.5 22.5l4.5 22.5l35 178q14 75 -16 116h-129l-132 -622h-50l133 622h-171l-132 -622h-50z" />
    <glyph glyph-name="f_f_l" unicode="ffl" horiz-adv-x="649" 
d="M137 457h-56l4 18h56l15 72q23 108 69 160t106 52q20 0 29 -4l20 -8l7 -85l-4 -1q-21 39 -39 58t-40 19q-28 0 -50.5 -37t-44.5 -138l-19 -88h170l20 92q45 212 181 212q54 0 78 -30l59 30l-130 -614q-15 -71 -17.5 -101.5t5.5 -61.5v-2h-88v2q5 7 8.5 13.5t7.5 15.5
l6.5 14.5t5.5 17t4.5 16.5t5 19.5t4.5 19.5l4.5 22.5l4.5 22.5l93 442q11 65 -3.5 109t-63.5 44q-41 0 -65 -35.5t-47 -139.5l-23 -108h99l-4 -18h-99l-132 -622h-50l133 622h-171l-132 -622h-50z" />
    <glyph glyph-name="f_b.alt" unicode="&#xe4c5;b" horiz-adv-x="702" 
d="M428 -15q-67 0 -107.5 48.5t-18.5 150.5l91 422q13 63 -3.5 107.5t-64.5 44.5q-40 0 -65.5 -36.5t-46.5 -138.5l-23 -108h99l-4 -18h-99l-61 -291q-15 -71 -17.5 -102t5.5 -62v-2h-90v2q18 30 27.5 62.5t23.5 98.5l63 294h-56l4 18h55l20 92q45 212 181 212q54 0 78 -30
l60 30l-105 -482q83 193 202 193q106 0 106 -149q0 -140 -75.5 -248t-178.5 -108zM434 3q56 0 101 53.5t67 129t22 152.5q0 118 -70 118q-100 0 -194 -230l-11 -51q-20 -90 8 -131t77 -41z" />
    <glyph glyph-name="f_f.alt" unicode="&#xe4c5;&#xe4c5;" horiz-adv-x="476" 
d="M23 2q18 30 27.5 62.5t23.5 98.5l63 294h-56l4 18h56l15 72q23 108 69 160t106 52q20 0 29 -4l20 -8l7 -85l-4 -1q-21 39 -39 58t-40 19q-28 0 -51.5 -37.5t-43.5 -137.5l-19 -88h170l22 100q22 104 67 154t104 50q28 0 60 -17l7 -91l-4 -1q-27 47 -46.5 67.5t-43.5 20.5
q-27 0 -49.5 -36t-42.5 -131l-25 -116h100l-4 -18h-99l-62 -291q-15 -71 -17.5 -102t5.5 -62v-2h-90v2q5 8 9.5 17t7.5 16t7 19t5.5 17.5l5.5 21t5 20.5t5.5 25t5.5 25l64 294h-170l-62 -291q-15 -71 -17.5 -102t5.5 -62v-2h-90v2z" />
    <glyph glyph-name="f_f_b.alt" unicode="&#xe4c5;&#xe4c5;b" horiz-adv-x="922" 
d="M648 -15q-67 0 -107.5 48.5t-18.5 150.5l91 422q13 63 -3.5 107.5t-64.5 44.5q-40 0 -65.5 -36.5t-46.5 -138.5l-23 -108h99l-4 -18h-99l-61 -291q-15 -71 -17.5 -102t5.5 -62v-2h-90v2q18 30 27.5 62.5t23.5 98.5l63 294h-170l-62 -291q-15 -71 -17.5 -102t5.5 -62v-2
h-90v2q18 30 27.5 62.5t23.5 98.5l63 294h-56l4 18h56l15 72q23 108 69 160t106 52q20 0 29 -4l20 -8l7 -85l-4 -1q-21 39 -39 58t-40 19q-28 0 -51.5 -37.5t-43.5 -137.5l-19 -88h170l20 92q45 212 181 212q54 0 78 -30l60 30l-105 -482q83 193 202 193q106 0 106 -149
q0 -140 -75.5 -248t-178.5 -108zM654 3q56 0 101 53.5t67 129t22 152.5q0 118 -70 118q-100 0 -194 -230l-11 -51q-20 -90 8 -131t77 -41z" />
    <glyph glyph-name="f_f_h.alt" unicode="&#xe4c5;&#xe4c5;h" horiz-adv-x="924" 
d="M828 358q9 40 -0.5 66.5t-38.5 26.5q-42 0 -100.5 -70.5t-122.5 -216.5l-8 -41q-16 -76 -3 -121v-2h-88v2q5 7 8.5 13.5t7.5 15.5l6.5 14.5t5.5 17t4.5 16.5t5 19.5t4.5 19.5l4.5 22.5l4.5 22.5l94 442q11 65 -3.5 109t-63.5 44q-40 0 -65.5 -36.5t-46.5 -138.5l-23 -108
h99l-4 -18h-99l-61 -291q-15 -71 -17.5 -102t5.5 -62v-2h-90v2q18 30 27.5 62.5t23.5 98.5l63 294h-170l-62 -291q-15 -71 -17.5 -102t5.5 -62v-2h-90v2q18 30 27.5 62.5t23.5 98.5l63 294h-56l4 18h56l15 72q23 108 69 160t106 52q20 0 29 -4l20 -8l7 -85l-4 -1
q-21 39 -39 58t-40 19q-28 0 -51.5 -37.5t-43.5 -137.5l-19 -88h170l20 92q45 212 181 212q54 0 78 -30l60 30l-121 -551q50 117 113.5 189.5t123.5 72.5q42 0 58.5 -36t2.5 -99l-51 -240q-8 -37 -8.5 -60t11 -34t37.5 -13v-2l-115 -15z" />
    <glyph glyph-name="f_f_i.alt" unicode="&#xe4c5;&#xe4c5;i" horiz-adv-x="647" 
d="M23 0v2q18 30 27.5 62.5t23.5 98.5l63 294h-56l4 18h56l15 72q23 108 69 160t106 52q20 0 29 -4l20 -8l7 -85l-4 -1q-21 39 -39 58t-40 19q-28 0 -51.5 -37.5t-43.5 -137.5l-19 -88h171l20 92q24 109 68.5 160.5t101.5 51.5q40 0 73 -24l9 -114l-4 -1q-28 68 -48.5 93
t-47.5 25q-31 0 -53.5 -36.5t-45.5 -138.5l-23 -108h120q50 0 99 20l-73 -372q-16 -76 -3 -121v-2h-88v2q5 7 8.5 13.5t7.5 15.5l6.5 14.5t5.5 17t4.5 16.5t5 19.5t4.5 19.5l4.5 22.5l4.5 22.5l35 178q14 75 -16 116h-129l-62 -291q-15 -71 -17.5 -102t5.5 -62v-2h-90v2
q5 8 9.5 17t7.5 16t7 19t5.5 17.5l5.5 21t5 20.5t5.5 25t5.5 25l63 294h-170l-62 -291q-15 -71 -17.5 -102t5.5 -62v-2h-90z" />
    <glyph glyph-name="f_f_j.alt" unicode="&#xe4c5;&#xe4c5;j" horiz-adv-x="645" 
d="M522 -52q-14 -69 -45 -112t-71 -51l-2 5q44 34 63 128l85 423q14 75 -16 116h-129l-62 -291q-15 -71 -17.5 -102t5.5 -62v-2h-90v2q5 8 9.5 17t7.5 16t7 19t5.5 17.5l5.5 21t5 20.5t5.5 25t5.5 25l63 294h-170l-62 -291q-15 -71 -17.5 -102t5.5 -62v-2h-90v2
q18 30 27.5 62.5t23.5 98.5l63 294h-56l4 18h56l15 72q23 108 69 160t106 52q20 0 29 -4l20 -8l7 -85l-4 -1q-21 39 -39 58t-40 19q-28 0 -51.5 -37.5t-43.5 -137.5l-19 -88h171l20 92q24 109 68.5 160.5t101.5 51.5q40 0 73 -24l9 -114l-4 -1q-28 68 -48.5 93t-47.5 25
q-31 0 -53.5 -36.5t-45.5 -138.5l-23 -108h120q50 0 99 20z" />
    <glyph glyph-name="f_f_k.alt" unicode="&#xe4c5;&#xe4c5;k" horiz-adv-x="854" 
d="M23 2q18 30 27.5 62.5t23.5 98.5l63 294h-56l4 18h56l15 72q23 108 69 160t106 52q20 0 29 -4l20 -8l7 -85l-4 -1q-21 39 -39 58t-40 19q-28 0 -51.5 -37.5t-43.5 -137.5l-19 -88h170l20 92q45 212 181 212q54 0 78 -30l59 30l-130 -614q-15 -71 -17.5 -101.5t5.5 -61.5
v-2h-88v2q5 7 8.5 13.5t7.5 15.5l6.5 14.5t5.5 17t4.5 16.5t5 19.5t4.5 19.5l4.5 22.5l4.5 22.5l93 442q11 65 -3.5 109t-63.5 44q-40 0 -65.5 -36.5t-46.5 -138.5l-23 -108h99l-4 -18h-99l-61 -291q-15 -71 -17.5 -102t5.5 -62v-2h-90v2q18 30 27.5 62.5t23.5 98.5l63 294
h-170l-62 -291q-15 -71 -17.5 -102t5.5 -62v-2h-90v2zM601 248l142 143q53 53 28 82v2h120v-2q-42 -16 -64.5 -32.5t-71.5 -65.5l-107 -106l95 -177q21 -40 37 -59t42 -31v-2h-90z" />
    <glyph glyph-name="f_f_l.alt" unicode="&#xe4c5;&#xe4c5;l" horiz-adv-x="649" 
d="M23 2q18 30 27.5 62.5t23.5 98.5l63 294h-56l4 18h56l15 72q23 108 69 160t106 52q20 0 29 -4l20 -8l7 -85l-4 -1q-21 39 -39 58t-40 19q-28 0 -51.5 -37.5t-43.5 -137.5l-19 -88h170l20 92q45 212 181 212q54 0 78 -30l59 30l-130 -614q-15 -71 -17.5 -101.5t5.5 -61.5
v-2h-88v2q5 7 8.5 13.5t7.5 15.5l6.5 14.5t5.5 17t4.5 16.5t5 19.5t4.5 19.5l4.5 22.5l4.5 22.5l93 442q11 65 -3.5 109t-63.5 44q-40 0 -65.5 -36.5t-46.5 -138.5l-23 -108h99l-4 -18h-99l-61 -291q-15 -71 -17.5 -102t5.5 -62v-2h-90v2q18 30 27.5 62.5t23.5 98.5l63 294
h-170l-62 -291q-15 -71 -17.5 -102t5.5 -62v-2h-90v2z" />
    <glyph glyph-name="f_f_t.alt" unicode="&#xe4c5;&#xe4c5;t" horiz-adv-x="708" 
d="M658 98q-62 -113 -125 -113q-27 0 -42.5 22.5t-4.5 70.5l82 379h-160l-62 -291q-15 -71 -17.5 -102t5.5 -62v-2h-90v2q5 8 9.5 17t7.5 16t7 19t5.5 17.5l5.5 21t5 20.5t5.5 25t5.5 25l64 294h-172l-62 -291q-15 -71 -17.5 -102t5.5 -62v-2h-90v2q18 30 27.5 62.5
t23.5 98.5l63 294h-56l4 18h56l15 72q23 108 69 160t106 52q20 0 29 -4l20 -8l7 -85l-4 -1q-21 39 -39 58t-40 19q-28 0 -51.5 -37.5t-43.5 -137.5l-19 -88h172l22 100q22 104 67 154t104 50q28 0 60 -17l7 -91l-4 -1q-27 47 -46.5 67.5t-43.5 20.5q-27 0 -49.5 -36
t-42.5 -131l-25 -116h124l99 74h2l-16 -74h118l-4 -18h-118l-81 -377q-12 -54 22 -54q37 0 92 78z" />
    <glyph glyph-name="f_h.alt" unicode="&#xe4c5;h" horiz-adv-x="704" 
d="M608 358q9 40 -0.5 66.5t-38.5 26.5q-42 0 -100.5 -70.5t-122.5 -216.5l-8 -41q-16 -76 -3 -121v-2h-88v2q5 7 8.5 13.5t7.5 15.5l6.5 14.5t5.5 17t4.5 16.5t5 19.5t4.5 19.5l4.5 22.5l4.5 22.5l94 442q11 65 -3.5 109t-63.5 44q-40 0 -65.5 -36.5t-46.5 -138.5l-23 -108
h99l-4 -18h-99l-61 -291q-15 -71 -17.5 -102t5.5 -62v-2h-90v2q18 30 27.5 62.5t23.5 98.5l63 294h-56l4 18h55l20 92q45 212 181 212q54 0 78 -30l60 30l-120 -548q50 116 112.5 187.5t123.5 71.5q42 0 58.5 -36t2.5 -99l-51 -240q-8 -37 -8.5 -60t11 -34t37.5 -13v-2
l-115 -15z" />
    <glyph glyph-name="f_i.alt" unicode="&#xe4c5;i" horiz-adv-x="427" 
d="M23 0v2q5 8 9.5 17t7.5 16t7 19t5.5 17.5l5.5 21t5 20.5t5.5 25t5.5 25l63 294h-55l4 18h55l20 92q24 109 68.5 160.5t101.5 51.5q40 0 73 -24l9 -114l-4 -1q-28 68 -48.5 93t-47.5 25q-31 0 -53.5 -36.5t-45.5 -138.5l-23 -108h120q50 0 99 20l-73 -372q-16 -76 -3 -121
v-2h-88v2q5 7 8.5 13.5t7.5 15.5l6.5 14.5t5.5 17t4.5 16.5t5 19.5t4.5 19.5l4.5 22.5l4.5 22.5l35 178q14 75 -16 116h-129l-62 -291q-15 -71 -17.5 -102t5.5 -62v-2h-90z" />
    <glyph glyph-name="f_j.alt" unicode="&#xe4c5;j" horiz-adv-x="426" 
d="M302 -52q-14 -69 -45 -112t-71 -51l-2 5q44 34 63 128l85 423q14 75 -16 116h-129l-62 -291q-15 -71 -17.5 -102t5.5 -62v-2h-90v2q5 8 9.5 17t7.5 16t7 19t5.5 17.5l5.5 21t5 20.5t5.5 25t5.5 25l63 294h-55l4 18h55l20 92q24 109 68.5 160.5t101.5 51.5q40 0 73 -24
l9 -114l-4 -1q-28 68 -48.5 93t-47.5 25q-31 0 -53.5 -36.5t-45.5 -138.5l-23 -108h120q50 0 99 20z" />
    <glyph glyph-name="f_k.alt" unicode="&#xe4c5;k" horiz-adv-x="634" 
d="M23 0v2q18 30 27.5 62.5t23.5 98.5l63 294h-56l4 18h55l20 92q45 212 181 212q54 0 78 -30l59 30l-130 -614q-15 -71 -17.5 -101.5t5.5 -61.5v-2h-88v2q5 7 8.5 13.5t7.5 15.5l6.5 14.5t5.5 17t4.5 16.5t5 19.5t4.5 19.5l4.5 22.5l4.5 22.5l93 442q11 65 -3.5 109
t-63.5 44q-40 0 -65.5 -36.5t-46.5 -138.5l-23 -108h99l-4 -18h-99l-61 -291q-15 -71 -17.5 -102t5.5 -62v-2h-90zM381 248l142 143q53 53 28 82v2h120v-2q-42 -16 -64.5 -32.5t-71.5 -65.5l-107 -106l95 -177q21 -40 37 -59t42 -31v-2h-90z" />
    <glyph glyph-name="f_l.alt" unicode="&#xe4c5;l" horiz-adv-x="429" 
d="M23 0v2q18 30 27.5 62.5t23.5 98.5l63 294h-56l4 18h55l20 92q45 212 181 212q54 0 78 -30l59 30l-130 -614q-15 -71 -17.5 -101.5t5.5 -61.5v-2h-88v2q5 7 8.5 13.5t7.5 15.5l6.5 14.5t5.5 17t4.5 16.5t5 19.5t4.5 19.5l4.5 22.5l4.5 22.5l93 442q11 65 -3.5 109
t-63.5 44q-40 0 -65.5 -36.5t-46.5 -138.5l-23 -108h99l-4 -18h-99l-61 -291q-15 -71 -17.5 -102t5.5 -62v-2h-90z" />
    <glyph glyph-name="f_t.alt" unicode="&#xe4c5;t" horiz-adv-x="488" 
d="M438 98q-62 -113 -125 -113q-27 0 -42.5 22.5t-4.5 70.5l82 379h-161l-62 -291q-15 -71 -17.5 -102t5.5 -62v-2h-90v2q5 8 9.5 17t7.5 16t7 19t5.5 17.5l5.5 21t5 20.5t5.5 25t5.5 25l64 294h-56l4 18h55l22 100q22 104 67 154t104 50q28 0 60 -17l7 -91l-4 -1
q-27 47 -46.5 67.5t-43.5 20.5q-27 0 -49.5 -36t-42.5 -131l-25 -116h125l99 74h2l-16 -74h118l-4 -18h-118l-81 -377q-12 -54 22 -54q37 0 92 78z" />
    <glyph glyph-name="f_f_k.altfk" unicode="&#xe4c5;&#xe4c5;&#xe4ca;" horiz-adv-x="870" 
d="M23 2q18 30 27.5 62.5t23.5 98.5l63 294h-56l4 18h56l15 72q23 108 69 160t106 52q20 0 29 -4l20 -8l7 -85l-4 -1q-21 39 -39 58t-40 19q-28 0 -51.5 -37.5t-43.5 -137.5l-19 -88h170l20 92q45 212 181 212q54 0 78 -30l59 30l-130 -614q-15 -71 -17.5 -101.5t5.5 -61.5
v-2h-88v2q5 7 8.5 13.5t7.5 15.5l6.5 14.5t5.5 17t4.5 16.5t5 19.5t4.5 19.5l4.5 22.5l4.5 22.5l93 442q11 65 -3.5 109t-63.5 44q-40 0 -65.5 -36.5t-46.5 -138.5l-23 -108h99l-4 -18h-99l-61 -291q-15 -71 -17.5 -102t5.5 -62v-2h-90v2q18 30 27.5 62.5t23.5 98.5l63 294
h-170l-62 -291q-15 -71 -17.5 -102t5.5 -62v-2h-90v2zM764 -5q-50 0 -98 87q-36 70 -69 164l145 145q53 53 28 82v2h120v-2q-42 -16 -80 -48t-166 -160q31 -87 65 -153q23 -41 39 -56t35 -15q23 0 42 19l3 -2q-18 -63 -64 -63z" />
    <glyph glyph-name="f_k.altfk" unicode="&#xe4c5;&#xe4ca;" horiz-adv-x="650" 
d="M23 0v2q18 30 27.5 62.5t23.5 98.5l63 294h-56l4 18h55l20 92q45 212 181 212q54 0 78 -30l59 30l-130 -614q-15 -71 -17.5 -101.5t5.5 -61.5v-2h-88v2q5 7 8.5 13.5t7.5 15.5l6.5 14.5t5.5 17t4.5 16.5t5 19.5t4.5 19.5l4.5 22.5l4.5 22.5l93 442q11 65 -3.5 109
t-63.5 44q-40 0 -65.5 -36.5t-46.5 -138.5l-23 -108h99l-4 -18h-99l-61 -291q-15 -71 -17.5 -102t5.5 -62v-2h-90zM544 -5q-50 0 -98 87q-36 70 -69 164l145 145q53 53 28 82v2h120v-2q-42 -16 -80 -48t-166 -160q31 -87 65 -153q23 -41 39 -56t35 -15q23 0 42 19l3 -2
q-18 -63 -64 -63z" />
    <glyph glyph-name="f_f_k.altk" unicode="ff&#xe4ca;" horiz-adv-x="870" 
d="M137 457h-56l4 18h56l15 72q23 108 69 160t106 52q20 0 29 -4l20 -8l7 -85l-4 -1q-21 39 -39 58t-40 19q-28 0 -50.5 -37t-44.5 -138l-19 -88h170l20 92q45 212 181 212q54 0 78 -30l59 30l-130 -614q-15 -71 -17.5 -101.5t5.5 -61.5v-2h-88v2q5 7 8.5 13.5t7.5 15.5
l6.5 14.5t5.5 17t4.5 16.5t5 19.5t4.5 19.5l4.5 22.5l4.5 22.5l93 442q11 65 -3.5 109t-63.5 44q-41 0 -65 -35.5t-47 -139.5l-23 -108h99l-4 -18h-99l-132 -622h-50l133 622h-171l-132 -622h-50zM764 -5q-50 0 -98 87q-36 70 -69 164l145 145q53 53 28 82v2h120v-2
q-42 -16 -80 -48t-166 -160q31 -87 65 -153q23 -41 39 -56t35 -15q23 0 42 19l3 -2q-18 -63 -64 -63z" />
    <glyph glyph-name="f_k.altk" unicode="f&#xe4ca;" horiz-adv-x="650" 
d="M4 -165l133 622h-56l4 18h55l20 92q45 212 181 212q54 0 78 -30l59 30l-130 -614q-15 -71 -17.5 -101.5t5.5 -61.5v-2h-88v2q5 7 8.5 13.5t7.5 15.5l6.5 14.5t5.5 17t4.5 16.5t5 19.5t4.5 19.5l4.5 22.5l4.5 22.5l93 442q11 65 -3.5 109t-63.5 44q-41 0 -65 -35.5
t-47 -139.5l-23 -108h99l-4 -18h-99l-132 -622h-50zM544 -5q-50 0 -98 87q-36 70 -69 164l145 145q53 53 28 82v2h120v-2q-42 -16 -80 -48t-166 -160q31 -87 65 -153q23 -41 39 -56t35 -15q23 0 42 19l3 -2q-18 -63 -64 -63z" />
    <glyph glyph-name=".notdef" horiz-adv-x="161" 
 />
    <glyph glyph-name=".null" horiz-adv-x="0" 
 />
    <glyph glyph-name=".null" horiz-adv-x="0" 
 />
    <glyph glyph-name="nonmarkingreturn" horiz-adv-x="333" 
 />
    <glyph glyph-name="CR" unicode="&#xd;" horiz-adv-x="130" 
 />
    <glyph glyph-name="space" unicode=" " horiz-adv-x="130" 
 />
    <glyph glyph-name="exclam" unicode="!" horiz-adv-x="200" 
d="M231 730l-136 -536h-14l90 536l1 2h59v-2zM59 -3q-19 0 -33 13.5t-14 33.5t14 33.5t33 13.5q20 0 33.5 -13.5t13.5 -33.5t-13.5 -33.5t-33.5 -13.5z" />
    <glyph glyph-name="quotedbl" unicode="&#x22;" horiz-adv-x="249" 
d="M109 542l12 190h70l-72 -190h-10zM229 542l12 190h70l-72 -190h-10z" />
    <glyph glyph-name="numbersign" unicode="#" horiz-adv-x="551" 
d="M415 483h-192l-47 -234h192zM364 231h-192l-47 -231h-23l47 231h-129v18h133l47 234h-129l1 18h132l47 231h23l-47 -231h192l47 231h23l-47 -231h129l-1 -18h-132l-47 -234h128v-18h-132l-47 -231h-23z" />
    <glyph glyph-name="dollar" unicode="$" horiz-adv-x="438" 
d="M450 565l-9 -2q-35 134 -105 157q-1 1 -5 1l-65 -306q5 -6 11 -11q36 -39 54 -62t36 -65.5t18 -87.5q0 -96 -59.5 -150t-150.5 -54l-21 -99h-22l21 100q-34 1 -67 12q-42 14 -75 33l-7 158l8 2q46 -151 126 -178q15 -4 20 -5l75 356l-3 4q-34 35 -53 59t-36.5 63
t-17.5 80q0 86 55 131.5t131 45.5h6l16 75h22l-17 -77q22 -1 47 -8q39 -11 60 -26zM190 5q67 0 107 48.5t40 117.5q0 83 -68 154l-18 20l-72 -340h11zM294 727q-56 0 -90.5 -37t-34.5 -95q0 -70 68 -149l11 -12l62 292q-5 1 -16 1z" />
    <glyph glyph-name="percent" unicode="%" horiz-adv-x="710" 
d="M366 598q0 -101 -54 -176.5t-121 -75.5q-48 0 -77 40.5t-29 108.5q0 100 54.5 176t120.5 76q49 0 77.5 -40.5t28.5 -108.5zM192 357q55 0 88.5 88.5t33.5 192.5q0 98 -54 98q-37 0 -66 -45t-42.5 -108t-13.5 -128q0 -98 54 -98zM111 14l521 729l17 -11l-522 -731z
M670 244q0 -101 -54 -176.5t-121 -75.5q-48 0 -77 40.5t-29 108.5q0 100 54.5 176t120.5 76q49 0 77.5 -40.5t28.5 -108.5zM496 3q55 0 88.5 88.5t33.5 192.5q0 98 -54 98q-37 0 -66 -45t-42.5 -108t-13.5 -128q0 -98 54 -98z" />
    <glyph glyph-name="ampersand" unicode="&#x26;" horiz-adv-x="806" 
d="M755 288q0 -55 -20.5 -107t-61.5 -96.5t-112 -72t-162 -27.5q-161 0 -255 80t-94 205q0 99 53.5 153.5t137.5 58.5q-29 10 -49 41t-20 77q0 63 43 105t119 42q41 0 77.5 -11t48.5 -20l9 -116l-5 -2q-28 60 -60.5 86.5t-78.5 26.5q-54 0 -87 -32.5t-33 -87.5
q0 -45 21.5 -72t54.5 -27q25 0 45 18l-2 -70q-41 24 -79 24q-67 0 -113 -48t-46 -134q0 -118 87 -183t227 -65q146 0 238 71t92 186q0 158 -183 158q-134 0 -134 -65q0 -38 50 -38q36 0 70 15l-7 -59q-68 -5 -99 21t-31 63q0 95 147 107q16 2 50 4t48 3q79 6 118.5 35.5
t39.5 93.5q0 40 -15 56.5t-43 16.5q-31 0 -79 -16l7 60q147 10 147 -122q0 -70 -45.5 -116t-144.5 -52q60 -8 94.5 -51.5t34.5 -116.5z" />
    <glyph glyph-name="quotesingle" unicode="'" horiz-adv-x="129" 
d="M109 542l12 190h70l-72 -190h-10z" />
    <glyph glyph-name="parenleft" unicode="(" horiz-adv-x="275" 
d="M183 -130q-43 46 -75.5 137.5t-32.5 204.5q0 329 279 543l8 -10q-243 -225 -243 -554q0 -101 21 -186t52 -126z" />
    <glyph glyph-name="parenright" unicode=")" horiz-adv-x="275" 
d="M121 755q43 -46 75.5 -137.5t32.5 -204.5q0 -329 -279 -543l-8 10q243 225 243 554q0 101 -21 186t-52 126z" />
    <glyph glyph-name="asterisk" unicode="*" horiz-adv-x="342" 
d="M268 466l-37 117l-75 -97l-38 38l100 72l-115 41l25 48l99 -74l4 123l53 -9l-39 -117l118 35l7 -53l-124 1l70 -102z" />
    <glyph glyph-name="plus" unicode="+" horiz-adv-x="532" 
d="M297 298v-210h-22v210h-210v20h210v210h22v-210h210v-20h-210z" />
    <glyph glyph-name="comma" unicode="," horiz-adv-x="209" 
d="M-29 -137q43 28 71 60.5t28 58.5t-32 66v2l51 42q36 -27 36 -68q0 -49 -44 -94.5t-102 -76.5z" />
    <glyph glyph-name="hyphen" unicode="-" horiz-adv-x="287" 
d="M45 263l8 40h214l-7 -40h-215z" />
    <glyph glyph-name="period" unicode="." horiz-adv-x="209" 
d="M82 -3q-19 0 -33 13.5t-14 33.5t14 33.5t33 13.5q20 0 33.5 -13.5t13.5 -33.5t-13.5 -33.5t-33.5 -13.5z" />
    <glyph glyph-name="slash" unicode="/" horiz-adv-x="358" 
d="M425 781h27l-535 -911h-27z" />
    <glyph glyph-name="zero" unicode="0" horiz-adv-x="581" 
d="M581 461q0 -124 -48.5 -235t-126.5 -176t-161 -65q-91 0 -145.5 78t-54.5 208q0 124 48.5 235t126.5 176t161 65q91 0 145.5 -78t54.5 -208zM246 5q64 0 118.5 49.5t87.5 126t51 161.5t18 163q0 113 -38 167.5t-103 54.5q-64 0 -118 -49.5t-87 -126t-51.5 -161.5
t-18.5 -163q0 -113 38 -167.5t103 -54.5z" />
    <glyph glyph-name="one" unicode="1" horiz-adv-x="223" 
d="M118 131q-15 -86 2 -129v-2h-101v2q32 47 46 130l87 494h-71v2q39 18 78.5 51.5t63.5 67.5h4z" />
    <glyph glyph-name="two" unicode="2" horiz-adv-x="426" 
d="M-30 0v10q235 198 331 331t96 239q0 76 -32 111.5t-81 35.5q-36 0 -65.5 -19t-47 -41t-50.5 -72l-12 -18l-8 2l43 136q66 32 142 32q170 0 170 -168q0 -119 -99 -239.5t-315 -288.5h194q34 0 60.5 13t40.5 27t41 46l6 -4l-51 -133h-363z" />
    <glyph glyph-name="three" unicode="3" horiz-adv-x="449" 
d="M169 -15q-97 0 -145 37l-10 132l8 2q33 -83 68.5 -117t88.5 -34q88 0 137.5 75t49.5 175q0 171 -136 171q-72 0 -125 -46l-8 10l307 280h-274l27 52h327l-2 -10l-305 -276q27 9 61 9q77 0 130 -50t53 -148q0 -66 -26.5 -124t-85.5 -98t-140 -40z" />
    <glyph glyph-name="four" unicode="4" horiz-adv-x="456" 
d="M239 2q22 35 42 130l10 58h-291l2 10l408 532h65l-442 -520h262l50 278h51l-50 -278h77l-10 -22h-70l-11 -59q-16 -82 6 -129v-2h-99v2z" />
    <glyph glyph-name="five" unicode="5" horiz-adv-x="468" 
d="M170 -15q-98 0 -146 37l-10 132l8 2q31 -82 67.5 -116.5t91.5 -34.5q63 0 106.5 38.5t61 94.5t17.5 124q0 186 -147 186q-78 0 -124 -46l-9 6l114 324h303l-18 -52h-281l-85 -241q46 29 114 29q92 0 142.5 -55.5t50.5 -153.5q0 -113 -66.5 -193.5t-189.5 -80.5z" />
    <glyph glyph-name="six" unicode="6" horiz-adv-x="480" 
d="M216 -15q-82 0 -131.5 63t-49.5 166q0 71 24.5 145.5t73.5 147t134 136.5t194 104l4 -10q-219 -101 -321 -323q61 72 156 72q76 0 121 -52t45 -146q0 -124 -75 -213.5t-175 -89.5zM218 5q85 0 137.5 85.5t52.5 197.5q0 167 -129 167q-103 0 -156 -97q-30 -88 -30 -170
q0 -91 33 -137t92 -46z" />
    <glyph glyph-name="seven" unicode="7" horiz-adv-x="414" 
d="M40 0q132 343 397 680h-333l19 52h364l-1 -10q-258 -353 -379 -722h-67z" />
    <glyph glyph-name="eight" unicode="8" horiz-adv-x="440" 
d="M206 -15q-80 0 -136 48.5t-56 125.5q0 72 48.5 133.5t138.5 84.5q-97 86 -97 187q0 83 53.5 133t128.5 50q71 0 113 -43.5t42 -113.5q0 -65 -38.5 -118.5t-120.5 -81.5q36 -32 59 -58t44 -69.5t21 -88.5q0 -81 -58.5 -135t-141.5 -54zM210 5q68 0 109 42.5t41 106.5
q0 18 -4 35.5t-8 30t-16.5 29.5t-17.5 24.5t-24.5 25.5t-23.5 22t-28 24t-26 22q-154 -56 -154 -203q0 -72 42 -115.5t110 -43.5zM273 398q124 58 124 194q0 135 -113 135q-60 0 -97 -37t-37 -100q0 -30 8 -55t27 -49t35 -39.5l46 -42.5z" />
    <glyph glyph-name="nine" unicode="9" horiz-adv-x="480" 
d="M65 -5q219 101 321 323q-61 -72 -156 -72q-76 0 -121 52t-45 146q0 124 75 213.5t175 89.5q82 0 131.5 -63t49.5 -166q0 -71 -24.5 -145.5t-73.5 -147t-134 -136.5t-194 -104zM253 277q101 0 154 97q30 88 30 170q0 91 -33 137t-92 46q-85 0 -137.5 -84t-52.5 -195
q0 -171 131 -171z" />
    <glyph glyph-name="colon" unicode=":" horiz-adv-x="219" 
d="M138 309q-19 0 -33 13.5t-14 33.5t14 33.5t33 13.5q20 0 33.5 -13.5t13.5 -33.5t-13.5 -33.5t-33.5 -13.5zM82 -3q-19 0 -33 13.5t-14 33.5t14 33.5t33 13.5q20 0 33.5 -13.5t13.5 -33.5t-13.5 -33.5t-33.5 -13.5z" />
    <glyph glyph-name="semicolon" unicode=";" horiz-adv-x="219" 
d="M-31 -137q43 28 71 60.5t28 58.5t-32 66v2l51 42q36 -27 36 -68q0 -49 -44 -94.5t-102 -76.5zM138 309q-19 0 -33 13.5t-14 33.5t14 33.5t33 13.5q20 0 33.5 -13.5t13.5 -33.5t-13.5 -33.5t-33.5 -13.5z" />
    <glyph glyph-name="less" unicode="&#x3c;" horiz-adv-x="530" 
d="M45 293v26l430 208v-25l-409 -196l409 -196v-25z" />
    <glyph glyph-name="equal" unicode="=" horiz-adv-x="532" 
d="M65 379v20h442v-20h-442zM65 237v20h442v-20h-442z" />
    <glyph glyph-name="greater" unicode="&#x3e;" horiz-adv-x="530" 
d="M75 85v25l409 196l-409 196v25l430 -208v-26z" />
    <glyph glyph-name="question" unicode="?" horiz-adv-x="370" 
d="M87 194q15 55 50.5 102t74.5 80.5l76 67.5t61 78t24 96q0 111 -99 111q-51 0 -92 -33t-93 -107l-7 3l44 123q70 32 152 32q73 0 113.5 -33.5t40.5 -98.5q0 -51 -26.5 -94.5t-68 -78l-85.5 -68.5t-86 -81t-63 -99h-16zM69 -3q-19 0 -33 13.5t-14 33.5t14 33.5t33 13.5
q20 0 33.5 -13.5t13.5 -33.5t-13.5 -33.5t-33.5 -13.5z" />
    <glyph glyph-name="at" unicode="@" horiz-adv-x="829" 
d="M408 -161q-164 0 -268.5 98t-104.5 262q0 181 124 309t317 128q151 0 239.5 -81.5t88.5 -226.5q0 -122 -61 -209t-158 -87q-73 0 -95 51t-2 122l7 26q-36 -89 -86 -148.5t-100 -59.5q-36 0 -56.5 27t-20.5 80q0 121 81 221.5t183 100.5q45 0 71 -17l28 17h4l-65 -244
q-22 -66 -10.5 -111.5t67.5 -45.5q80 0 129 79.5t49 193.5q0 139 -80.5 215.5t-215.5 76.5q-175 0 -284 -121.5t-109 -295.5q0 -157 91 -248.5t241 -91.5q128 0 214 60l8 -16q-89 -64 -226 -64zM331 62q25 0 50 20.5t48.5 59t39.5 70t35 75.5l29 113q-21 33 -61 33
q-75 0 -132.5 -95t-57.5 -195q0 -81 49 -81z" />
    <glyph glyph-name="A" unicode="A" horiz-adv-x="465" 
d="M299 646l-160 -350h191zM68 0h-122v2q34 27 53 54.5t48 88.5l276 594h19l56 -617q3 -49 12 -71.5t30 -48.5v-2h-129v2q41 37 34 125l-13 149h-202l-57 -124q-20 -46 -20.5 -88t15.5 -62v-2z" />
    <glyph glyph-name="B" unicode="B" horiz-adv-x="500" 
d="M24 0v2q22 35 42 130l84 469q13 77 -6 129v2q21 0 68.5 1.5t84.5 1.5q57 0 97 -15t60 -40.5t28 -52t8 -56.5q0 -75 -42.5 -126t-118.5 -65q53 -7 92.5 -48.5t39.5 -116.5q0 -91 -64.5 -153t-200.5 -62h-172zM166 391h95q91 0 133 53.5t42 131.5q0 69 -34 104.5t-112 35.5
q-55 0 -67 -7zM198 20q98 0 150.5 50t52.5 151q0 69 -31 109.5t-114 40.5h-93l-62 -344q33 -7 97 -7z" />
    <glyph glyph-name="C" unicode="C" horiz-adv-x="598" 
d="M525 53q-29 -24 -87.5 -46t-129.5 -22q-126 0 -190.5 84.5t-64.5 230.5q0 117 46 219t130.5 165t187.5 63q56 0 106.5 -18.5t72.5 -34.5l11 -139l-8 -2q-37 92 -85 133t-111 41q-88 0 -155 -66t-99 -165.5t-32 -214.5q0 -121 50.5 -198.5t142.5 -77.5q76 0 131 48.5
t114 147.5l10 -2z" />
    <glyph glyph-name="D" unicode="D" horiz-adv-x="583" 
d="M24 2q22 35 42 130l84 469q13 77 -6 129v2q55 0 88.5 1.5t84.5 1.5q259 0 259 -291q0 -188 -108.5 -316t-280.5 -128h-163v2zM224 716l-126 -699l86 2q82 2 147 40.5t103.5 101.5t58 137.5t19.5 155.5q0 262 -211 262h-77z" />
    <glyph glyph-name="E" unicode="E" horiz-adv-x="496" 
d="M400 0h-376v2q22 35 42 130l84 469q13 77 -6 129v2h326l11 -145l-8 -2q-32 69 -56 96t-61 27l-132 4l-60 -334h97q9 0 18 4t15.5 9t15.5 16l14 17t15 20t13 19h8l-29 -185h-8q-12 30 -18 43t-18 25t-29 12h-98l-61 -340l162 5q14 0 26 2t24 7t20 8t20 13.5l17.5 15
t19.5 20t19 21.5l22 26.5t23 28.5l8 -3z" />
    <glyph glyph-name="F" unicode="F" horiz-adv-x="446" 
d="M125 0h-101v2q22 35 42 130l84 469q13 77 -6 129v2h336l11 -145l-8 -2q-32 69 -56 96t-61 27l-144 4l-58 -324h104q9 0 18 4t15.5 9t15.5 16l14 17t15 20t13 19h8l-29 -185h-8q-22 56 -34.5 68t-30.5 12h-105l-42 -237q-14 -82 7 -129v-2z" />
    <glyph glyph-name="G" unicode="G" horiz-adv-x="616" 
d="M594 322q-28 -45 -42 -130l-19 -105q-1 -1 -26 -23t-37.5 -29.5l-39 -22.5t-56.5 -21t-66 -6q-124 0 -189.5 85t-65.5 231q0 116 46 218t130.5 165t187.5 63q56 0 106.5 -18.5t72.5 -34.5l11 -139l-8 -2q-37 92 -85 133t-111 41q-88 0 -155 -66t-99 -165.5t-32 -213.5
q0 -126 46 -201.5t149 -75.5q85 0 131 52.5t59 155.5q10 59 -9 109v2h101v-2z" />
    <glyph glyph-name="H" unicode="H" horiz-adv-x="583" 
d="M24 2q22 35 42 130l84 469q13 77 -6 129v2h101v-2q-28 -45 -42 -130l-38 -212h307l38 213q13 77 -6 129v2h101v-2q-28 -45 -42 -130l-84 -469q-14 -79 6 -129v-2h-101v2q22 35 42 130l42 236h-307l-42 -237q-14 -79 6 -129v-2h-101v2z" />
    <glyph glyph-name="I" unicode="I" horiz-adv-x="224" 
d="M24 0v2q22 35 42 130l84 469q13 77 -6 129v2h101v-2q-28 -45 -42 -130l-84 -469q-14 -79 6 -129v-2h-101z" />
    <glyph glyph-name="J" unicode="J" horiz-adv-x="312" 
d="M211 123q-25 -138 -124 -138q-41 0 -79 23l9 125l8 2q20 -69 35.5 -99.5t37.5 -30.5q39 0 55 88l91 508q13 77 -6 129v2h101v-2q-28 -45 -42 -130z" />
    <glyph glyph-name="K" unicode="K" horiz-adv-x="498" 
d="M24 2q22 35 42 130l84 469q13 77 -6 129v2h101v-2q-28 -45 -42 -130l-84 -469q-14 -79 6 -129v-2h-101v2zM377 0l-200 361l213 248l29 36t17.5 28.5t6.5 28.5t-9 28v2h126v-2q-32 -18 -58 -38.5t-40 -34.5t-42 -46l-198 -228l160 -287q20 -38 37 -58t48 -36v-2h-90z" />
    <glyph glyph-name="L" unicode="L" horiz-adv-x="475" 
d="M24 0v2q22 35 42 130l84 469q13 77 -6 129v2h101v-2q-28 -45 -42 -130l-104 -585l161 9q38 2 72 23t53.5 43t60.5 75l5 -3l-70 -162h-357z" />
    <glyph glyph-name="M" unicode="M" horiz-adv-x="704" 
d="M6 0v2q32 45 43.5 76.5t22.5 89.5l72 403q12 56 9 89t-31 70v2h93l110 -632l335 632h94v-2q-38 -31 -49.5 -57t-23.5 -90l-3 -15l-78 -437q-14 -79 6 -129v-2h-101v2q22 35 42 130l92 515l-332 -626h-20l-109 620l-84 -473q-11 -52 -9 -86.5t23 -79.5v-2h-102z" />
    <glyph glyph-name="N" unicode="N" horiz-adv-x="597" 
d="M180 647l-87 -483q-11 -52 -9 -84t23 -78v-2h-101v2q32 45 43 75t22 87l73 404q13 56 10 90.5t-31 71.5v2h80l267 -630l84 466q11 52 9 84t-23 78v2h101v-2q-32 -45 -44 -76t-21 -86l-102 -568l-18 -3z" />
    <glyph glyph-name="O" unicode="O" horiz-adv-x="662" 
d="M655 437q0 -119 -49 -223t-132.5 -166.5t-179.5 -62.5q-106 0 -173.5 87.5t-67.5 222.5q0 119 49 223t132.5 166.5t179.5 62.5q106 0 173.5 -87.5t67.5 -222.5zM117 276q0 -122 47 -196.5t137 -74.5q88 0 155.5 65t101 166.5t33.5 219.5q0 122 -47 196.5t-137 74.5
q-88 0 -155.5 -65t-101 -166.5t-33.5 -219.5z" />
    <glyph glyph-name="P" unicode="P" horiz-adv-x="476" 
d="M24 2q22 35 42 130l84 469q13 77 -6 129v2h160q57 0 97 -14t61 -39.5t29.5 -55t8.5 -66.5q0 -116 -75 -186.5t-193 -70.5h-83l-30 -169q-14 -79 6 -129v-2h-101v2zM305 712q-44 0 -82 -2l-70 -390h87q55 0 95 21t61.5 57t31.5 76.5t10 87.5q0 78 -28 114t-105 36z" />
    <glyph glyph-name="Q" unicode="Q" horiz-adv-x="662" 
d="M655 437q0 -133 -62 -246.5t-161 -169.5q-60 -33 -126 -36q14 -15 30 -27q66 -47 148 -47q58 0 91 19l-19 -58q-31 -19 -80 -19q-67 0 -119 37q-51 36 -79 96q-46 3 -82 22q-67 35 -105 110.5t-38 176.5q0 119 49 223t132.5 166.5t179.5 62.5q106 0 173.5 -87.5
t67.5 -222.5zM117 276q0 -122 47 -196.5t137 -74.5q88 0 155.5 65t101 166.5t33.5 219.5q0 122 -47 196.5t-137 74.5q-88 0 -155.5 -65t-101 -166.5t-33.5 -219.5z" />
    <glyph glyph-name="R" unicode="R" horiz-adv-x="494" 
d="M24 2q22 35 42 130l84 469q13 77 -6 129v2h158q182 0 182 -159q0 -83 -49 -140t-116 -72l68 -257q12 -46 28.5 -68t46.5 -34v-2h-104l-92 353h-107l-40 -222q-14 -79 6 -129v-2h-101v2zM293 711h-37q-22 0 -33 -1l-61 -337h94q82 0 124 58.5t42 143.5q0 71 -31 103.5
t-98 32.5z" />
    <glyph glyph-name="S" unicode="S" horiz-adv-x="438" 
d="M450 565l-9 -2q-24 93 -61 128.5t-86 35.5q-56 0 -90.5 -37t-34.5 -95q0 -37 18 -74t36 -58.5t54 -58.5q36 -39 54 -62t36 -65.5t18 -87.5q0 -96 -59.5 -150t-150.5 -54q-89 0 -164 46l-7 158l8 2q32 -105 75.5 -145.5t102.5 -40.5q67 0 107 48.5t40 117.5q0 31 -8 57.5
t-27 53.5t-31.5 41.5t-40.5 44.5q-34 35 -53 59t-36.5 63t-17.5 80q0 86 55 131.5t131 45.5q79 0 134 -36z" />
    <glyph glyph-name="T" unicode="T" horiz-adv-x="556" 
d="M185 0v2q22 35 42 130l104 582l-93 -4q-43 -2 -71.5 -30.5t-92.5 -126.5l-8 4l60 175h470v-177l-8 -2q-27 91 -46.5 122.5t-47.5 33.5l-110 4l-104 -582q-14 -79 6 -129v-2h-101z" />
    <glyph glyph-name="U" unicode="U" horiz-adv-x="542" 
d="M252 -15q-92 0 -149 61t-35 180l68 375q13 77 -6 129v2h101v-2q-28 -45 -42 -130l-67 -371q-20 -111 21 -166.5t116 -55.5q78 0 121.5 55t57.5 135l70 371q11 52 9 84t-23 78v2h102v-2q-32 -45 -43 -75t-22 -87l-70 -371q-8 -41 -22 -76t-38 -67t-62 -50.5t-87 -18.5z
" />
    <glyph glyph-name="V" unicode="V" horiz-adv-x="461" 
d="M156 -8l-34 584q-5 100 -34 154v2h116v-2q-36 -52 -30 -155l27 -485l231 487q20 43 25 77t1.5 47t-11.5 29v2h107v-2q-28 -23 -43.5 -47t-52.5 -100l-282 -591h-20z" />
    <glyph glyph-name="W" unicode="W" horiz-adv-x="730" 
d="M153 -8l-33 584q-3 68 -10.5 98.5t-21.5 55.5v2h113v-2q-35 -50 -29 -155l26 -476l213 476v1q-5 100 -34 154v2h116v-2q-36 -52 -30 -155l26 -477l212 479q20 44 25 78t1.5 46.5t-11.5 28.5v2h107v-2q-31 -25 -48 -50t-48 -97l-263 -591h-20l-30 536l-241 -536h-20z" />
    <glyph glyph-name="X" unicode="X" horiz-adv-x="494" 
d="M107 0h-119v2q22 17 40.5 38t27.5 34.5l39 59.5l151 232l-73 236q-20 64 -31 87.5t-32 40.5v2h127v-2q-33 -41 -8 -121l63 -203l109 173q63 101 26 151v2h119v-2q-32 -26 -52 -51.5t-55 -80.5l-139 -217l77 -251q27 -94 68 -128v-2h-130v2q31 39 6 121l-67 218l-121 -188
q-63 -101 -26 -151v-2z" />
    <glyph glyph-name="Y" unicode="Y" horiz-adv-x="466" 
d="M128 2q26 38 37.5 67.5t21.5 80.5l34 188l-66 266q-13 52 -25.5 80t-32.5 46v2h123v-2q-30 -35 -10 -119l58 -249l138 228q54 88 15 140v2h114v-2q-62 -68 -96 -124l-166 -273l-32 -183q-10 -51 -8 -80.5t16 -67.5l-1 -2h-120v2z" />
    <glyph glyph-name="Z" unicode="Z" horiz-adv-x="476" 
d="M-17 0v11l483 703l-160 -5q-27 -1 -47.5 -7t-34.5 -12.5t-34 -29.5t-32 -38t-43 -59l-8 3l61 166h364v-11l-482 -705l179 8q67 4 103 34.5t102 132.5l8 -3l-70 -188h-389z" />
    <glyph glyph-name="bracketleft" unicode="[" horiz-adv-x="295" 
d="M198 755h184l-4 -18h-144l-165 -849h145l-5 -18h-184z" />
    <glyph glyph-name="backslash" unicode="\" horiz-adv-x="358" 
d="M88 781l286 -911h-24l-286 911h24z" />
    <glyph glyph-name="bracketright" unicode="]" horiz-adv-x="295" 
d="M121 -130h-184l4 18h144l165 849h-145l5 18h184z" />
    <glyph glyph-name="asciicircum" unicode="^" horiz-adv-x="412" 
d="M280 660l-191 -176l-9 8l209 253h6l117 -253l-9 -8z" />
    <glyph glyph-name="underscore" unicode="_" horiz-adv-x="490" 
d="M-10 -100l3 18h430l-3 -18h-430z" />
    <glyph glyph-name="grave" unicode="`" horiz-adv-x="298" 
d="M297 533l-146 178l55 38l99 -210z" />
    <glyph glyph-name="a" unicode="a" horiz-adv-x="437" 
d="M130 29q29 0 58.5 24t57.5 69.5t45.5 81l41.5 88.5l37 140q-22 35 -72 35q-59 0 -112 -54.5t-82 -133t-29 -153.5q0 -97 55 -97zM312 202q-43 -98 -96 -157.5t-112 -59.5q-39 0 -61.5 32t-22.5 94q0 93 43 181t114.5 143t149.5 55q46 0 79 -18l24 18h4l-100 -382
q-12 -39 -8.5 -62t33.5 -35v-1l-105 -19z" />
    <glyph glyph-name="b" unicode="b" horiz-adv-x="446" 
d="M172 -15q-67 0 -107.5 48.5t-18.5 150.5l95 441q10 48 6 72.5t-24 46.5v2l100 33l-105 -482q83 193 202 193q106 0 106 -149q0 -140 -75.5 -248t-178.5 -108zM178 3q56 0 101 53.5t67 129t22 152.5q0 118 -70 118q-43 0 -94 -52.5t-100 -177.5l-11 -51q-20 -90 8 -131
t77 -41z" />
    <glyph glyph-name="c" unicode="c" horiz-adv-x="374" 
d="M329 132q-22 -68 -64 -107.5t-102 -39.5q-68 0 -105.5 51.5t-37.5 134.5q0 124 75 221.5t176 97.5q51 0 87 -26l8 -98l-10 -2q-22 50 -46 79t-58 29q-60 0 -117 -77t-57 -202q0 -165 110 -165q78 0 131 108z" />
    <glyph glyph-name="d" unicode="d" horiz-adv-x="447" 
d="M135 29q92 0 203 255l26 122q-3 22 -27 41.5t-65 19.5q-51 0 -97 -54.5t-71.5 -133.5t-25.5 -155q0 -95 57 -95zM329 223q-104 -238 -220 -238q-89 0 -89 129q0 141 86 258.5t195 117.5q44 0 78 -14l32 149q10 48 6 72.5t-24 46.5v2l100 33l-144 -671q-12 -39 -8.5 -62
t33.5 -35v-1l-103 -19z" />
    <glyph glyph-name="e" unicode="e" horiz-adv-x="364" 
d="M276 472q-52 0 -100 -44t-75 -116q225 22 225 112q0 48 -50 48zM310 105q-25 -55 -67.5 -87.5t-92.5 -32.5q-60 0 -95 46.5t-35 125.5q0 126 80.5 229.5t185.5 103.5q39 0 63.5 -16.5t24.5 -50.5q0 -54 -66 -89.5t-211 -33.5q-19 -59 -19 -124q0 -151 97 -151
q68 0 125 85z" />
    <glyph glyph-name="f" unicode="f" horiz-adv-x="257" 
d="M137 457h-56l4 18h55l20 92q23 108 69 160t105 52q28 0 60 -17l7 -91l-4 -1q-27 47 -46.5 67.5t-43.5 20.5q-27 0 -49.5 -37t-44.5 -138l-23 -108h99l-4 -18h-99l-132 -622h-50z" />
    <glyph glyph-name="g" unicode="g" horiz-adv-x="393" 
d="M102 268q0 -51 14 -75t48 -24q53 0 91.5 57t38.5 147q0 51 -14 75t-48 24q-53 0 -91.5 -57t-38.5 -147zM327 -71q0 -61 -59.5 -107.5t-156.5 -46.5q-75 0 -123.5 29t-48.5 80t47 84.5t113 42.5q-43 22 -43 67q0 31 17.5 52t44.5 30q-34 14 -53 48t-19 74q0 78 60 143
t126 65q34 0 60 -16l140 24h1l-13 -59h-4l-108 23q42 -38 42 -103q0 -78 -60 -143t-126 -65q-19 0 -30 4q-44 -15 -44 -52q0 -54 104 -70l34.5 -8t34 -11.5t33.5 -18.5t21.5 -27t9.5 -39zM125 -200q76 0 121.5 32t45.5 78q0 10 -2 18t-7 15t-9.5 12t-14 9.5l-14.5 7
t-17.5 5.5t-17 4.5t-18.5 4t-17 3.5q-46 9 -63 16q-60 -11 -91.5 -40.5t-31.5 -71.5t33.5 -67.5t102.5 -25.5z" />
    <glyph glyph-name="h" unicode="h" horiz-adv-x="462" 
d="M366 358q9 40 -0.5 66.5t-38.5 26.5q-42 0 -100.5 -70.5t-122.5 -216.5l-8 -41q-16 -76 -3 -121v-2h-88v2q5 7 8.5 13.5t7.5 15.5l6.5 14.5t5.5 17t4.5 16.5t5 19.5t4.5 19.5l4.5 22.5l4.5 22.5l99 462q10 48 6 72.5t-24 46.5v2l100 33l-121 -551q50 117 113.5 189.5
t123.5 72.5q42 0 58.5 -36t2.5 -99l-51 -240q-8 -37 -8.5 -60t11 -34t37.5 -13v-2l-115 -15z" />
    <glyph glyph-name="i" unicode="i" 
d="M216 659q0 -17 -12 -29t-29 -12t-29 12t-12 29t12 29t29 12t29 -12t12 -29zM7 2q5 7 8.5 13.5t7.5 15.5l6.5 14.5t5.5 17t4.5 16.5t5 19.5t4.5 19.5l4.5 22.5l4.5 22.5l35 178q15 75 -18 119v2l96 33l-73 -372q-16 -76 -3 -121v-2h-88v2z" />
    <glyph glyph-name="j" unicode="j" horiz-adv-x="182" 
d="M211 659q0 -17 -12 -29t-29 -12t-29 12t-12 29t12 29t29 12t29 -12t12 -29zM-60 -210q44 34 63 128l85 423q15 75 -18 119v2l96 33l-108 -547q-14 -69 -45 -112t-71 -51z" />
    <glyph glyph-name="k" unicode="k" horiz-adv-x="392" 
d="M5 0v2q5 7 8.5 13.5t7.5 15.5l6.5 14.5t5.5 17t4.5 16.5t5 19.5t4.5 19.5l4.5 22.5l4.5 22.5l99 462q10 48 6 72.5t-24 46.5v2l100 33l-132 -614q-15 -71 -17.5 -101.5t5.5 -61.5v-2h-88zM139 248l142 143q53 53 28 82v2h120v-2q-42 -16 -64.5 -32.5t-71.5 -65.5
l-107 -106l95 -177q21 -40 37 -59t42 -31v-2h-90z" />
    <glyph glyph-name="l" unicode="l" 
d="M5 0v2q5 7 8.5 13.5t7.5 15.5l6.5 14.5t5.5 17t4.5 16.5t5 19.5t4.5 19.5l4.5 22.5l4.5 22.5l99 462q10 48 6 72.5t-24 46.5v2l100 33l-132 -614q-15 -71 -17.5 -101.5t5.5 -61.5v-2h-88z" />
    <glyph glyph-name="m" unicode="m" horiz-adv-x="689" 
d="M594 358q10 37 1 65t-37 28q-41 0 -94.5 -70.5t-111.5 -217.5l-9 -40q-16 -76 -3 -121v-2h-87v2q7 10 12.5 21.5t8.5 19.5t7.5 25.5t6 24l7 31.5t7.5 33l45 201q10 39 1 66t-35 27q-41 0 -92.5 -69t-109.5 -215l-10 -44q-16 -76 -3 -121v-2h-88v2q5 7 8.5 13.5t7.5 15.5
l6.5 14.5t5.5 17t4.5 16.5t5 19.5t4.5 19.5l4.5 22.5l4.5 22.5l38 178q17 72 -18 119v2l100 33l-54 -244q44 108 99 173.5t111 65.5q39 0 54.5 -35t0.5 -100l-26 -116q47 115 102.5 183t113.5 68q42 0 58 -36t2 -99l-54 -240q-14 -56 -6.5 -79.5t46.5 -27.5v-2l-115 -15z
" />
    <glyph glyph-name="n" unicode="n" horiz-adv-x="466" 
d="M371 358q9 40 -0.5 66.5t-38.5 26.5q-43 0 -99.5 -69.5t-121.5 -214.5l-10 -44q-16 -76 -3 -121v-2h-88v2q5 7 8.5 13.5t7.5 15.5l6.5 14.5t5.5 17t4.5 16.5t5 19.5t4.5 19.5l4.5 22.5l4.5 22.5l38 178q17 72 -18 119v2l100 33l-58 -262q50 115 113 186t122 71
q42 0 58.5 -36t2.5 -99l-54 -240q-14 -56 -6.5 -79.5t46.5 -27.5v-2l-115 -15z" />
    <glyph glyph-name="o" unicode="o" horiz-adv-x="410" 
d="M390 316q0 -81 -32.5 -158t-87.5 -125t-114 -48q-61 0 -98.5 46t-37.5 128q0 81 32.5 158t87.5 125t114 48q61 0 98.5 -46t37.5 -128zM78 151q0 -148 82 -148q69 0 120.5 91t51.5 230q0 148 -82 148q-69 0 -120.5 -91t-51.5 -230z" />
    <glyph glyph-name="p" unicode="p" horiz-adv-x="447" 
d="M-45 -225v2q5 7 8.5 13.5t7.5 15.5l6.5 14.5t5.5 17t4.5 16.5t5 19.5t4.5 19.5l4.5 22.5l4.5 22.5l83 403q15 75 -18 119v2l100 33l-46 -207q81 202 196 202q106 0 106 -154q0 -140 -71.5 -245.5t-176.5 -105.5q-71 0 -104 55l-21 -100q-25 -117 -11 -163v-2h-88zM183 3
q57 0 101 54t64.5 127.5t20.5 148.5q0 123 -70 123q-42 0 -89.5 -53t-94.5 -180l-10 -47q-18 -93 7 -133t71 -40z" />
    <glyph glyph-name="q" unicode="q" horiz-adv-x="444" 
d="M214 -223q14 19 24 47t14.5 46.5t14.5 67.5l64 302q-46 -118 -104.5 -186.5t-114.5 -68.5q-44 0 -68 33.5t-24 96.5q0 91 41 178t110.5 142t147.5 55q55 0 86 -23l28 24h2l-118 -552q-15 -70 -17.5 -100.5t4.5 -61.5v-2h-90v2zM137 29q100 0 213 298l11 52q9 42 -9.5 65
t-58.5 23q-57 0 -108 -54.5t-79 -133t-28 -153.5q0 -97 59 -97z" />
    <glyph glyph-name="r" unicode="r" horiz-adv-x="298" 
d="M10 2q5 7 8.5 13.5t7.5 15.5l6.5 14.5t5.5 17t4.5 16.5t5 19.5t4.5 19.5l4.5 22.5l4.5 22.5l38 178q17 72 -18 119v2l100 33l-53 -242q47 120 97.5 178.5t112.5 58.5l-31 -75h-2q-8 5 -21 5q-43 0 -80.5 -54.5t-92.5 -197.5l-10 -45q-16 -76 -3 -121v-2h-88v2z" />
    <glyph glyph-name="s" unicode="s" horiz-adv-x="313" 
d="M293 375l-8 -2q-44 99 -104 99q-31 0 -49.5 -22t-18.5 -55q0 -28 15.5 -54t37.5 -48l44 -46t37.5 -57t15.5 -71q0 -64 -38.5 -99t-97.5 -35q-72 0 -116 38l-3 113l8 2q23 -67 55 -101t69 -34q36 0 59.5 26t23.5 67q0 30 -15 57.5t-37 49.5l-44 45t-37 54t-15 66
q0 59 36.5 90.5t90.5 31.5q52 0 88 -20z" />
    <glyph glyph-name="t" unicode="t" horiz-adv-x="264" 
d="M89 -15q-28 0 -42.5 22t-4.5 71l82 379h-55v2l121 90h2l-16 -74h118l-4 -18h-118l-81 -377q-12 -54 22 -54q37 0 92 78l9 -6q-62 -113 -125 -113z" />
    <glyph glyph-name="u" unicode="u" horiz-adv-x="444" 
d="M317 204q-43 -96 -98.5 -157.5t-111.5 -61.5q-44 0 -66.5 36t-4.5 106l66 253q18 74 -32 93v2h103l-89 -349q-13 -48 -0.5 -72.5t42.5 -24.5q53 0 112.5 79t108.5 210l16 61q21 74 -31 94v2h105l-96 -367q-12 -39 -8.5 -62t33.5 -35v-1l-106 -19z" />
    <glyph glyph-name="v" unicode="v" horiz-adv-x="351" 
d="M95 -5l-12 358q-2 55 -9.5 77t-33.5 43v2h89l12 -384l133 223q27 43 37 71.5t4.5 50.5t-30.5 37v2h106v-2l-286 -478h-10z" />
    <glyph glyph-name="w" unicode="w" horiz-adv-x="526" 
d="M95 -5l-12 358q-2 55 -9.5 77t-33.5 43v2h90l12 -380l138 235v23q0 53 -8 75.5t-35 44.5v2h90l5 -378l122 217q26 45 35.5 72.5t4 49t-30.5 37.5v2h103v-2l-271 -478h-10l-4 298l-176 -298h-10z" />
    <glyph glyph-name="x" unicode="x" horiz-adv-x="399" 
d="M89 0h-114v2q34 23 56 45.5t49 59.5l98 133l-49 134q-27 74 -58 99v2h116v-2q-12 -8 -15.5 -28t8.5 -64l40 -109l67 87q32 40 37 71.5t-14 42.5v2h114v-2q-22 -15 -41 -32t-30 -30t-34 -43l-92 -117l55 -150q16 -44 27.5 -64.5t30.5 -34.5v-2h-116v2q12 8 15.5 28
t-8.5 64l-45 125l-75 -103q-61 -85 -22 -114v-2z" />
    <glyph glyph-name="y" unicode="y" horiz-adv-x="362" 
d="M-89 -157q59 0 104.5 29.5t100.5 127.5l-30 353q-6 64 -12.5 82.5t-30.5 37.5v2h85l32 -394l121 233q25 47 34 73t4 48t-29 38v2h102v-2l-254 -473q-36 -71 -69.5 -116.5t-64.5 -67.5t-53.5 -29.5t-53.5 -11.5z" />
    <glyph glyph-name="z" unicode="z" horiz-adv-x="370" 
d="M-15 0v7l329 451l-94 -3q-39 -2 -72 -21t-79 -63l-4 2l49 102h266v-9l-329 -451l130 4q46 2 79 23t81 69l4 -2l-62 -109h-298z" />
    <glyph glyph-name="braceleft" unicode="{" horiz-adv-x="280" 
d="M158 -130q-58 0 -88.5 25.5t-30.5 68.5q0 39 25.5 84l51 92t25.5 90q0 40 -22.5 56.5t-67.5 16.5h-12l4 19h12q105 0 123 92q7 38 -4.5 112t-3.5 113q10 55 51 85.5t110 30.5h35l-3 -18h-35q-93 0 -114 -101q-8 -37 -4 -111.5t-2 -109.5q-9 -52 -39 -74t-75 -29l-1 -3
q78 -10 78 -79q0 -40 -42.5 -130t-42.5 -136q0 -40 21.5 -58t54.5 -18h35l-4 -18h-35z" />
    <glyph glyph-name="bar" unicode="|" horiz-adv-x="203" 
d="M115 -130v911h23v-911h-23z" />
    <glyph glyph-name="braceright" unicode="}" horiz-adv-x="280" 
d="M149 755q58 0 88.5 -25.5t30.5 -68.5q0 -39 -25.5 -84l-51 -92t-25.5 -90q0 -40 22.5 -56.5t67.5 -16.5h12l-4 -19h-12q-105 0 -123 -92q-7 -38 4.5 -112t3.5 -113q-10 -55 -51 -85.5t-110 -30.5h-35l3 18h35q93 0 114 101q8 37 4 111.5t2 109.5q9 52 39 74t75 29l1 3
q-78 10 -78 79q0 40 42.5 130t42.5 136q0 40 -21.5 58t-54.5 18h-35l4 18h35z" />
    <glyph glyph-name="asciitilde" unicode="~" horiz-adv-x="452" 
d="M144 328q24 0 96 -29t109 -29q29 0 44 14.5t24 46.5l8 -2q-1 -17 -5.5 -32.5t-14 -33.5t-29 -28.5t-45.5 -10.5q-31 0 -106 29t-100 29q-55 0 -69 -63l-9 2q3 39 26 73t71 34z" />
    <glyph glyph-name="uni00A0" unicode="&#xa0;" horiz-adv-x="130" 
 />
    <glyph glyph-name="exclamdown" unicode="&#xa1;" horiz-adv-x="200" 
d="M-28 -243l136 536h14l-90 -536l-1 -2h-59v2zM144 490q19 0 33 -13.5t14 -33.5t-14 -33.5t-33 -13.5q-20 0 -33.5 13.5t-13.5 33.5t13.5 33.5t33.5 13.5z" />
    <glyph glyph-name="cent" unicode="&#xa2;" horiz-adv-x="374" 
d="M329 132q-22 -68 -64 -107.5t-102 -39.5l-21 -99h-22l21 101q-22 3 -40 12q-81 42 -81 172q0 91 43 171.5t111 120.5q36 21 73 25l15 69h22l-14 -67h1q51 0 87 -26l8 -98l-10 -2q-32 76 -70 99q-11 5 -20 8l-94 -442q5 -1 16 -1q78 0 131 108zM195 454
q-48 -29 -82.5 -97.5t-34.5 -163.5q0 -135 73 -160l93 439q-24 -3 -49 -18z" />
    <glyph glyph-name="sterling" unicode="&#xa3;" horiz-adv-x="506" 
d="M414 0h-439v8q49 34 75 60t47.5 72.5t37.5 120.5l21 97h-81l4 18h81l20 96q29 136 83 205.5t127 69.5q29 0 58 -9.5t41 -21.5l10 -129l-9 -2q-57 142 -112 142q-15 0 -30 -10.5t-33 -35t-37.5 -73.5t-36.5 -118l-29 -114h127l-3 -18h-128l-18 -71q-26 -103 -65 -162.5
t-76 -79.5h264q61 0 92.5 23.5t73.5 96.5l7 -3z" />
    <glyph glyph-name="yen" unicode="&#xa5;" horiz-adv-x="464" 
d="M127 2q26 38 37.5 67.5t21.5 80.5l7 41h-160l3 18h160l21 113l-1 1h-160l4 18h152l-58 263q-20 91 -58 126v2h123v-2q-28 -33 -10 -119l54 -267l142 246q52 92 15 140v2h114v-2q-25 -26 -34 -36.5t-27.5 -34.5t-34.5 -53l-155 -265h151l-4 -18h-157l-5 -8l-18 -106h160
l-3 -18h-160l-7 -41q-10 -51 -8 -80.5t16 -67.5l-1 -2h-120v2z" />
    <glyph glyph-name="brokenbar" unicode="&#xa6;" horiz-adv-x="203" 
d="M115 365v416h23v-416h-23zM115 -130v415h23v-415h-23z" />
    <glyph glyph-name="section" unicode="&#xa7;" horiz-adv-x="468" 
d="M213 177q40 -32 56 -50q45 9 72.5 42t27.5 80q0 27 -8 48.5t-30 43.5t-31.5 30t-41.5 32q-35 27 -60 53q-43 -11 -70 -44.5t-27 -78.5q0 -34 19 -65t37 -46.5t56 -44.5zM149 -164q-39 0 -72.5 8.5t-44.5 18.5l-12 122l7 1q42 -130 137 -130q56 0 86.5 33.5t30.5 88.5
q0 38 -18.5 71.5t-36.5 50t-55 46.5q-35 27 -54.5 45.5t-37.5 52.5t-18 73q0 61 35 100t90 53q-38 48 -38 110q0 79 53 123t126 44q35 0 68 -9t44 -18l9 -112l-7 -1q-40 120 -128 120q-53 0 -86 -36t-33 -93q0 -37 18 -70t36.5 -50.5t53.5 -45.5q30 -24 41 -34t31 -33
t28 -47t8 -54q0 -61 -36 -100t-91 -52q40 -48 40 -113q0 -76 -48 -119.5t-126 -43.5z" />
    <glyph glyph-name="dieresis" unicode="&#xa8;" horiz-adv-x="428" 
d="M249 659q0 -17 -12 -29t-29 -12t-29 12t-12 29t12 29t29 12t29 -12t12 -29zM421 659q0 -17 -12 -29t-29 -12t-29 12t-12 29t12 29t29 12t29 -12t12 -29z" />
    <glyph glyph-name="copyright" unicode="&#xa9;" horiz-adv-x="848" 
d="M55 367q0 159 111 269.5t270 110.5t270.5 -110.5t111.5 -269.5t-111.5 -270t-270.5 -111t-270 111t-111 270zM80 367q0 -150 104 -255.5t252 -105.5t252 105.5t104 255.5t-104 255t-252 105t-252 -105t-104 -255zM579 199q-59 -42 -143 -42q-90 0 -143 60t-53 151
q0 89 56.5 148.5t149.5 59.5q65 0 131 -27l11 -91l-5 -2q-56 103 -144 103q-72 0 -110.5 -53t-38.5 -138q0 -88 37 -141t109 -53q100 0 148 125l6 -2z" />
    <glyph glyph-name="ordfeminine" unicode="&#xaa;" horiz-adv-x="358" 
d="M164 391q67 0 151 201l29 111q-16 26 -52 26q-68 0 -119 -87t-51 -177q0 -74 42 -74zM298 518q-33 -75 -74.5 -121.5t-85.5 -46.5q-31 0 -49.5 26.5t-18.5 76.5q0 110 73 202t169 92q39 0 65 -14l22 14h4l-77 -294q-11 -34 -7.5 -52.5t28.5 -29.5v-1l-93 -15z" />
    <glyph glyph-name="guillemotleft" unicode="&#xab;" horiz-adv-x="357" 
d="M282 52l-101 175l5 20l175 175l6 -6l-129 -182l53 -176zM142 52l-101 175l5 20l175 175l6 -6l-129 -182l53 -176z" />
    <glyph glyph-name="registered" unicode="&#xae;" horiz-adv-x="490" 
d="M50 541q0 86 62 146t150 60q87 0 147.5 -59.5t60.5 -146.5q0 -86 -62 -145.5t-149 -59.5q-88 0 -148.5 59t-60.5 146zM73 541q0 -78 54.5 -132t132.5 -54t132.5 54t54.5 132q0 79 -54.5 133t-132.5 54q-79 0 -133 -54t-54 -133zM186 434q12 13 12 35v146q0 22 -12 36v2
h81q71 0 71 -57q0 -42 -44 -56l39 -71q10 -18 16 -25t16 -10v-2h-44l-54 99h-39v-62q0 -22 12 -35v-2h-54v2zM228 635v-84h33q46 0 46 45q0 19 -10.5 29t-37.5 10h-31z" />
    <glyph glyph-name="macron" unicode="&#xaf;" horiz-adv-x="427" 
d="M175 645h241l-8 -35h-240z" />
    <glyph glyph-name="degree" unicode="&#xb0;" horiz-adv-x="355" 
d="M70 615q0 54 39.5 93t95.5 39t93 -38.5t37 -93.5t-39.5 -94t-94.5 -39q-56 0 -93.5 38.5t-37.5 94.5zM96 615q0 -48 29.5 -79.5t77.5 -31.5q47 0 76.5 31.5t29.5 79.5t-29.5 79t-76.5 31q-48 0 -77.5 -31t-29.5 -79z" />
    <glyph glyph-name="acute" unicode="&#xb4;" horiz-adv-x="427" 
d="M359 749l42 -44l-195 -172l-5 6z" />
    <glyph glyph-name="paragraph" unicode="&#xb6;" horiz-adv-x="460" 
d="M180 0v1q24 54 37 122l48 272h-30q-78 0 -123 40t-45 115q0 88 59.5 135t144.5 47h96v-1q-22 -44 -37 -122l-85 -486q-13 -71 -7 -122v-1h-58zM275 0v1q24 54 37 122l85 486q13 71 7 122v1h58v-1q-22 -44 -37 -122l-85 -486q-13 -71 -7 -122v-1h-58z" />
    <glyph glyph-name="periodcentered" unicode="&#xb7;" horiz-adv-x="174" 
d="M93 227q-19 0 -33 13.5t-14 33.5t14 33.5t33 13.5q20 0 33.5 -13.5t13.5 -33.5t-13.5 -33.5t-33.5 -13.5z" />
    <glyph glyph-name="cedilla" unicode="&#xb8;" horiz-adv-x="427" 
d="M70 -247q56 13 89.5 39.5t33.5 60.5q0 14 -6 24t-12.5 15.5t-19 9.5t-18 5t-16.5 2v2l72 91h27l-49 -60q65 -18 65 -73q0 -50 -47 -82.5t-119 -41.5v8z" />
    <glyph glyph-name="ordmasculine" unicode="&#xba;" horiz-adv-x="329" 
d="M369 609q0 -97 -58.5 -178t-130.5 -81q-51 0 -80.5 36.5t-29.5 101.5q0 97 58.5 178t130.5 81q51 0 80.5 -36.5t29.5 -101.5zM123 474q0 -110 60 -110q52 0 92.5 75t40.5 184q0 110 -60 110q-52 0 -92.5 -75t-40.5 -184z" />
    <glyph glyph-name="guillemotright" unicode="&#xbb;" horiz-adv-x="357" 
d="M221 422l101 -175l-5 -20l-175 -175l-6 6l129 182l-53 176zM81 422l101 -175l-5 -20l-175 -175l-6 6l129 182l-53 176z" />
    <glyph glyph-name="onequarter" unicode="&#xbc;" horiz-adv-x="627" 
d="M191 433q-5 -28 -4 -43t9 -35v-1h-89v1q26 35 34 78l40 228h-38l1 5q51 28 96 78h5zM64 14l521 729l17 -11l-522 -731zM402 1q20 32 29 78l4 21h-141l1 7l190 278h57l-233 -273h128l23 129h49l-22 -129h37l-5 -12h-34l-4 -21q-5 -29 -5 -43.5t7 -34.5v-1h-82z" />
    <glyph glyph-name="onehalf" unicode="&#xbd;" horiz-adv-x="647" 
d="M64 14l521 729l17 -11l-522 -731zM345 0l2 7q118 107 162.5 175t44.5 133q0 67 -47 67q-22 0 -43 -22.5t-48 -66.5l-5 2l25 83q36 15 75 15q46 0 70.5 -22t24.5 -63q0 -62 -47.5 -119.5t-157.5 -141.5h90q27 0 44.5 11t37.5 35l3 -2l-35 -91h-196zM201 433q-5 -28 -4 -43
t9 -35v-1h-89v1q26 35 34 78l40 228h-38l1 5q51 28 96 78h5z" />
    <glyph glyph-name="threequarters" unicode="&#xbe;" horiz-adv-x="635" 
d="M140 346q-47 0 -72 18l-7 83l5 1q31 -91 80 -91q38 0 62.5 44t24.5 95q0 81 -61 81q-29 0 -59 -23l-4 6l141 131h-134l25 47h173l-1 -5l-163 -150q15 7 35 7q40 0 69 -26.5t29 -75.5q0 -58 -39 -100t-104 -42zM72 14l521 729l17 -11l-522 -731zM410 1q20 32 29 78l4 21
h-141l1 7l190 278h57l-233 -273h128l23 129h49l-22 -129h37l-5 -12h-34l-4 -21q-5 -29 -5 -43.5t7 -34.5v-1h-82z" />
    <glyph glyph-name="questiondown" unicode="&#xbf;" horiz-adv-x="370" 
d="M305 293q-15 -55 -50.5 -102t-74.5 -80.5l-76 -67.5t-61 -78t-24 -96q0 -111 99 -111q51 0 92 33t93 107l7 -3l-44 -123q-70 -32 -152 -32q-73 0 -113.5 33.5t-40.5 98.5q0 51 26.5 94.5t68 78l85.5 68.5t86 81t63 99h16zM323 490q19 0 33 -13.5t14 -33.5t-14 -33.5
t-33 -13.5q-20 0 -33.5 13.5t-13.5 33.5t13.5 33.5t33.5 13.5z" />
    <glyph glyph-name="Agrave" unicode="&#xc0;" horiz-adv-x="465" 
d="M299 646l-160 -350h191zM68 0h-122v2q34 27 53 54.5t48 88.5l276 594h19l56 -617q3 -49 12 -71.5t30 -48.5v-2h-129v2q41 37 34 125l-13 149h-202l-57 -124q-20 -46 -20.5 -88t15.5 -62v-2zM424 782l-228 121l41 56l192 -170z" />
    <glyph glyph-name="Aacute" unicode="&#xc1;" horiz-adv-x="465" 
d="M299 646l-160 -350h191zM68 0h-122v2q34 27 53 54.5t48 88.5l276 594h19l56 -617q3 -49 12 -71.5t30 -48.5v-2h-129v2q41 37 34 125l-13 149h-202l-57 -124q-20 -46 -20.5 -88t15.5 -62v-2zM448 959l31 -57l-251 -120l-4 7z" />
    <glyph glyph-name="Acircumflex" unicode="&#xc2;" horiz-adv-x="465" 
d="M299 646l-160 -350h191zM68 0h-122v2q34 27 53 54.5t48 88.5l276 594h19l56 -617q3 -49 12 -71.5t30 -48.5v-2h-129v2q41 37 34 125l-13 149h-202l-57 -124q-20 -46 -20.5 -88t15.5 -62v-2zM353 875l-166 -93l-4 7l177 156h4l110 -156l-7 -7z" />
    <glyph glyph-name="Atilde" unicode="&#xc3;" horiz-adv-x="465" 
d="M299 646l-160 -350h191zM68 0h-122v2q34 27 53 54.5t48 88.5l276 594h19l56 -617q3 -49 12 -71.5t30 -48.5v-2h-129v2q41 37 34 125l-13 149h-202l-57 -124q-20 -46 -20.5 -88t15.5 -62v-2zM288 896q27 0 67 -25.5t65 -25.5q26 0 41.5 15.5t31.5 51.5l7 -1
q-30 -109 -107 -109q-29 0 -69 25.5t-64 25.5q-48 0 -76 -67l-8 1q7 24 17.5 45.5t36 42.5t58.5 21z" />
    <glyph glyph-name="Adieresis" unicode="&#xc4;" horiz-adv-x="465" 
d="M299 646l-160 -350h191zM68 0h-122v2q34 27 53 54.5t48 88.5l276 594h19l56 -617q3 -49 12 -71.5t30 -48.5v-2h-129v2q41 37 34 125l-13 149h-202l-57 -124q-20 -46 -20.5 -88t15.5 -62v-2zM485 868q0 -17 -12 -29t-29 -12t-29 12t-12 29t12 29t29 12t29 -12t12 -29z
M293 868q0 -17 -12 -29t-29 -12t-29 12t-12 29t12 29t29 12t29 -12t12 -29z" />
    <glyph glyph-name="Aring" unicode="&#xc5;" horiz-adv-x="465" 
d="M299 646l-160 -350h191zM68 0h-122v2q34 27 53 54.5t48 88.5l276 594h19l56 -617q3 -49 12 -71.5t30 -48.5v-2h-129v2q41 37 34 125l-13 149h-202l-57 -124q-20 -46 -20.5 -88t15.5 -62v-2zM255 865q0 37 23.5 61t60.5 24t60.5 -24t23.5 -61t-23.5 -60t-60.5 -23
t-60.5 23t-23.5 60zM283 865q0 -31 14.5 -48.5t41.5 -17.5t41.5 17.5t14.5 48.5q0 68 -56 68t-56 -68z" />
    <glyph glyph-name="AE" unicode="&#xc6;" horiz-adv-x="806" 
d="M465 630q3 14 5 38l-233 -372h168zM108 0h-118v2q41 27 65 54.5t63 88.5l348 555q-6 17 -22 30v2h336l11 -145l-8 -2q-32 69 -56 96t-61 27l-132 4l-60 -334h97q9 0 18 4t15.5 9t15.5 16l14 17t15 20t13 19h8l-29 -185h-8q-12 30 -18 43t-18 25t-29 12h-98l-61 -340
l162 5q14 0 26 2t24 7t20 8t20 13.5l17.5 15t19.5 20t19 21.5l22 26.5t23 28.5l8 -3l-60 -162h-376v2q22 35 42 130l26 144h-177l-84 -134q-56 -89 -33 -140v-2z" />
    <glyph glyph-name="Ccedilla" unicode="&#xc7;" horiz-adv-x="598" 
d="M152 -247q56 13 89.5 39.5t33.5 60.5q0 14 -6 24t-12.5 15.5t-19 9.5t-18 5t-16.5 2v2l60 77q-33 4 -68 19q-142 69 -142 293q0 117 46 219t130.5 165t187.5 63q56 0 106.5 -18.5t72.5 -34.5l11 -139l-8 -2q-37 92 -85 133t-111 41q-88 0 -155 -66t-99 -165.5t-32 -214.5
q0 -121 50.5 -198.5t142.5 -77.5q76 0 131 48.5t114 147.5l10 -2l-40 -146q-29 -24 -87.5 -46t-129.5 -22q-13 0 -20 1l-35 -44q65 -18 65 -73q0 -50 -47 -82.5t-119 -41.5v8z" />
    <glyph glyph-name="Egrave" unicode="&#xc8;" horiz-adv-x="496" 
d="M400 0h-376v2q22 35 42 130l84 469q13 77 -6 129v2h326l11 -145l-8 -2q-32 69 -56 96t-61 27l-132 4l-60 -334h97q9 0 18 4t15.5 9t15.5 16l14 17t15 20t13 19h8l-29 -185h-8q-12 30 -18 43t-18 25t-29 12h-98l-61 -340l162 5q14 0 26 2t24 7t20 8t20 13.5l17.5 15
t19.5 20t19 21.5l22 26.5t23 28.5l8 -3zM436 782l-228 121l41 56l192 -170z" />
    <glyph glyph-name="Eacute" unicode="&#xc9;" horiz-adv-x="496" 
d="M400 0h-376v2q22 35 42 130l84 469q13 77 -6 129v2h326l11 -145l-8 -2q-32 69 -56 96t-61 27l-132 4l-60 -334h97q9 0 18 4t15.5 9t15.5 16l14 17t15 20t13 19h8l-29 -185h-8q-12 30 -18 43t-18 25t-29 12h-98l-61 -340l162 5q14 0 26 2t24 7t20 8t20 13.5l17.5 15
t19.5 20t19 21.5l22 26.5t23 28.5l8 -3zM450 959l31 -57l-251 -120l-4 7z" />
    <glyph glyph-name="Ecircumflex" unicode="&#xca;" horiz-adv-x="496" 
d="M400 0h-376v2q22 35 42 130l84 469q13 77 -6 129v2h326l11 -145l-8 -2q-32 69 -56 96t-61 27l-132 4l-60 -334h97q9 0 18 4t15.5 9t15.5 16l14 17t15 20t13 19h8l-29 -185h-8q-12 30 -18 43t-18 25t-29 12h-98l-61 -340l162 5q14 0 26 2t24 7t20 8t20 13.5l17.5 15
t19.5 20t19 21.5l22 26.5t23 28.5l8 -3zM355 875l-166 -93l-4 7l177 156h4l110 -156l-7 -7z" />
    <glyph glyph-name="Edieresis" unicode="&#xcb;" horiz-adv-x="496" 
d="M400 0h-376v2q22 35 42 130l84 469q13 77 -6 129v2h326l11 -145l-8 -2q-32 69 -56 96t-61 27l-132 4l-60 -334h97q9 0 18 4t15.5 9t15.5 16l14 17t15 20t13 19h8l-29 -185h-8q-12 30 -18 43t-18 25t-29 12h-98l-61 -340l162 5q14 0 26 2t24 7t20 8t20 13.5l17.5 15
t19.5 20t19 21.5l22 26.5t23 28.5l8 -3zM479 868q0 -17 -12 -29t-29 -12t-29 12t-12 29t12 29t29 12t29 -12t12 -29zM287 868q0 -17 -12 -29t-29 -12t-29 12t-12 29t12 29t29 12t29 -12t12 -29z" />
    <glyph glyph-name="Igrave" unicode="&#xcc;" horiz-adv-x="224" 
d="M24 0v2q22 35 42 130l84 469q13 77 -6 129v2h101v-2q-28 -45 -42 -130l-84 -469q-14 -79 6 -129v-2h-101zM297 782l-228 121l41 56l192 -170z" />
    <glyph glyph-name="Iacute" unicode="&#xcd;" horiz-adv-x="224" 
d="M24 0v2q22 35 42 130l84 469q13 77 -6 129v2h101v-2q-28 -45 -42 -130l-84 -469q-14 -79 6 -129v-2h-101zM331 959l31 -57l-251 -120l-4 7z" />
    <glyph glyph-name="Icircumflex" unicode="&#xce;" horiz-adv-x="224" 
d="M24 0v2q22 35 42 130l84 469q13 77 -6 129v2h101v-2q-28 -45 -42 -130l-84 -469q-14 -79 6 -129v-2h-101zM226 875l-166 -93l-4 7l177 156h4l110 -156l-7 -7z" />
    <glyph glyph-name="Idieresis" unicode="&#xcf;" horiz-adv-x="224" 
d="M339 868q0 -17 -12 -29t-29 -12t-29 12t-12 29t12 29t29 12t29 -12t12 -29zM169 868q0 -17 -12 -29t-29 -12t-29 12t-12 29t12 29t29 12t29 -12t12 -29zM24 0v2q22 35 42 130l84 469q13 77 -6 129v2h101v-2q-28 -45 -42 -130l-84 -469q-14 -79 6 -129v-2h-101z" />
    <glyph glyph-name="Eth" unicode="&#xd0;" horiz-adv-x="593" 
d="M36 376h83l41 225q13 77 -6 129v2q55 0 88.5 1.5t84.5 1.5q259 0 259 -291q0 -188 -108.5 -316t-280.5 -128h-163v2q22 35 42 130l40 226h-84zM234 716l-62 -340h168l-4 -18h-167l-61 -341l86 2q82 2 147 40.5t103.5 101.5t58 137.5t19.5 155.5q0 262 -211 262h-77z" />
    <glyph glyph-name="Ntilde" unicode="&#xd1;" horiz-adv-x="597" 
d="M180 647l-87 -483q-11 -52 -9 -84t23 -78v-2h-101v2q32 45 43 75t22 87l73 404q13 56 10 90.5t-31 71.5v2h80l267 -630l84 466q11 52 9 84t-23 78v2h101v-2q-32 -45 -44 -76t-21 -86l-102 -568l-18 -3zM352 896q27 0 67 -25.5t65 -25.5q26 0 41.5 15.5t31.5 51.5l7 -1
q-30 -109 -107 -109q-29 0 -69 25.5t-64 25.5q-48 0 -76 -67l-8 1q7 24 17.5 45.5t36 42.5t58.5 21z" />
    <glyph glyph-name="Ograve" unicode="&#xd2;" horiz-adv-x="662" 
d="M655 437q0 -119 -49 -223t-132.5 -166.5t-179.5 -62.5q-106 0 -173.5 87.5t-67.5 222.5q0 119 49 223t132.5 166.5t179.5 62.5q106 0 173.5 -87.5t67.5 -222.5zM117 276q0 -122 47 -196.5t137 -74.5q88 0 155.5 65t101 166.5t33.5 219.5q0 122 -47 196.5t-137 74.5
q-88 0 -155.5 -65t-101 -166.5t-33.5 -219.5zM517 782l-228 121l41 56l192 -170z" />
    <glyph glyph-name="Oacute" unicode="&#xd3;" horiz-adv-x="662" 
d="M655 437q0 -119 -49 -223t-132.5 -166.5t-179.5 -62.5q-106 0 -173.5 87.5t-67.5 222.5q0 119 49 223t132.5 166.5t179.5 62.5q106 0 173.5 -87.5t67.5 -222.5zM117 276q0 -122 47 -196.5t137 -74.5q88 0 155.5 65t101 166.5t33.5 219.5q0 122 -47 196.5t-137 74.5
q-88 0 -155.5 -65t-101 -166.5t-33.5 -219.5zM551 959l31 -57l-251 -120l-4 7z" />
    <glyph glyph-name="Ocircumflex" unicode="&#xd4;" horiz-adv-x="662" 
d="M655 437q0 -119 -49 -223t-132.5 -166.5t-179.5 -62.5q-106 0 -173.5 87.5t-67.5 222.5q0 119 49 223t132.5 166.5t179.5 62.5q106 0 173.5 -87.5t67.5 -222.5zM117 276q0 -122 47 -196.5t137 -74.5q88 0 155.5 65t101 166.5t33.5 219.5q0 122 -47 196.5t-137 74.5
q-88 0 -155.5 -65t-101 -166.5t-33.5 -219.5zM446 875l-166 -93l-4 7l177 156h4l110 -156l-7 -7z" />
    <glyph glyph-name="Otilde" unicode="&#xd5;" horiz-adv-x="662" 
d="M655 437q0 -119 -49 -223t-132.5 -166.5t-179.5 -62.5q-106 0 -173.5 87.5t-67.5 222.5q0 119 49 223t132.5 166.5t179.5 62.5q106 0 173.5 -87.5t67.5 -222.5zM117 276q0 -122 47 -196.5t137 -74.5q88 0 155.5 65t101 166.5t33.5 219.5q0 122 -47 196.5t-137 74.5
q-88 0 -155.5 -65t-101 -166.5t-33.5 -219.5zM381 896q27 0 67 -25.5t65 -25.5q26 0 41.5 15.5t31.5 51.5l7 -1q-30 -109 -107 -109q-29 0 -69 25.5t-64 25.5q-48 0 -76 -67l-8 1q7 24 17.5 45.5t36 42.5t58.5 21z" />
    <glyph glyph-name="Odieresis" unicode="&#xd6;" horiz-adv-x="662" 
d="M655 437q0 -119 -49 -223t-132.5 -166.5t-179.5 -62.5q-106 0 -173.5 87.5t-67.5 222.5q0 119 49 223t132.5 166.5t179.5 62.5q106 0 173.5 -87.5t67.5 -222.5zM117 276q0 -122 47 -196.5t137 -74.5q88 0 155.5 65t101 166.5t33.5 219.5q0 122 -47 196.5t-137 74.5
q-88 0 -155.5 -65t-101 -166.5t-33.5 -219.5zM570 868q0 -17 -12 -29t-29 -12t-29 12t-12 29t12 29t29 12t29 -12t12 -29zM378 868q0 -17 -12 -29t-29 -12t-29 12t-12 29t12 29t29 12t29 -12t12 -29z" />
    <glyph glyph-name="multiply" unicode="&#xd7;" horiz-adv-x="472" 
d="M246 292l-170 -170l-15 15l170 170l-170 170l15 15l170 -170l170 170l15 -15l-170 -170l170 -170l-15 -15z" />
    <glyph glyph-name="Oslash" unicode="&#xd8;" horiz-adv-x="662" 
d="M117 276q0 -106 35 -175l391 553q-48 73 -136 73t-155.5 -65t-101 -166.5t-33.5 -219.5zM301 5q88 0 155.5 65t101 166.5t33.5 219.5q0 107 -35 176l-392 -553q49 -74 137 -74zM294 -15q-87 0 -152 63l-54 -77h-28l66 94q-73 87 -73 230q0 119 49 223t132.5 166.5
t179.5 62.5q87 0 151 -62l55 77h28l-67 -94q74 -88 74 -231q0 -119 -49 -223t-132.5 -166.5t-179.5 -62.5z" />
    <glyph glyph-name="Ugrave" unicode="&#xd9;" horiz-adv-x="542" 
d="M252 -15q-92 0 -149 61t-35 180l68 375q13 77 -6 129v2h101v-2q-28 -45 -42 -130l-67 -371q-20 -111 21 -166.5t116 -55.5q78 0 121.5 55t57.5 135l70 371q11 52 9 84t-23 78v2h102v-2q-32 -45 -43 -75t-22 -87l-70 -371q-8 -41 -22 -76t-38 -67t-62 -50.5t-87 -18.5z
M465 782l-228 121l41 56l192 -170z" />
    <glyph glyph-name="Uacute" unicode="&#xda;" horiz-adv-x="542" 
d="M252 -15q-92 0 -149 61t-35 180l68 375q13 77 -6 129v2h101v-2q-28 -45 -42 -130l-67 -371q-20 -111 21 -166.5t116 -55.5q78 0 121.5 55t57.5 135l70 371q11 52 9 84t-23 78v2h102v-2q-32 -45 -43 -75t-22 -87l-70 -371q-8 -41 -22 -76t-38 -67t-62 -50.5t-87 -18.5z
M499 959l31 -57l-251 -120l-4 7z" />
    <glyph glyph-name="Ucircumflex" unicode="&#xdb;" horiz-adv-x="542" 
d="M252 -15q-92 0 -149 61t-35 180l68 375q13 77 -6 129v2h101v-2q-28 -45 -42 -130l-67 -371q-20 -111 21 -166.5t116 -55.5q78 0 121.5 55t57.5 135l70 371q11 52 9 84t-23 78v2h102v-2q-32 -45 -43 -75t-22 -87l-70 -371q-8 -41 -22 -76t-38 -67t-62 -50.5t-87 -18.5z
M394 875l-166 -93l-4 7l177 156h4l110 -156l-7 -7z" />
    <glyph glyph-name="Udieresis" unicode="&#xdc;" horiz-adv-x="542" 
d="M252 -15q-92 0 -149 61t-35 180l68 375q13 77 -6 129v2h101v-2q-28 -45 -42 -130l-67 -371q-20 -111 21 -166.5t116 -55.5q78 0 121.5 55t57.5 135l70 371q11 52 9 84t-23 78v2h102v-2q-32 -45 -43 -75t-22 -87l-70 -371q-8 -41 -22 -76t-38 -67t-62 -50.5t-87 -18.5z
M517 868q0 -17 -12 -29t-29 -12t-29 12t-12 29t12 29t29 12t29 -12t12 -29zM325 868q0 -17 -12 -29t-29 -12t-29 12t-12 29t12 29t29 12t29 -12t12 -29z" />
    <glyph glyph-name="Yacute" unicode="&#xdd;" horiz-adv-x="466" 
d="M128 2q26 38 37.5 67.5t21.5 80.5l34 188l-66 266q-13 52 -25.5 80t-32.5 46v2h123v-2q-30 -35 -10 -119l58 -249l138 228q54 88 15 140v2h114v-2q-62 -68 -96 -124l-166 -273l-32 -183q-10 -51 -8 -80.5t16 -67.5l-1 -2h-120v2zM456 959l31 -57l-251 -120l-4 7z" />
    <glyph glyph-name="Thorn" unicode="&#xde;" horiz-adv-x="496" 
d="M24 2q22 35 42 130l84 469q13 77 -6 129v2h101v-2q-28 -45 -42 -130l-7 -38h104q196 0 196 -155q0 -102 -74.5 -159.5t-193.5 -57.5h-98l-11 -59q-14 -79 6 -129v-2h-101v2zM285 542q-72 0 -93 -3l-59 -329h103q106 0 152 57t46 147q0 66 -31 97t-118 31z" />
    <glyph glyph-name="germandbls" unicode="&#xdf;" horiz-adv-x="476" 
d="M3 -165l133 622h-55l4 18h55l14 64q26 121 83.5 185t134.5 64q58 0 90 -33t32 -86q0 -41 -20.5 -74.5t-50 -56.5t-59.5 -44t-50.5 -47t-20.5 -56q0 -25 15 -50t36.5 -47l43.5 -46.5t37 -57.5t15 -71q0 -64 -38.5 -99t-99.5 -35q-70 0 -114 38l-3 113l8 2
q46 -135 125 -135q35 0 58.5 26t23.5 67q0 29 -15 56.5t-36 49.5l-42.5 45t-36.5 53t-15 64q0 39 20 69.5t48 51.5l56 43.5t48 56.5t20 78q0 45 -19.5 76t-63.5 31q-49 0 -90.5 -45.5t-60.5 -141.5l-160 -748h-50z" />
    <glyph glyph-name="agrave" unicode="&#xe0;" horiz-adv-x="437" 
d="M130 29q29 0 58.5 24t57.5 69.5t45.5 81l41.5 88.5l37 140q-22 35 -72 35q-59 0 -112 -54.5t-82 -133t-29 -153.5q0 -97 55 -97zM312 202q-43 -98 -96 -157.5t-112 -59.5q-39 0 -61.5 32t-22.5 94q0 93 43 181t114.5 143t149.5 55q46 0 79 -18l24 18h4l-100 -382
q-12 -39 -8.5 -62t33.5 -35v-1l-105 -19zM371 533l-146 178l55 38l99 -210z" />
    <glyph glyph-name="aacute" unicode="&#xe1;" horiz-adv-x="437" 
d="M130 29q29 0 58.5 24t57.5 69.5t45.5 81l41.5 88.5l37 140q-22 35 -72 35q-59 0 -112 -54.5t-82 -133t-29 -153.5q0 -97 55 -97zM312 202q-43 -98 -96 -157.5t-112 -59.5q-39 0 -61.5 32t-22.5 94q0 93 43 181t114.5 143t149.5 55q46 0 79 -18l24 18h4l-100 -382
q-12 -39 -8.5 -62t33.5 -35v-1l-105 -19zM388 749l42 -44l-195 -172l-5 6z" />
    <glyph glyph-name="acircumflex" unicode="&#xe2;" horiz-adv-x="437" 
d="M130 29q29 0 58.5 24t57.5 69.5t45.5 81l41.5 88.5l37 140q-22 35 -72 35q-59 0 -112 -54.5t-82 -133t-29 -153.5q0 -97 55 -97zM312 202q-43 -98 -96 -157.5t-112 -59.5q-39 0 -61.5 32t-22.5 94q0 93 43 181t114.5 143t149.5 55q46 0 79 -18l24 18h4l-100 -382
q-12 -39 -8.5 -62t33.5 -35v-1l-105 -19zM321 646l-144 -106l-5 6l157 173h3l88 -173l-8 -6z" />
    <glyph glyph-name="atilde" unicode="&#xe3;" horiz-adv-x="437" 
d="M130 29q29 0 58.5 24t57.5 69.5t45.5 81l41.5 88.5l37 140q-22 35 -72 35q-59 0 -112 -54.5t-82 -133t-29 -153.5q0 -97 55 -97zM312 202q-43 -98 -96 -157.5t-112 -59.5q-39 0 -61.5 32t-22.5 94q0 93 43 181t114.5 143t149.5 55q46 0 79 -18l24 18h4l-100 -382
q-12 -39 -8.5 -62t33.5 -35v-1l-105 -19zM271 678q24 0 60.5 -16.5t58.5 -16.5q39 0 63 47l7 -1q-9 -36 -31 -65.5t-64 -29.5q-24 0 -60.5 16.5t-58.5 16.5q-39 0 -63 -47l-7 1q9 36 31 65.5t64 29.5z" />
    <glyph glyph-name="adieresis" unicode="&#xe4;" horiz-adv-x="437" 
d="M130 29q29 0 58.5 24t57.5 69.5t45.5 81l41.5 88.5l37 140q-22 35 -72 35q-59 0 -112 -54.5t-82 -133t-29 -153.5q0 -97 55 -97zM312 202q-43 -98 -96 -157.5t-112 -59.5q-39 0 -61.5 32t-22.5 94q0 93 43 181t114.5 143t149.5 55q46 0 79 -18l24 18h4l-100 -382
q-12 -39 -8.5 -62t33.5 -35v-1l-105 -19zM276 659q0 -17 -12 -29t-29 -12t-29 12t-12 29t12 29t29 12t29 -12t12 -29zM448 659q0 -17 -12 -29t-29 -12t-29 12t-12 29t12 29t29 12t29 -12t12 -29z" />
    <glyph glyph-name="aring" unicode="&#xe5;" horiz-adv-x="437" 
d="M130 29q29 0 58.5 24t57.5 69.5t45.5 81l41.5 88.5l37 140q-22 35 -72 35q-59 0 -112 -54.5t-82 -133t-29 -153.5q0 -97 55 -97zM312 202q-43 -98 -96 -157.5t-112 -59.5q-39 0 -61.5 32t-22.5 94q0 93 43 181t114.5 143t149.5 55q46 0 79 -18l24 18h4l-100 -382
q-12 -39 -8.5 -62t33.5 -35v-1l-105 -19zM224 631q0 37 23.5 61t60.5 24t60.5 -24t23.5 -61t-23.5 -60t-60.5 -23t-60.5 23t-23.5 60zM252 631q0 -31 14.5 -48.5t41.5 -17.5t41.5 17.5t14.5 48.5q0 68 -56 68t-56 -68z" />
    <glyph glyph-name="ae" unicode="&#xe6;" horiz-adv-x="640" 
d="M549 472q-50 0 -98 -44t-74 -116q225 22 225 112q0 48 -53 48zM126 29q33 0 71 42t66 93.5t54 113.5q23 65 65 115q-22 74 -88 74q-54 0 -105.5 -54.5t-82.5 -133.5t-31 -153q0 -97 51 -97zM586 105q-25 -55 -67.5 -87.5t-92.5 -32.5q-60 0 -95 46.5t-35 125.5q0 11 2 35
q-43 -92 -94.5 -149.5t-102.5 -57.5q-37 0 -59 32t-22 94q0 92 43.5 180.5t113.5 143.5t142 55q67 0 105 -55q63 55 138 55q39 0 63.5 -16.5t24.5 -50.5q0 -54 -66 -89.5t-211 -33.5q-19 -59 -19 -124q0 -151 97 -151q68 0 125 85z" />
    <glyph glyph-name="ccedilla" unicode="&#xe7;" horiz-adv-x="374" 
d="M6 -247q56 13 89.5 39.5t33.5 60.5q0 14 -6 24t-12.5 15.5t-19 9.5t-18 5t-16.5 2v2l63 80q-7 2 -19 8q-81 42 -81 172q0 124 75 221.5t176 97.5q51 0 87 -26l8 -98l-10 -2q-22 50 -46 79t-58 29q-60 0 -117 -77t-57 -202q0 -165 110 -165q78 0 131 108l10 -4
q-22 -68 -64 -107.5t-102 -39.5q-14 0 -20 1l-36 -44q65 -18 65 -73q0 -50 -47 -82.5t-119 -41.5v8z" />
    <glyph glyph-name="egrave" unicode="&#xe8;" horiz-adv-x="364" 
d="M276 472q-52 0 -100 -44t-75 -116q225 22 225 112q0 48 -50 48zM310 105q-25 -55 -67.5 -87.5t-92.5 -32.5q-60 0 -95 46.5t-35 125.5q0 126 80.5 229.5t185.5 103.5q39 0 63.5 -16.5t24.5 -50.5q0 -54 -66 -89.5t-211 -33.5q-19 -59 -19 -124q0 -151 97 -151
q68 0 125 85zM298 533l-146 178l55 38l99 -210z" />
    <glyph glyph-name="eacute" unicode="&#xe9;" horiz-adv-x="364" 
d="M276 472q-52 0 -100 -44t-75 -116q225 22 225 112q0 48 -50 48zM310 105q-25 -55 -67.5 -87.5t-92.5 -32.5q-60 0 -95 46.5t-35 125.5q0 126 80.5 229.5t185.5 103.5q39 0 63.5 -16.5t24.5 -50.5q0 -54 -66 -89.5t-211 -33.5q-19 -59 -19 -124q0 -151 97 -151
q68 0 125 85zM376 749l42 -44l-195 -172l-5 6z" />
    <glyph glyph-name="ecircumflex" unicode="&#xea;" horiz-adv-x="364" 
d="M276 472q-52 0 -100 -44t-75 -116q225 22 225 112q0 48 -50 48zM310 105q-25 -55 -67.5 -87.5t-92.5 -32.5q-60 0 -95 46.5t-35 125.5q0 126 80.5 229.5t185.5 103.5q39 0 63.5 -16.5t24.5 -50.5q0 -54 -66 -89.5t-211 -33.5q-19 -59 -19 -124q0 -151 97 -151
q68 0 125 85zM286 646l-144 -106l-5 6l157 173h3l88 -173l-8 -6z" />
    <glyph glyph-name="edieresis" unicode="&#xeb;" horiz-adv-x="364" 
d="M276 472q-52 0 -100 -44t-75 -116q225 22 225 112q0 48 -50 48zM310 105q-25 -55 -67.5 -87.5t-92.5 -32.5q-60 0 -95 46.5t-35 125.5q0 126 80.5 229.5t185.5 103.5q39 0 63.5 -16.5t24.5 -50.5q0 -54 -66 -89.5t-211 -33.5q-19 -59 -19 -124q0 -151 97 -151
q68 0 125 85zM224 659q0 -17 -12 -29t-29 -12t-29 12t-12 29t12 29t29 12t29 -12t12 -29zM396 659q0 -17 -12 -29t-29 -12t-29 12t-12 29t12 29t29 12t29 -12t12 -29z" />
    <glyph glyph-name="igrave" unicode="&#xec;" 
d="M7 2q18 30 27.5 62.5t23.5 98.5l35 178q16 72 -18 119v2l104 33l-70 -329q-15 -71 -17.5 -102t5.5 -62v-2h-90v2zM184 533l-146 178l55 38l99 -210z" />
    <glyph glyph-name="iacute" unicode="&#xed;" 
d="M7 2q18 30 27.5 62.5t23.5 98.5l35 178q16 72 -18 119v2l104 33l-70 -329q-15 -71 -17.5 -102t5.5 -62v-2h-90v2zM252 749l42 -44l-195 -172l-5 6z" />
    <glyph glyph-name="icircumflex" unicode="&#xee;" 
d="M7 2q18 30 27.5 62.5t23.5 98.5l35 178q16 72 -18 119v2l104 33l-70 -329q-15 -71 -17.5 -102t5.5 -62v-2h-90v2zM175 646l-144 -106l-5 6l157 173h3l88 -173l-8 -6z" />
    <glyph glyph-name="idieresis" unicode="&#xef;" 
d="M141 659q0 -17 -12 -29t-29 -12t-29 12t-12 29t12 29t29 12t29 -12t12 -29zM271 659q0 -17 -12 -29t-29 -12t-29 12t-12 29t12 29t29 12t29 -12t12 -29zM7 2q18 30 27.5 62.5t23.5 98.5l35 178q16 72 -18 119v2l104 33l-70 -329q-15 -71 -17.5 -102t5.5 -62v-2h-90v2z
" />
    <glyph glyph-name="eth" unicode="&#xf0;" horiz-adv-x="407" 
d="M156 -15q-61 0 -98.5 47t-37.5 129q0 125 71.5 227t165.5 102q38 0 65 -11q-14 95 -60 166l-133 -62l-6 16l130 60q-51 72 -122 110l5 9q86 -39 144 -106l111 52l6 -16l-105 -49q98 -123 98 -310q0 -159 -70 -261.5t-164 -102.5zM78 151q0 -148 82 -148q69 0 120.5 89.5
t51.5 225.5q0 77 -19 115.5t-63 38.5q-69 0 -120.5 -91t-51.5 -230z" />
    <glyph glyph-name="ntilde" unicode="&#xf1;" horiz-adv-x="466" 
d="M371 358q9 40 -0.5 66.5t-38.5 26.5q-43 0 -99.5 -69.5t-121.5 -214.5l-10 -44q-16 -76 -3 -121v-2h-88v2q5 7 8.5 13.5t7.5 15.5l6.5 14.5t5.5 17t4.5 16.5t5 19.5t4.5 19.5l4.5 22.5l4.5 22.5l38 178q17 72 -18 119v2l100 33l-58 -262q50 115 113 186t122 71
q42 0 58.5 -36t2.5 -99l-54 -240q-14 -56 -6.5 -79.5t46.5 -27.5v-2l-115 -15zM250 678q24 0 60.5 -16.5t58.5 -16.5q39 0 63 47l7 -1q-9 -36 -31 -65.5t-64 -29.5q-24 0 -60.5 16.5t-58.5 16.5q-39 0 -63 -47l-7 1q9 36 31 65.5t64 29.5z" />
    <glyph glyph-name="ograve" unicode="&#xf2;" horiz-adv-x="410" 
d="M390 316q0 -81 -32.5 -158t-87.5 -125t-114 -48q-61 0 -98.5 46t-37.5 128q0 81 32.5 158t87.5 125t114 48q61 0 98.5 -46t37.5 -128zM78 151q0 -148 82 -148q69 0 120.5 91t51.5 230q0 148 -82 148q-69 0 -120.5 -91t-51.5 -230zM290 533l-146 178l55 38l99 -210z" />
    <glyph glyph-name="oacute" unicode="&#xf3;" horiz-adv-x="410" 
d="M390 316q0 -81 -32.5 -158t-87.5 -125t-114 -48q-61 0 -98.5 46t-37.5 128q0 81 32.5 158t87.5 125t114 48q61 0 98.5 -46t37.5 -128zM78 151q0 -148 82 -148q69 0 120.5 91t51.5 230q0 148 -82 148q-69 0 -120.5 -91t-51.5 -230zM358 749l42 -44l-195 -172l-5 6z" />
    <glyph glyph-name="ocircumflex" unicode="&#xf4;" horiz-adv-x="410" 
d="M390 316q0 -81 -32.5 -158t-87.5 -125t-114 -48q-61 0 -98.5 46t-37.5 128q0 81 32.5 158t87.5 125t114 48q61 0 98.5 -46t37.5 -128zM78 151q0 -148 82 -148q69 0 120.5 91t51.5 230q0 148 -82 148q-69 0 -120.5 -91t-51.5 -230zM281 646l-144 -106l-5 6l157 173h3
l88 -173l-8 -6z" />
    <glyph glyph-name="otilde" unicode="&#xf5;" horiz-adv-x="410" 
d="M390 316q0 -81 -32.5 -158t-87.5 -125t-114 -48q-61 0 -98.5 46t-37.5 128q0 81 32.5 158t87.5 125t114 48q61 0 98.5 -46t37.5 -128zM78 151q0 -148 82 -148q69 0 120.5 91t51.5 230q0 148 -82 148q-69 0 -120.5 -91t-51.5 -230zM233 678q24 0 60.5 -16.5t58.5 -16.5
q39 0 63 47l7 -1q-9 -36 -31 -65.5t-64 -29.5q-24 0 -60.5 16.5t-58.5 16.5q-39 0 -63 -47l-7 1q9 36 31 65.5t64 29.5z" />
    <glyph glyph-name="odieresis" unicode="&#xf6;" horiz-adv-x="410" 
d="M390 316q0 -81 -32.5 -158t-87.5 -125t-114 -48q-61 0 -98.5 46t-37.5 128q0 81 32.5 158t87.5 125t114 48q61 0 98.5 -46t37.5 -128zM78 151q0 -148 82 -148q69 0 120.5 91t51.5 230q0 148 -82 148q-69 0 -120.5 -91t-51.5 -230zM226 659q0 -17 -12 -29t-29 -12t-29 12
t-12 29t12 29t29 12t29 -12t12 -29zM398 659q0 -17 -12 -29t-29 -12t-29 12t-12 29t12 29t29 12t29 -12t12 -29z" />
    <glyph glyph-name="divide" unicode="&#xf7;" horiz-adv-x="532" 
d="M65 298v20h442v-20h-442zM269 94q-19 0 -33 13.5t-14 33.5t14 33.5t33 13.5q20 0 33.5 -13.5t13.5 -33.5t-13.5 -33.5t-33.5 -13.5zM269 428q-19 0 -33 13.5t-14 33.5t14 33.5t33 13.5q20 0 33.5 -13.5t13.5 -33.5t-13.5 -33.5t-33.5 -13.5z" />
    <glyph glyph-name="oslash" unicode="&#xf8;" horiz-adv-x="410" 
d="M390 316q0 -81 -32.5 -158t-87.5 -125t-114 -48q-53 0 -88 35l-60 -87h-27l72 105q-33 46 -33 121q0 81 32.5 158t87.5 125t114 48q52 0 87 -35l61 89h27l-73 -106q34 -50 34 -122zM332 324q0 40 -6 70l-235 -340q19 -51 69 -51q69 0 120.5 91t51.5 230zM78 151
q0 -44 5 -69l235 340q-20 50 -68 50q-69 0 -120.5 -91t-51.5 -230z" />
    <glyph glyph-name="ugrave" unicode="&#xf9;" horiz-adv-x="444" 
d="M317 204q-43 -96 -98.5 -157.5t-111.5 -61.5q-44 0 -66.5 36t-4.5 106l66 253q18 74 -32 93v2h103l-89 -349q-13 -48 -0.5 -72.5t42.5 -24.5q53 0 112.5 79t108.5 210l16 61q21 74 -31 94v2h105l-96 -367q-12 -39 -8.5 -62t33.5 -35v-1l-106 -19zM299 533l-146 178l55 38
l99 -210z" />
    <glyph glyph-name="uacute" unicode="&#xfa;" horiz-adv-x="444" 
d="M317 204q-43 -96 -98.5 -157.5t-111.5 -61.5q-44 0 -66.5 36t-4.5 106l66 253q18 74 -32 93v2h103l-89 -349q-13 -48 -0.5 -72.5t42.5 -24.5q53 0 112.5 79t108.5 210l16 61q21 74 -31 94v2h105l-96 -367q-12 -39 -8.5 -62t33.5 -35v-1l-106 -19zM387 749l42 -44
l-195 -172l-5 6z" />
    <glyph glyph-name="ucircumflex" unicode="&#xfb;" horiz-adv-x="444" 
d="M317 204q-43 -96 -98.5 -157.5t-111.5 -61.5q-44 0 -66.5 36t-4.5 106l66 253q18 74 -32 93v2h103l-89 -349q-13 -48 -0.5 -72.5t42.5 -24.5q53 0 112.5 79t108.5 210l16 61q21 74 -31 94v2h105l-96 -367q-12 -39 -8.5 -62t33.5 -35v-1l-106 -19zM300 646l-144 -106l-5 6
l157 173h3l88 -173l-8 -6z" />
    <glyph glyph-name="udieresis" unicode="&#xfc;" horiz-adv-x="444" 
d="M317 204q-43 -96 -98.5 -157.5t-111.5 -61.5q-44 0 -66.5 36t-4.5 106l66 253q18 74 -32 93v2h103l-89 -349q-13 -48 -0.5 -72.5t42.5 -24.5q53 0 112.5 79t108.5 210l16 61q21 74 -31 94v2h105l-96 -367q-12 -39 -8.5 -62t33.5 -35v-1l-106 -19zM245 659q0 -17 -12 -29
t-29 -12t-29 12t-12 29t12 29t29 12t29 -12t12 -29zM417 659q0 -17 -12 -29t-29 -12t-29 12t-12 29t12 29t29 12t29 -12t12 -29z" />
    <glyph glyph-name="yacute" unicode="&#xfd;" horiz-adv-x="362" 
d="M-89 -157q59 0 104.5 29.5t100.5 127.5l-30 353q-6 64 -12.5 82.5t-30.5 37.5v2h85l32 -394l121 233q25 47 34 73t4 48t-29 38v2h102v-2l-254 -473q-36 -71 -69.5 -116.5t-64.5 -67.5t-53.5 -29.5t-53.5 -11.5zM359 749l42 -44l-195 -172l-5 6z" />
    <glyph glyph-name="thorn" unicode="&#xfe;" horiz-adv-x="447" 
d="M183 3q57 0 101 54t64.5 127.5t20.5 148.5q0 123 -70 123q-96 0 -183 -231l-12 -56q-16 -90 8.5 -128t70.5 -38zM44 -225h-88v2q5 7 8.5 13.5t7.5 15.5l6.5 14.5t5.5 17t4.5 16.5t5 19.5t4.5 19.5l4.5 22.5l4.5 22.5l145 687q10 48 6 72.5t-24 46.5v2l100 33l-100 -471
q77 182 187 182q106 0 106 -154q0 -140 -71.5 -245.5t-176.5 -105.5q-71 0 -103 54l-21 -99q-25 -117 -11 -163v-2z" />
    <glyph glyph-name="ydieresis" unicode="&#xff;" horiz-adv-x="362" 
d="M-89 -157q59 0 104.5 29.5t100.5 127.5l-30 353q-6 64 -12.5 82.5t-30.5 37.5v2h85l32 -394l121 233q25 47 34 73t4 48t-29 38v2h102v-2l-254 -473q-36 -71 -69.5 -116.5t-64.5 -67.5t-53.5 -29.5t-53.5 -11.5zM188 659q0 -17 -12 -29t-29 -12t-29 12t-12 29t12 29t29 12
t29 -12t12 -29zM360 659q0 -17 -12 -29t-29 -12t-29 12t-12 29t12 29t29 12t29 -12t12 -29z" />
    <glyph glyph-name="Amacron" unicode="&#x100;" horiz-adv-x="465" 
d="M299 646l-160 -350h191zM68 0h-122v2q34 27 53 54.5t48 88.5l276 594h19l56 -617q3 -49 12 -71.5t30 -48.5v-2h-129v2q41 37 34 125l-13 149h-202l-57 -124q-20 -46 -20.5 -88t15.5 -62v-2zM212 873h254l-7 -35h-254z" />
    <glyph glyph-name="amacron" unicode="&#x101;" horiz-adv-x="437" 
d="M130 29q29 0 58.5 24t57.5 69.5t45.5 81l41.5 88.5l37 140q-22 35 -72 35q-59 0 -112 -54.5t-82 -133t-29 -153.5q0 -97 55 -97zM312 202q-43 -98 -96 -157.5t-112 -59.5q-39 0 -61.5 32t-22.5 94q0 93 43 181t114.5 143t149.5 55q46 0 79 -18l24 18h4l-100 -382
q-12 -39 -8.5 -62t33.5 -35v-1l-105 -19zM181 645h241l-8 -35h-240z" />
    <glyph glyph-name="Abreve" unicode="&#x102;" horiz-adv-x="465" 
d="M299 646l-160 -350h191zM68 0h-122v2q34 27 53 54.5t48 88.5l276 594h19l56 -617q3 -49 12 -71.5t30 -48.5v-2h-129v2q41 37 34 125l-13 149h-202l-57 -124q-20 -46 -20.5 -88t15.5 -62v-2zM340 846q95 0 128 81h7q-8 -49 -42 -88.5t-97 -39.5q-34 0 -58 13t-36 33
t-16.5 41t-3.5 41h7q18 -81 111 -81z" />
    <glyph glyph-name="abreve" unicode="&#x103;" horiz-adv-x="437" 
d="M130 29q29 0 58.5 24t57.5 69.5t45.5 81l41.5 88.5l37 140q-22 35 -72 35q-59 0 -112 -54.5t-82 -133t-29 -153.5q0 -97 55 -97zM312 202q-43 -98 -96 -157.5t-112 -59.5q-39 0 -61.5 32t-22.5 94q0 93 43 181t114.5 143t149.5 55q46 0 79 -18l24 18h4l-100 -382
q-12 -39 -8.5 -62t33.5 -35v-1l-105 -19zM314 614q84 0 109 79h8q-5 -46 -36 -84t-88 -38q-56 0 -80 38t-19 84h8q11 -79 98 -79z" />
    <glyph glyph-name="Aogonek" unicode="&#x104;" horiz-adv-x="465" 
d="M248 -245q-34 0 -53.5 19t-19.5 54q0 92 118 162q42 24 51 78q5 26 1 59l-13 149h-202l-57 -124q-20 -46 -20.5 -88t15.5 -62v-2h-122v2q34 27 53 54.5t48 88.5l276 594h19l56 -617q3 -49 12 -71.5t30 -48.5v-2h-105q-55 -30 -83.5 -70.5t-28.5 -81.5q0 -54 50 -54
q54 0 89 58l6 -4q-50 -93 -120 -93zM300 647l-161 -351h191z" />
    <glyph glyph-name="aogonek" unicode="&#x105;" horiz-adv-x="437" 
d="M198 -245q-34 0 -53.5 19t-19.5 54q0 52 36.5 97.5t93.5 70.5l57 206q-43 -98 -96 -157.5t-112 -59.5q-39 0 -61.5 32t-22.5 94q0 93 43 181t114.5 143t149.5 55q46 0 79 -18l24 18h4l-100 -382q-12 -39 -8.5 -62t33.5 -35v-1q-45 -5 -74 -15q-48 -18 -80 -61t-32 -89
q0 -51 50 -51q52 0 89 58l6 -4q-50 -93 -120 -93zM130 29q29 0 58.5 24t57.5 69.5t45.5 81l41.5 88.5l37 140q-22 35 -72 35q-59 0 -112 -54.5t-82 -133t-29 -153.5q0 -97 55 -97z" />
    <glyph glyph-name="Cacute" unicode="&#x106;" horiz-adv-x="598" 
d="M525 53q-29 -24 -87.5 -46t-129.5 -22q-126 0 -190.5 84.5t-64.5 230.5q0 117 46 219t130.5 165t187.5 63q56 0 106.5 -18.5t72.5 -34.5l11 -139l-8 -2q-37 92 -85 133t-111 41q-88 0 -155 -66t-99 -165.5t-32 -214.5q0 -121 50.5 -198.5t142.5 -77.5q76 0 131 48.5
t114 147.5l10 -2zM526 959l31 -57l-251 -120l-4 7z" />
    <glyph glyph-name="cacute" unicode="&#x107;" horiz-adv-x="374" 
d="M329 132q-22 -68 -64 -107.5t-102 -39.5q-68 0 -105.5 51.5t-37.5 134.5q0 124 75 221.5t176 97.5q51 0 87 -26l8 -98l-10 -2q-22 50 -46 79t-58 29q-60 0 -117 -77t-57 -202q0 -165 110 -165q78 0 131 108zM353 749l42 -44l-195 -172l-5 6z" />
    <glyph glyph-name="Ccircumflex" unicode="&#x108;" horiz-adv-x="598" 
d="M525 53q-29 -24 -87.5 -46t-129.5 -22q-126 0 -190.5 84.5t-64.5 230.5q0 117 46 219t130.5 165t187.5 63q56 0 106.5 -18.5t72.5 -34.5l11 -139l-8 -2q-37 92 -85 133t-111 41q-88 0 -155 -66t-99 -165.5t-32 -214.5q0 -121 50.5 -198.5t142.5 -77.5q76 0 131 48.5
t114 147.5l10 -2zM441 875l-166 -93l-4 7l177 156h4l110 -156l-7 -7z" />
    <glyph glyph-name="ccircumflex" unicode="&#x109;" horiz-adv-x="374" 
d="M329 132q-22 -68 -64 -107.5t-102 -39.5q-68 0 -105.5 51.5t-37.5 134.5q0 124 75 221.5t176 97.5q51 0 87 -26l8 -98l-10 -2q-22 50 -46 79t-58 29q-60 0 -117 -77t-57 -202q0 -165 110 -165q78 0 131 108zM286 646l-144 -106l-5 6l157 173h3l88 -173l-8 -6z" />
    <glyph glyph-name="Cdotaccent" unicode="&#x10a;" horiz-adv-x="598" 
d="M525 53q-29 -24 -87.5 -46t-129.5 -22q-126 0 -190.5 84.5t-64.5 230.5q0 117 46 219t130.5 165t187.5 63q56 0 106.5 -18.5t72.5 -34.5l11 -139l-8 -2q-37 92 -85 133t-111 41q-88 0 -155 -66t-99 -165.5t-32 -214.5q0 -121 50.5 -198.5t142.5 -77.5q76 0 131 48.5
t114 147.5l10 -2zM454 868q0 -17 -12 -29t-29 -12t-29 12t-12 29t12 29t29 12t29 -12t12 -29z" />
    <glyph glyph-name="cdotaccent" unicode="&#x10b;" horiz-adv-x="374" 
d="M329 132q-22 -68 -64 -107.5t-102 -39.5q-68 0 -105.5 51.5t-37.5 134.5q0 124 75 221.5t176 97.5q51 0 87 -26l8 -98l-10 -2q-22 50 -46 79t-58 29q-60 0 -117 -77t-57 -202q0 -165 110 -165q78 0 131 108zM303 659q0 -17 -12 -29t-29 -12t-29 12t-12 29t12 29t29 12
t29 -12t12 -29z" />
    <glyph glyph-name="Ccaron" unicode="&#x10c;" horiz-adv-x="598" 
d="M525 53q-29 -24 -87.5 -46t-129.5 -22q-126 0 -190.5 84.5t-64.5 230.5q0 117 46 219t130.5 165t187.5 63q56 0 106.5 -18.5t72.5 -34.5l11 -139l-8 -2q-37 92 -85 133t-111 41q-88 0 -155 -66t-99 -165.5t-32 -214.5q0 -121 50.5 -198.5t142.5 -77.5q76 0 131 48.5
t114 147.5l10 -2zM401 782l-110 156l7 7l114 -93l166 93l4 -7l-177 -156h-4z" />
    <glyph glyph-name="ccaron" unicode="&#x10d;" horiz-adv-x="374" 
d="M329 132q-22 -68 -64 -107.5t-102 -39.5q-68 0 -105.5 51.5t-37.5 134.5q0 124 75 221.5t176 97.5q51 0 87 -26l8 -98l-10 -2q-22 50 -46 79t-58 29q-60 0 -117 -77t-57 -202q0 -165 110 -165q78 0 131 108zM245 540l-88 173l8 6l91 -106l144 106l5 -6l-157 -173h-3z" />
    <glyph glyph-name="Dcaron" unicode="&#x10e;" horiz-adv-x="583" 
d="M24 2q22 35 42 130l84 469q13 77 -6 129v2q55 0 88.5 1.5t84.5 1.5q259 0 259 -291q0 -188 -108.5 -316t-280.5 -128h-163v2zM224 716l-126 -699l86 2q82 2 147 40.5t103.5 101.5t58 137.5t19.5 155.5q0 262 -211 262h-77zM356 782l-110 156l7 7l114 -93l166 93l4 -7
l-177 -156h-4z" />
    <glyph glyph-name="dcaron" unicode="&#x10f;" horiz-adv-x="447" 
d="M135 29q92 0 203 255l26 122q-3 22 -27 41.5t-65 19.5q-51 0 -97 -54.5t-71.5 -133.5t-25.5 -155q0 -95 57 -95zM329 223q-104 -238 -220 -238q-89 0 -89 129q0 141 86 258.5t195 117.5q44 0 78 -14l32 149q10 48 6 72.5t-24 46.5v2l100 33l-144 -671q-12 -39 -8.5 -62
t33.5 -35v-1l-103 -19zM566 775h66l-127 -203l-6 2z" />
    <glyph glyph-name="Dcroat" unicode="&#x110;" horiz-adv-x="593" 
d="M36 376h83l41 225q13 77 -6 129v2q55 0 88.5 1.5t84.5 1.5q259 0 259 -291q0 -188 -108.5 -316t-280.5 -128h-163v2q22 35 42 130l40 226h-84zM234 716l-62 -340h168l-4 -18h-167l-61 -341l86 2q82 2 147 40.5t103.5 101.5t58 137.5t19.5 155.5q0 262 -211 262h-77z" />
    <glyph glyph-name="dcroat" unicode="&#x111;" horiz-adv-x="447" 
d="M329 223q-104 -238 -220 -238q-89 0 -89 129q0 141 86 258.5t195 117.5q44 0 78 -14l22 103h-154l4 18h154l6 28q10 48 6 72.5t-24 46.5v2l100 33l-39 -182h76l-4 -18h-76l-101 -471q-12 -39 -8.5 -62t33.5 -35v-1l-103 -19zM135 29q92 0 203 255l26 122q-3 22 -27 41.5
t-65 19.5q-51 0 -97 -54.5t-71.5 -133.5t-25.5 -155q0 -95 57 -95z" />
    <glyph glyph-name="Emacron" unicode="&#x112;" horiz-adv-x="496" 
d="M400 0h-376v2q22 35 42 130l84 469q13 77 -6 129v2h326l11 -145l-8 -2q-32 69 -56 96t-61 27l-132 4l-60 -334h97q9 0 18 4t15.5 9t15.5 16l14 17t15 20t13 19h8l-29 -185h-8q-12 30 -18 43t-18 25t-29 12h-98l-61 -340l162 5q14 0 26 2t24 7t20 8t20 13.5l17.5 15
t19.5 20t19 21.5l22 26.5t23 28.5l8 -3zM215 873h254l-7 -35h-254z" />
    <glyph glyph-name="emacron" unicode="&#x113;" horiz-adv-x="364" 
d="M276 472q-52 0 -100 -44t-75 -116q225 22 225 112q0 48 -50 48zM310 105q-25 -55 -67.5 -87.5t-92.5 -32.5q-60 0 -95 46.5t-35 125.5q0 126 80.5 229.5t185.5 103.5q39 0 63.5 -16.5t24.5 -50.5q0 -54 -66 -89.5t-211 -33.5q-19 -59 -19 -124q0 -151 97 -151
q68 0 125 85zM161 645h241l-8 -35h-240z" />
    <glyph glyph-name="Ebreve" unicode="&#x114;" horiz-adv-x="496" 
d="M400 0h-376v2q22 35 42 130l84 469q13 77 -6 129v2h326l11 -145l-8 -2q-32 69 -56 96t-61 27l-132 4l-60 -334h97q9 0 18 4t15.5 9t15.5 16l14 17t15 20t13 19h8l-29 -185h-8q-12 30 -18 43t-18 25t-29 12h-98l-61 -340l162 5q14 0 26 2t24 7t20 8t20 13.5l17.5 15
t19.5 20t19 21.5l22 26.5t23 28.5l8 -3zM332 846q95 0 128 81h7q-8 -49 -42 -88.5t-97 -39.5q-34 0 -58 13t-36 33t-16.5 41t-3.5 41h7q18 -81 111 -81z" />
    <glyph glyph-name="ebreve" unicode="&#x115;" horiz-adv-x="364" 
d="M276 472q-52 0 -100 -44t-75 -116q225 22 225 112q0 48 -50 48zM310 105q-25 -55 -67.5 -87.5t-92.5 -32.5q-60 0 -95 46.5t-35 125.5q0 126 80.5 229.5t185.5 103.5q39 0 63.5 -16.5t24.5 -50.5q0 -54 -66 -89.5t-211 -33.5q-19 -59 -19 -124q0 -151 97 -151
q68 0 125 85zM262 614q84 0 109 79h8q-5 -46 -36 -84t-88 -38q-56 0 -80 38t-19 84h8q11 -79 98 -79z" />
    <glyph glyph-name="Edotaccent" unicode="&#x116;" horiz-adv-x="496" 
d="M400 0h-376v2q22 35 42 130l84 469q13 77 -6 129v2h326l11 -145l-8 -2q-32 69 -56 96t-61 27l-132 4l-60 -334h97q9 0 18 4t15.5 9t15.5 16l14 17t15 20t13 19h8l-29 -185h-8q-12 30 -18 43t-18 25t-29 12h-98l-61 -340l162 5q14 0 26 2t24 7t20 8t20 13.5l17.5 15
t19.5 20t19 21.5l22 26.5t23 28.5l8 -3zM378 868q0 -17 -12 -29t-29 -12t-29 12t-12 29t12 29t29 12t29 -12t12 -29z" />
    <glyph glyph-name="edotaccent" unicode="&#x117;" horiz-adv-x="364" 
d="M276 472q-52 0 -100 -44t-75 -116q225 22 225 112q0 48 -50 48zM310 105q-25 -55 -67.5 -87.5t-92.5 -32.5q-60 0 -95 46.5t-35 125.5q0 126 80.5 229.5t185.5 103.5q39 0 63.5 -16.5t24.5 -50.5q0 -54 -66 -89.5t-211 -33.5q-19 -59 -19 -124q0 -151 97 -151
q68 0 125 85zM306 659q0 -17 -12 -29t-29 -12t-29 12t-12 29t12 29t29 12t29 -12t12 -29z" />
    <glyph glyph-name="Eogonek" unicode="&#x118;" horiz-adv-x="496" 
d="M400 0h-98q-57 -30 -84 -73q-28 -43 -28 -81q0 -52 50 -52q52 0 89 58l6 -4q-23 -42 -50.5 -67.5t-69.5 -25.5q-34 0 -53.5 19t-19.5 54q0 50 38 97t99 75h-255v2q22 35 42 130l84 469q13 77 -6 129v2h326l11 -145l-8 -2q-32 69 -56 96t-61 27l-132 4l-60 -334h97
q9 0 18 4t15.5 9t15.5 16l14 17t15 20t13 19h8l-29 -185h-8q-12 30 -18 43t-18 25t-29 12h-98l-61 -340l162 5q14 0 26 2t24 7t20 8t20 13.5l17.5 15t19.5 20t19 21.5l22 26.5t23 28.5l8 -3z" />
    <glyph glyph-name="eogonek" unicode="&#x119;" horiz-adv-x="364" 
d="M246 -152q-23 -42 -50.5 -67.5t-69.5 -25.5q-34 0 -53.5 19t-19.5 54q0 50 32.5 92t80.5 66q-2 -1 -9 -1h-7q-60 0 -95 46.5t-35 125.5q0 126 80.5 229.5t185.5 103.5q39 0 63.5 -16.5t24.5 -50.5q0 -54 -66 -89.5t-211 -33.5q-19 -59 -19 -124q0 -151 97 -151
q68 0 125 85l10 -5q-18 -41 -52 -73q-14 -14 -45.5 -33.5t-35.5 -21.5q-76 -57 -76 -131q0 -52 50 -52q52 0 89 58zM276 472q-52 0 -100 -44t-75 -116q225 22 225 112q0 48 -50 48z" />
    <glyph glyph-name="Ecaron" unicode="&#x11a;" horiz-adv-x="496" 
d="M400 0h-376v2q22 35 42 130l84 469q13 77 -6 129v2h326l11 -145l-8 -2q-32 69 -56 96t-61 27l-132 4l-60 -334h97q9 0 18 4t15.5 9t15.5 16l14 17t15 20t13 19h8l-29 -185h-8q-12 30 -18 43t-18 25t-29 12h-98l-61 -340l162 5q14 0 26 2t24 7t20 8t20 13.5l17.5 15
t19.5 20t19 21.5l22 26.5t23 28.5l8 -3zM322 782l-110 156l7 7l114 -93l166 93l4 -7l-177 -156h-4z" />
    <glyph glyph-name="ecaron" unicode="&#x11b;" horiz-adv-x="364" 
d="M276 472q-52 0 -100 -44t-75 -116q225 22 225 112q0 48 -50 48zM310 105q-25 -55 -67.5 -87.5t-92.5 -32.5q-60 0 -95 46.5t-35 125.5q0 126 80.5 229.5t185.5 103.5q39 0 63.5 -16.5t24.5 -50.5q0 -54 -66 -89.5t-211 -33.5q-19 -59 -19 -124q0 -151 97 -151
q68 0 125 85zM248 540l-88 173l8 6l91 -106l144 106l5 -6l-157 -173h-3z" />
    <glyph glyph-name="Gcircumflex" unicode="&#x11c;" horiz-adv-x="616" 
d="M594 322q-28 -45 -42 -130l-19 -105q-1 -1 -26 -23t-37.5 -29.5l-39 -22.5t-56.5 -21t-66 -6q-124 0 -189.5 85t-65.5 231q0 116 46 218t130.5 165t187.5 63q56 0 106.5 -18.5t72.5 -34.5l11 -139l-8 -2q-37 92 -85 133t-111 41q-88 0 -155 -66t-99 -165.5t-32 -213.5
q0 -126 46 -201.5t149 -75.5q85 0 131 52.5t59 155.5q10 59 -9 109v2h101v-2zM441 875l-166 -93l-4 7l177 156h4l110 -156l-7 -7z" />
    <glyph glyph-name="gcircumflex" unicode="&#x11d;" horiz-adv-x="393" 
d="M102 268q0 -51 14 -75t48 -24q53 0 91.5 57t38.5 147q0 51 -14 75t-48 24q-53 0 -91.5 -57t-38.5 -147zM327 -71q0 -61 -59.5 -107.5t-156.5 -46.5q-75 0 -123.5 29t-48.5 80t47 84.5t113 42.5q-43 22 -43 67q0 31 17.5 52t44.5 30q-34 14 -53 48t-19 74q0 78 60 143
t126 65q34 0 60 -16l140 24h1l-13 -59h-4l-108 23q42 -38 42 -103q0 -78 -60 -143t-126 -65q-19 0 -30 4q-44 -15 -44 -52q0 -54 104 -70l34.5 -8t34 -11.5t33.5 -18.5t21.5 -27t9.5 -39zM125 -200q76 0 121.5 32t45.5 78q0 10 -2 18t-7 15t-9.5 12t-14 9.5l-14.5 7
t-17.5 5.5t-17 4.5t-18.5 4t-17 3.5q-46 9 -63 16q-60 -11 -91.5 -40.5t-31.5 -71.5t33.5 -67.5t102.5 -25.5zM265 646l-144 -106l-5 6l157 173h3l88 -173l-8 -6z" />
    <glyph glyph-name="Gbreve" unicode="&#x11e;" horiz-adv-x="616" 
d="M594 322q-28 -45 -42 -130l-19 -105q-1 -1 -26 -23t-37.5 -29.5l-39 -22.5t-56.5 -21t-66 -6q-124 0 -189.5 85t-65.5 231q0 116 46 218t130.5 165t187.5 63q56 0 106.5 -18.5t72.5 -34.5l11 -139l-8 -2q-37 92 -85 133t-111 41q-88 0 -155 -66t-99 -165.5t-32 -213.5
q0 -126 46 -201.5t149 -75.5q85 0 131 52.5t59 155.5q10 59 -9 109v2h101v-2zM408 846q95 0 128 81h7q-8 -49 -42 -88.5t-97 -39.5q-34 0 -58 13t-36 33t-16.5 41t-3.5 41h7q18 -81 111 -81z" />
    <glyph glyph-name="gbreve" unicode="&#x11f;" horiz-adv-x="393" 
d="M102 268q0 -51 14 -75t48 -24q53 0 91.5 57t38.5 147q0 51 -14 75t-48 24q-53 0 -91.5 -57t-38.5 -147zM327 -71q0 -61 -59.5 -107.5t-156.5 -46.5q-75 0 -123.5 29t-48.5 80t47 84.5t113 42.5q-43 22 -43 67q0 31 17.5 52t44.5 30q-34 14 -53 48t-19 74q0 78 60 143
t126 65q34 0 60 -16l140 24h1l-13 -59h-4l-108 23q42 -38 42 -103q0 -78 -60 -143t-126 -65q-19 0 -30 4q-44 -15 -44 -52q0 -54 104 -70l34.5 -8t34 -11.5t33.5 -18.5t21.5 -27t9.5 -39zM125 -200q76 0 121.5 32t45.5 78q0 10 -2 18t-7 15t-9.5 12t-14 9.5l-14.5 7
t-17.5 5.5t-17 4.5t-18.5 4t-17 3.5q-46 9 -63 16q-60 -11 -91.5 -40.5t-31.5 -71.5t33.5 -67.5t102.5 -25.5zM268 614q84 0 109 79h8q-5 -46 -36 -84t-88 -38q-56 0 -80 38t-19 84h8q11 -79 98 -79z" />
    <glyph glyph-name="Gdotaccent" unicode="&#x120;" horiz-adv-x="616" 
d="M594 322q-28 -45 -42 -130l-19 -105q-1 -1 -26 -23t-37.5 -29.5l-39 -22.5t-56.5 -21t-66 -6q-124 0 -189.5 85t-65.5 231q0 116 46 218t130.5 165t187.5 63q56 0 106.5 -18.5t72.5 -34.5l11 -139l-8 -2q-37 92 -85 133t-111 41q-88 0 -155 -66t-99 -165.5t-32 -213.5
q0 -126 46 -201.5t149 -75.5q85 0 131 52.5t59 155.5q10 59 -9 109v2h101v-2zM454 868q0 -17 -12 -29t-29 -12t-29 12t-12 29t12 29t29 12t29 -12t12 -29z" />
    <glyph glyph-name="gdotaccent" unicode="&#x121;" horiz-adv-x="393" 
d="M102 268q0 -51 14 -75t48 -24q53 0 91.5 57t38.5 147q0 51 -14 75t-48 24q-53 0 -91.5 -57t-38.5 -147zM327 -71q0 -61 -59.5 -107.5t-156.5 -46.5q-75 0 -123.5 29t-48.5 80t47 84.5t113 42.5q-43 22 -43 67q0 31 17.5 52t44.5 30q-34 14 -53 48t-19 74q0 78 60 143
t126 65q34 0 60 -16l140 24h1l-13 -59h-4l-108 23q42 -38 42 -103q0 -78 -60 -143t-126 -65q-19 0 -30 4q-44 -15 -44 -52q0 -54 104 -70l34.5 -8t34 -11.5t33.5 -18.5t21.5 -27t9.5 -39zM125 -200q76 0 121.5 32t45.5 78q0 10 -2 18t-7 15t-9.5 12t-14 9.5l-14.5 7
t-17.5 5.5t-17 4.5t-18.5 4t-17 3.5q-46 9 -63 16q-60 -11 -91.5 -40.5t-31.5 -71.5t33.5 -67.5t102.5 -25.5zM302 659q0 -17 -12 -29t-29 -12t-29 12t-12 29t12 29t29 12t29 -12t12 -29z" />
    <glyph glyph-name="uni0122" unicode="&#x122;" horiz-adv-x="616" 
d="M594 322q-28 -45 -42 -130l-19 -105q-1 -1 -26 -23t-37.5 -29.5l-39 -22.5t-56.5 -21t-66 -6q-124 0 -189.5 85t-65.5 231q0 116 46 218t130.5 165t187.5 63q56 0 106.5 -18.5t72.5 -34.5l11 -139l-8 -2q-37 92 -85 133t-111 41q-88 0 -155 -66t-99 -165.5t-32 -213.5
q0 -126 46 -201.5t149 -75.5q85 0 131 52.5t59 155.5q10 59 -9 109v2h101v-2zM188 -218q64 38 64 74q0 29 -33 58v2l41 34q36 -30 36 -61q0 -54 -104 -113z" />
    <glyph glyph-name="uni0123" unicode="&#x123;" horiz-adv-x="393" 
d="M102 268q0 -51 14 -75t48 -24q53 0 91.5 57t38.5 147q0 51 -14 75t-48 24q-53 0 -91.5 -57t-38.5 -147zM327 -71q0 -61 -59.5 -107.5t-156.5 -46.5q-75 0 -123.5 29t-48.5 80t47 84.5t113 42.5q-43 22 -43 67q0 31 17.5 52t44.5 30q-34 14 -53 48t-19 74q0 78 60 143
t126 65q34 0 60 -16l140 24h1l-13 -59h-4l-108 23q42 -38 42 -103q0 -78 -60 -143t-126 -65q-19 0 -30 4q-44 -15 -44 -52q0 -54 104 -70l34.5 -8t34 -11.5t33.5 -18.5t21.5 -27t9.5 -39zM125 -200q76 0 121.5 32t45.5 78q0 10 -2 18t-7 15t-9.5 12t-14 9.5l-14.5 7
t-17.5 5.5t-17 4.5t-18.5 4t-17 3.5q-46 9 -63 16q-60 -11 -91.5 -40.5t-31.5 -71.5t33.5 -67.5t102.5 -25.5zM322 748q-64 -38 -64 -74q0 -29 33 -58v-2l-41 -34q-36 30 -36 61q0 54 104 113z" />
    <glyph glyph-name="Hcircumflex" unicode="&#x124;" horiz-adv-x="583" 
d="M24 2q22 35 42 130l84 469q13 77 -6 129v2h101v-2q-28 -45 -42 -130l-38 -212h307l38 213q13 77 -6 129v2h101v-2q-28 -45 -42 -130l-84 -469q-14 -79 6 -129v-2h-101v2q22 35 42 130l42 236h-307l-42 -237q-14 -79 6 -129v-2h-101v2zM406 875l-166 -93l-4 7l177 156h4
l110 -156l-7 -7z" />
    <glyph glyph-name="hcircumflex" unicode="&#x125;" horiz-adv-x="462" 
d="M366 358q9 40 -0.5 66.5t-38.5 26.5q-42 0 -100.5 -70.5t-122.5 -216.5l-8 -41q-16 -76 -3 -121v-2h-88v2q5 7 8.5 13.5t7.5 15.5l6.5 14.5t5.5 17t4.5 16.5t5 19.5t4.5 19.5l4.5 22.5l4.5 22.5l99 462q10 48 6 72.5t-24 46.5v2l100 33l-121 -551q50 117 113.5 189.5
t123.5 72.5q42 0 58.5 -36t2.5 -99l-51 -240q-8 -37 -8.5 -60t11 -34t37.5 -13v-2l-115 -15zM352 895l-166 -93l-4 7l177 156h4l110 -156l-7 -7z" />
    <glyph glyph-name="Hbar" unicode="&#x126;" horiz-adv-x="603" 
d="M34 2q22 35 42 130l74 416h-100l4 18h99l7 35q13 77 -6 129v2h101v-2q-28 -45 -42 -130l-6 -34h306l7 35q13 77 -6 129v2h101v-2q-28 -45 -42 -130l-6 -34h101l-4 -18h-100l-75 -417q-14 -79 6 -129v-2h-101v2q22 35 42 130l42 236h-307l-42 -237q-14 -79 6 -129v-2h-101
v2zM482 388l28 160h-307l-28 -160h307z" />
    <glyph glyph-name="hbar" unicode="&#x127;" horiz-adv-x="462" 
d="M366 358q9 40 -0.5 66.5t-38.5 26.5q-42 0 -100.5 -70.5t-122.5 -216.5l-8 -41q-16 -76 -3 -121v-2h-88v2q5 7 8.5 13.5t7.5 15.5l6.5 14.5t5.5 17t4.5 16.5t5 19.5t4.5 19.5l4.5 22.5l4.5 22.5l89 416h-70l4 18h70l6 28q10 48 6 72.5t-24 46.5v2l100 33l-40 -182h160
l-4 -18h-160l-77 -351q50 117 113.5 189.5t123.5 72.5q42 0 58.5 -36t2.5 -99l-51 -240q-8 -37 -8.5 -60t11 -34t37.5 -13v-2l-115 -15z" />
    <glyph glyph-name="Itilde" unicode="&#x128;" horiz-adv-x="224" 
d="M24 0v2q22 35 42 130l84 469q13 77 -6 129v2h101v-2q-28 -45 -42 -130l-84 -469q-14 -79 6 -129v-2h-101zM161 896q27 0 67 -25.5t65 -25.5q26 0 41.5 15.5t31.5 51.5l7 -1q-30 -109 -107 -109q-29 0 -69 25.5t-64 25.5q-48 0 -76 -67l-8 1q7 24 17.5 45.5t36 42.5
t58.5 21z" />
    <glyph glyph-name="itilde" unicode="&#x129;" 
d="M7 2q18 30 27.5 62.5t23.5 98.5l35 178q16 72 -18 119v2l104 33l-70 -329q-15 -71 -17.5 -102t5.5 -62v-2h-90v2zM120 678q24 0 60.5 -16.5t58.5 -16.5q39 0 63 47l7 -1q-9 -36 -31 -65.5t-64 -29.5q-24 0 -60.5 16.5t-58.5 16.5q-39 0 -63 -47l-7 1q9 36 31 65.5
t64 29.5z" />
    <glyph glyph-name="Imacron" unicode="&#x12a;" horiz-adv-x="224" 
d="M24 0v2q22 35 42 130l84 469q13 77 -6 129v2h101v-2q-28 -45 -42 -130l-84 -469q-14 -79 6 -129v-2h-101zM95 873h254l-7 -35h-254z" />
    <glyph glyph-name="imacron" unicode="&#x12b;" 
d="M85 645h171l-8 -35h-170zM7 2q18 30 27.5 62.5t23.5 98.5l35 178q16 72 -18 119v2l104 33l-70 -329q-15 -71 -17.5 -102t5.5 -62v-2h-90v2z" />
    <glyph glyph-name="Ibreve" unicode="&#x12c;" horiz-adv-x="224" 
d="M24 0v2q22 35 42 130l84 469q13 77 -6 129v2h101v-2q-28 -45 -42 -130l-84 -469q-14 -79 6 -129v-2h-101zM213 846q95 0 128 81h7q-8 -49 -42 -88.5t-97 -39.5q-34 0 -58 13t-36 33t-16.5 41t-3.5 41h7q18 -81 111 -81z" />
    <glyph glyph-name="ibreve" unicode="&#x12d;" 
d="M7 2q18 30 27.5 62.5t23.5 98.5l35 178q16 72 -18 119v2l104 33l-70 -329q-15 -71 -17.5 -102t5.5 -62v-2h-90v2zM173 614q84 0 109 79h8q-5 -46 -36 -84t-88 -38q-56 0 -80 38t-19 84h8q11 -79 98 -79z" />
    <glyph glyph-name="Iogonek" unicode="&#x12e;" horiz-adv-x="224" 
d="M24 0v2q22 35 42 130l84 469q13 77 -6 129v2h101v-2q-28 -45 -42 -130l-84 -469q-14 -79 6 -129v-2h-21q-57 -30 -84 -73q-28 -43 -28 -81q0 -52 50 -52q52 0 89 58l6 -4q-23 -42 -50.5 -67.5t-69.5 -25.5q-34 0 -53.5 19t-19.5 54q0 50 39 97q38 47 98 75h-57z" />
    <glyph glyph-name="iogonek" unicode="&#x12f;" 
d="M7 2q5 7 8.5 13.5t7.5 15.5l6.5 14.5t5.5 17t4.5 16.5t5 19.5t4.5 19.5l4.5 22.5l4.5 22.5l35 178q15 75 -18 119v2l96 33l-73 -372q-16 -76 -3 -121v-2h-7q-57 -30 -84 -73q-28 -43 -28 -81q0 -52 50 -52q52 0 89 58l6 -4q-23 -42 -50.5 -67.5t-69.5 -25.5
q-34 0 -53.5 19t-19.5 54q0 50 39 97q38 47 98 75h-58v2zM216 659q0 -17 -12 -29t-29 -12t-29 12t-12 29t12 29t29 12t29 -12t12 -29z" />
    <glyph glyph-name="Idotaccent" unicode="&#x130;" horiz-adv-x="224" 
d="M24 0v2q22 35 42 130l84 469q13 77 -6 129v2h101v-2q-28 -45 -42 -130l-84 -469q-14 -79 6 -129v-2h-101zM259 868q0 -17 -12 -29t-29 -12t-29 12t-12 29t12 29t29 12t29 -12t12 -29z" />
    <glyph glyph-name="dotlessi" unicode="&#x131;" horiz-adv-x="192" 
d="M7 2q18 30 27.5 62.5t23.5 98.5l35 178q16 72 -18 119v2l104 33l-70 -329q-15 -71 -17.5 -102t5.5 -62v-2h-90v2z" />
    <glyph glyph-name="IJ" unicode="&#x132;" horiz-adv-x="541" 
d="M24 0v2q22 35 42 130l84 469q13 77 -6 129v2h101v-2q-28 -45 -42 -130l-84 -469q-14 -79 6 -129v-2h-101zM441 123q-25 -138 -124 -138q-41 0 -79 23l9 125l8 2q20 -69 35.5 -99.5t37.5 -30.5q39 0 55 88l91 508q13 77 -6 129v2h101v-2q-28 -45 -42 -130z" />
    <glyph glyph-name="ij" unicode="&#x133;" horiz-adv-x="375" 
d="M216 659q0 -17 -12 -29t-29 -12t-29 12t-12 29t12 29t29 12t29 -12t12 -29zM7 2q5 7 8.5 13.5t7.5 15.5l6.5 14.5t5.5 17t4.5 16.5t5 19.5t4.5 19.5l4.5 22.5l4.5 22.5l35 178q15 75 -18 119v2l96 33l-73 -372q-16 -76 -3 -121v-2h-88v2zM405 659q0 -17 -12 -29t-29 -12
t-29 12t-12 29t12 29t29 12t29 -12t12 -29zM134 -210q44 34 63 128l85 423q15 75 -18 119v2l96 33l-108 -547q-14 -69 -45 -112t-71 -51z" />
    <glyph glyph-name="Jcircumflex" unicode="&#x134;" horiz-adv-x="312" 
d="M211 123q-25 -138 -124 -138q-41 0 -79 23l9 125l8 2q20 -69 35.5 -99.5t37.5 -30.5q39 0 55 88l91 508q13 77 -6 129v2h101v-2q-28 -45 -42 -130zM315 875l-166 -93l-4 7l177 156h4l110 -156l-7 -7z" />
    <glyph glyph-name="jcircumflex" unicode="&#x135;" horiz-adv-x="182" 
d="M-59 -210q44 34 63 128l85 423q15 75 -18 119v2l104 33l-118 -547q-15 -70 -44.5 -112.5t-69.5 -50.5zM171 646l-144 -106l-5 6l157 173h3l88 -173l-8 -6z" />
    <glyph glyph-name="uni0136" unicode="&#x136;" horiz-adv-x="498" 
d="M24 2q22 35 42 130l84 469q13 77 -6 129v2h101v-2q-28 -45 -42 -130l-84 -469q-14 -79 6 -129v-2h-101v2zM377 0l-200 361l213 248l29 36t17.5 28.5t6.5 28.5t-9 28v2h126v-2q-32 -18 -58 -38.5t-40 -34.5t-42 -46l-198 -228l160 -287q20 -38 37 -58t48 -36v-2h-90z
M159 -218q64 38 64 74q0 29 -33 58v2l41 34q36 -30 36 -61q0 -54 -104 -113z" />
    <glyph glyph-name="uni0137" unicode="&#x137;" horiz-adv-x="392" 
d="M5 0v2q5 7 8.5 13.5t7.5 15.5l6.5 14.5t5.5 17t4.5 16.5t5 19.5t4.5 19.5l4.5 22.5l4.5 22.5l99 462q10 48 6 72.5t-24 46.5v2l100 33l-132 -614q-15 -71 -17.5 -101.5t5.5 -61.5v-2h-88zM139 248l142 143q53 53 28 82v2h120v-2q-42 -16 -64.5 -32.5t-71.5 -65.5
l-107 -106l95 -177q21 -40 37 -59t42 -31v-2h-90zM96 -218q64 38 64 74q0 29 -33 58v2l41 34q36 -30 36 -61q0 -54 -104 -113z" />
    <glyph glyph-name="Lacute" unicode="&#x139;" horiz-adv-x="475" 
d="M24 0v2q22 35 42 130l84 469q13 77 -6 129v2h101v-2q-28 -45 -42 -130l-104 -585l161 9q38 2 72 23t53.5 43t60.5 75l5 -3l-70 -162h-357zM351 959l31 -57l-251 -120l-4 7z" />
    <glyph glyph-name="lacute" unicode="&#x13a;" 
d="M5 0v2q5 7 8.5 13.5t7.5 15.5l6.5 14.5t5.5 17t4.5 16.5t5 19.5t4.5 19.5l4.5 22.5l4.5 22.5l99 462q10 48 6 72.5t-24 46.5v2l100 33l-132 -614q-15 -71 -17.5 -101.5t5.5 -61.5v-2h-88zM321 959l31 -57l-251 -120l-4 7z" />
    <glyph glyph-name="uni013B" unicode="&#x13b;" horiz-adv-x="475" 
d="M24 0v2q22 35 42 130l84 469q13 77 -6 129v2h101v-2q-28 -45 -42 -130l-104 -585l161 9q38 2 72 23t53.5 43t60.5 75l5 -3l-70 -162h-357zM146 -218q64 38 64 74q0 29 -33 58v2l41 34q36 -30 36 -61q0 -54 -104 -113z" />
    <glyph glyph-name="uni013C" unicode="&#x13c;" 
d="M5 0v2q5 7 8.5 13.5t7.5 15.5l6.5 14.5t5.5 17t4.5 16.5t5 19.5t4.5 19.5l4.5 22.5l4.5 22.5l99 462q10 48 6 72.5t-24 46.5v2l100 33l-132 -614q-15 -71 -17.5 -101.5t5.5 -61.5v-2h-88zM-27 -218q64 38 64 74q0 29 -33 58v2l41 34q36 -30 36 -61q0 -54 -104 -113z" />
    <glyph glyph-name="Lcaron" unicode="&#x13d;" horiz-adv-x="475" 
d="M24 0v2q22 35 42 130l84 469q13 77 -6 129v2h101v-2q-28 -45 -42 -130l-104 -585l161 9q38 2 72 23t53.5 43t60.5 75l5 -3l-70 -162h-357zM315 732h66l-127 -203l-6 2z" />
    <glyph glyph-name="lcaron" unicode="&#x13e;" 
d="M5 0v2q5 7 8.5 13.5t7.5 15.5l6.5 14.5t5.5 17t4.5 16.5t5 19.5t4.5 19.5l4.5 22.5l4.5 22.5l99 462q10 48 6 72.5t-24 46.5v2l100 33l-132 -614q-15 -71 -17.5 -101.5t5.5 -61.5v-2h-88zM304 775h66l-127 -203l-6 2z" />
    <glyph glyph-name="Ldot" unicode="&#x13f;" horiz-adv-x="475" 
d="M24 0v2q22 35 42 130l84 469q13 77 -6 129v2h101v-2q-28 -45 -42 -130l-104 -585l161 9q38 2 72 23t53.5 43t60.5 75l5 -3l-70 -162h-357zM385 317q-19 0 -33 13.5t-14 33.5t14 33.5t33 13.5q20 0 33.5 -13.5t13.5 -33.5t-13.5 -33.5t-33.5 -13.5z" />
    <glyph glyph-name="ldot" unicode="&#x140;" horiz-adv-x="295" 
d="M5 0v2q5 7 8.5 13.5t7.5 15.5l6.5 14.5t5.5 17t4.5 16.5t5 19.5t4.5 19.5l4.5 22.5l4.5 22.5l99 462q10 48 6 72.5t-24 46.5v2l100 33l-132 -614q-15 -71 -17.5 -101.5t5.5 -61.5v-2h-88zM268 307q-19 0 -33 13.5t-14 33.5t14 33.5t33 13.5q20 0 33.5 -13.5t13.5 -33.5
t-13.5 -33.5t-33.5 -13.5z" />
    <glyph glyph-name="Lslash" unicode="&#x141;" horiz-adv-x="485" 
d="M34 0v2q22 35 42 130l24 137l-82 -50l5 25l82 50l55 307q13 77 -6 129v2h101v-2q-28 -45 -42 -130l-48 -270l208 127l-5 -25l-207 -126l-52 -291l161 9q38 2 72 23t53.5 43t60.5 75l5 -3l-70 -162h-357z" />
    <glyph glyph-name="lslash" unicode="&#x142;" horiz-adv-x="209" 
d="M16 0v2q5 7 8.5 13.5t7.5 15.5l6.5 14.5t5.5 17t4.5 16.5t5 19.5t4.5 19.5l4.5 22.5l4.5 22.5l37 172l-87 -68v24l93 73l56 261q10 48 6 72.5t-24 46.5v2l100 33l-79 -369l86 67v-24l-93 -73l-46 -215q-15 -71 -17.5 -101.5t5.5 -61.5v-2h-88z" />
    <glyph glyph-name="Nacute" unicode="&#x143;" horiz-adv-x="597" 
d="M180 647l-87 -483q-11 -52 -9 -84t23 -78v-2h-101v2q32 45 43 75t22 87l73 404q13 56 10 90.5t-31 71.5v2h80l267 -630l84 466q11 52 9 84t-23 78v2h101v-2q-32 -45 -44 -76t-21 -86l-102 -568l-18 -3zM523 959l31 -57l-251 -120l-4 7z" />
    <glyph glyph-name="nacute" unicode="&#x144;" horiz-adv-x="466" 
d="M371 358q9 40 -0.5 66.5t-38.5 26.5q-43 0 -99.5 -69.5t-121.5 -214.5l-10 -44q-16 -76 -3 -121v-2h-88v2q5 7 8.5 13.5t7.5 15.5l6.5 14.5t5.5 17t4.5 16.5t5 19.5t4.5 19.5l4.5 22.5l4.5 22.5l38 178q17 72 -18 119v2l100 33l-58 -262q50 115 113 186t122 71
q42 0 58.5 -36t2.5 -99l-54 -240q-14 -56 -6.5 -79.5t46.5 -27.5v-2l-115 -15zM378 749l42 -44l-195 -172l-5 6z" />
    <glyph glyph-name="uni0145" unicode="&#x145;" horiz-adv-x="597" 
d="M180 647l-87 -483q-11 -52 -9 -84t23 -78v-2h-101v2q32 45 43 75t22 87l73 404q13 56 10 90.5t-31 71.5v2h80l267 -630l84 466q11 52 9 84t-23 78v2h101v-2q-32 -45 -44 -76t-21 -86l-102 -568l-18 -3zM185 -218q64 38 64 74q0 29 -33 58v2l41 34q36 -30 36 -61
q0 -54 -104 -113z" />
    <glyph glyph-name="uni0146" unicode="&#x146;" horiz-adv-x="466" 
d="M371 358q9 40 -0.5 66.5t-38.5 26.5q-43 0 -99.5 -69.5t-121.5 -214.5l-10 -44q-16 -76 -3 -121v-2h-88v2q5 7 8.5 13.5t7.5 15.5l6.5 14.5t5.5 17t4.5 16.5t5 19.5t4.5 19.5l4.5 22.5l4.5 22.5l38 178q17 72 -18 119v2l100 33l-58 -262q50 115 113 186t122 71
q42 0 58.5 -36t2.5 -99l-54 -240q-14 -56 -6.5 -79.5t46.5 -27.5v-2l-115 -15zM116 -218q64 38 64 74q0 29 -33 58v2l41 34q36 -30 36 -61q0 -54 -104 -113z" />
    <glyph glyph-name="Ncaron" unicode="&#x147;" horiz-adv-x="597" 
d="M180 647l-87 -483q-11 -52 -9 -84t23 -78v-2h-101v2q32 45 43 75t22 87l73 404q13 56 10 90.5t-31 71.5v2h80l267 -630l84 466q11 52 9 84t-23 78v2h101v-2q-32 -45 -44 -76t-21 -86l-102 -568l-18 -3zM397 782l-110 156l7 7l114 -93l166 93l4 -7l-177 -156h-4z" />
    <glyph glyph-name="ncaron" unicode="&#x148;" horiz-adv-x="466" 
d="M371 358q9 40 -0.5 66.5t-38.5 26.5q-43 0 -99.5 -69.5t-121.5 -214.5l-10 -44q-16 -76 -3 -121v-2h-88v2q5 7 8.5 13.5t7.5 15.5l6.5 14.5t5.5 17t4.5 16.5t5 19.5t4.5 19.5l4.5 22.5l4.5 22.5l38 178q17 72 -18 119v2l100 33l-58 -262q50 115 113 186t122 71
q42 0 58.5 -36t2.5 -99l-54 -240q-14 -56 -6.5 -79.5t46.5 -27.5v-2l-115 -15zM289 540l-88 173l8 6l91 -106l144 106l5 -6l-157 -173h-3z" />
    <glyph glyph-name="napostrophe" unicode="&#x149;" horiz-adv-x="466" 
d="M371 358q9 40 -0.5 66.5t-38.5 26.5q-43 0 -99.5 -69.5t-121.5 -214.5l-10 -44q-16 -76 -3 -121v-2h-88v2q5 7 8.5 13.5t7.5 15.5l6.5 14.5t5.5 17t4.5 16.5t5 19.5t4.5 19.5l4.5 22.5l4.5 22.5l38 178q17 72 -18 119v2l100 33l-58 -262q50 115 113 186t122 71
q42 0 58.5 -36t2.5 -99l-54 -240q-14 -56 -6.5 -79.5t46.5 -27.5v-2l-115 -15zM-22 550q76 55 76 102q0 24 -36 60v2l47 41q35 -28 35 -63q0 -67 -117 -148z" />
    <glyph glyph-name="Eng" unicode="&#x14a;" horiz-adv-x="597" 
d="M320 -225q-47 0 -85 23l9 125l8 2q21 -78 36.5 -104t43.5 -26q32 0 60 27t43 87l17 96l-272 642l-87 -483q-11 -52 -9 -84t23 -78v-2h-101v2q32 45 43 75t22 87l73 404v-1q12 58 9.5 92t-30.5 71v2h80l267 -629l84 465q11 52 9 84t-23 78v2h101v-2q-32 -45 -44 -76
t-21 -86l-118 -655q-28 -138 -138 -138z" />
    <glyph glyph-name="eng" unicode="&#x14b;" horiz-adv-x="455" 
d="M215 -210q44 34 63 128l93 440q7 40 -1.5 66.5t-37.5 26.5q-43 0 -99.5 -69.5t-121.5 -214.5l-10 -44q-16 -76 -3 -121v-2h-88v2q5 7 8.5 13.5t7.5 15.5l6.5 14.5t5.5 17t4.5 16.5t5 19.5t4.5 19.5l4.5 22.5l4.5 22.5l38 178q17 72 -18 119v2l100 33l-58 -262
q50 115 113 186t122 71q42 0 58.5 -36t2.5 -99l-88 -407q-15 -70 -44.5 -112.5t-69.5 -50.5z" />
    <glyph glyph-name="Omacron" unicode="&#x14c;" horiz-adv-x="662" 
d="M655 437q0 -119 -49 -223t-132.5 -166.5t-179.5 -62.5q-106 0 -173.5 87.5t-67.5 222.5q0 119 49 223t132.5 166.5t179.5 62.5q106 0 173.5 -87.5t67.5 -222.5zM117 276q0 -122 47 -196.5t137 -74.5q88 0 155.5 65t101 166.5t33.5 219.5q0 122 -47 196.5t-137 74.5
q-88 0 -155.5 -65t-101 -166.5t-33.5 -219.5zM315 873h254l-7 -35h-254z" />
    <glyph glyph-name="omacron" unicode="&#x14d;" horiz-adv-x="410" 
d="M390 316q0 -81 -32.5 -158t-87.5 -125t-114 -48q-61 0 -98.5 46t-37.5 128q0 81 32.5 158t87.5 125t114 48q61 0 98.5 -46t37.5 -128zM78 151q0 -148 82 -148q69 0 120.5 91t51.5 230q0 148 -82 148q-69 0 -120.5 -91t-51.5 -230zM161 645h241l-8 -35h-240z" />
    <glyph glyph-name="Obreve" unicode="&#x14e;" horiz-adv-x="662" 
d="M655 437q0 -119 -49 -223t-132.5 -166.5t-179.5 -62.5q-106 0 -173.5 87.5t-67.5 222.5q0 119 49 223t132.5 166.5t179.5 62.5q106 0 173.5 -87.5t67.5 -222.5zM117 276q0 -122 47 -196.5t137 -74.5q88 0 155.5 65t101 166.5t33.5 219.5q0 122 -47 196.5t-137 74.5
q-88 0 -155.5 -65t-101 -166.5t-33.5 -219.5zM433 846q95 0 128 81h7q-8 -49 -42 -88.5t-97 -39.5q-34 0 -58 13t-36 33t-16.5 41t-3.5 41h7q18 -81 111 -81z" />
    <glyph glyph-name="obreve" unicode="&#x14f;" horiz-adv-x="410" 
d="M390 316q0 -81 -32.5 -158t-87.5 -125t-114 -48q-61 0 -98.5 46t-37.5 128q0 81 32.5 158t87.5 125t114 48q61 0 98.5 -46t37.5 -128zM78 151q0 -148 82 -148q69 0 120.5 91t51.5 230q0 148 -82 148q-69 0 -120.5 -91t-51.5 -230zM274 614q84 0 109 79h8q-5 -46 -36 -84
t-88 -38q-56 0 -80 38t-19 84h8q11 -79 98 -79z" />
    <glyph glyph-name="Ohungarumlaut" unicode="&#x150;" horiz-adv-x="662" 
d="M655 437q0 -119 -49 -223t-132.5 -166.5t-179.5 -62.5q-106 0 -173.5 87.5t-67.5 222.5q0 119 49 223t132.5 166.5t179.5 62.5q106 0 173.5 -87.5t67.5 -222.5zM117 276q0 -122 47 -196.5t137 -74.5q88 0 155.5 65t101 166.5t33.5 219.5q0 122 -47 196.5t-137 74.5
q-88 0 -155.5 -65t-101 -166.5t-33.5 -219.5zM590 949l44 -50l-162 -117l-4 4zM427 949l44 -50l-162 -117l-4 4z" />
    <glyph glyph-name="ohungarumlaut" unicode="&#x151;" horiz-adv-x="410" 
d="M390 316q0 -81 -32.5 -158t-87.5 -125t-114 -48q-61 0 -98.5 46t-37.5 128q0 81 32.5 158t87.5 125t114 48q61 0 98.5 -46t37.5 -128zM78 151q0 -148 82 -148q69 0 120.5 91t51.5 230q0 148 -82 148q-69 0 -120.5 -91t-51.5 -230zM424 729l41 -31l-141 -157l-7 5z
M285 729l41 -31l-141 -157l-7 5z" />
    <glyph glyph-name="OE" unicode="&#x152;" horiz-adv-x="856" 
d="M513 620q10 53 -5 97l-63 -1q-82 -2 -147 -40.5t-103.5 -101.5t-58 -137.5t-19.5 -155.5q0 -262 211 -262h66q17 36 26 80zM760 0h-448q-259 0 -259 291q0 187 108.5 314t280.5 127h388l11 -145l-8 -2q-31 69 -55 95t-62 28l-132 4l-60 -334h97q9 0 18 4t15.5 9t15.5 16
l14 17t15 20t13 19h8l-29 -185h-8q-12 30 -18 43t-18 25t-29 12h-98l-61 -340l162 5q14 0 26 2t24 7t20 8t20 13.5l17.5 15t19.5 20t19 21.5l22 26.5t23 28.5l8 -3z" />
    <glyph glyph-name="oe" unicode="&#x153;" horiz-adv-x="662" 
d="M574 472q-52 0 -100 -44t-75 -116q225 22 225 112q0 48 -50 48zM78 151q0 -148 82 -148q69 0 120.5 91t51.5 230q0 148 -82 148q-69 0 -120.5 -91t-51.5 -230zM608 105q-25 -55 -67 -87.5t-92 -32.5q-48 0 -80 33.5t-41 91.5q-34 -58 -79 -91.5t-95 -33.5
q-59 0 -96.5 46.5t-37.5 127.5t32.5 158t87.5 125t114 48q51 0 85 -35.5t42 -98.5q38 61 91.5 97.5t111.5 36.5q39 0 63.5 -16.5t24.5 -50.5q0 -54 -66 -89.5t-211 -33.5q-19 -59 -19 -124q0 -151 96 -151q69 0 126 85z" />
    <glyph glyph-name="Racute" unicode="&#x154;" horiz-adv-x="494" 
d="M24 2q22 35 42 130l84 469q13 77 -6 129v2h158q182 0 182 -159q0 -83 -49 -140t-116 -72l68 -257q12 -46 28.5 -68t46.5 -34v-2h-104l-92 353h-107l-40 -222q-14 -79 6 -129v-2h-101v2zM293 711h-37q-22 0 -33 -1l-61 -337h94q82 0 124 58.5t42 143.5q0 71 -31 103.5
t-98 32.5zM453 959l31 -57l-251 -120l-4 7z" />
    <glyph glyph-name="racute" unicode="&#x155;" horiz-adv-x="298" 
d="M10 2q5 7 8.5 13.5t7.5 15.5l6.5 14.5t5.5 17t4.5 16.5t5 19.5t4.5 19.5l4.5 22.5l4.5 22.5l38 178q17 72 -18 119v2l100 33l-53 -242q47 120 97.5 178.5t112.5 58.5l-31 -75h-2q-8 5 -21 5q-43 0 -80.5 -54.5t-92.5 -197.5l-10 -45q-16 -76 -3 -121v-2h-88v2zM315 749
l42 -44l-195 -172l-5 6z" />
    <glyph glyph-name="uni0156" unicode="&#x156;" horiz-adv-x="494" 
d="M24 2q22 35 42 130l84 469q13 77 -6 129v2h158q182 0 182 -159q0 -83 -49 -140t-116 -72l68 -257q12 -46 28.5 -68t46.5 -34v-2h-104l-92 353h-107l-40 -222q-14 -79 6 -129v-2h-101v2zM293 711h-37q-22 0 -33 -1l-61 -337h94q82 0 124 58.5t42 143.5q0 71 -31 103.5
t-98 32.5zM165 -218q64 38 64 74q0 29 -33 58v2l41 34q36 -30 36 -61q0 -54 -104 -113z" />
    <glyph glyph-name="uni0157" unicode="&#x157;" horiz-adv-x="298" 
d="M10 2q5 7 8.5 13.5t7.5 15.5l6.5 14.5t5.5 17t4.5 16.5t5 19.5t4.5 19.5l4.5 22.5l4.5 22.5l38 178q17 72 -18 119v2l100 33l-53 -242q47 120 97.5 178.5t112.5 58.5l-31 -75h-2q-8 5 -21 5q-43 0 -80.5 -54.5t-92.5 -197.5l-10 -45q-16 -76 -3 -121v-2h-88v2zM-17 -218
q64 38 64 74q0 29 -33 58v2l41 34q36 -30 36 -61q0 -54 -104 -113z" />
    <glyph glyph-name="Rcaron" unicode="&#x158;" horiz-adv-x="494" 
d="M24 2q22 35 42 130l84 469q13 77 -6 129v2h158q182 0 182 -159q0 -83 -49 -140t-116 -72l68 -257q12 -46 28.5 -68t46.5 -34v-2h-104l-92 353h-107l-40 -222q-14 -79 6 -129v-2h-101v2zM293 711h-37q-22 0 -33 -1l-61 -337h94q82 0 124 58.5t42 143.5q0 71 -31 103.5
t-98 32.5zM312 782l-110 156l7 7l114 -93l166 93l4 -7l-177 -156h-4z" />
    <glyph glyph-name="rcaron" unicode="&#x159;" horiz-adv-x="298" 
d="M10 2q5 7 8.5 13.5t7.5 15.5l6.5 14.5t5.5 17t4.5 16.5t5 19.5t4.5 19.5l4.5 22.5l4.5 22.5l38 178q17 72 -18 119v2l100 33l-53 -242q47 120 97.5 178.5t112.5 58.5l-31 -75h-2q-8 5 -21 5q-43 0 -80.5 -54.5t-92.5 -197.5l-10 -45q-16 -76 -3 -121v-2h-88v2zM227 540
l-88 173l8 6l91 -106l144 106l5 -6l-157 -173h-3z" />
    <glyph glyph-name="Sacute" unicode="&#x15a;" horiz-adv-x="438" 
d="M450 565l-9 -2q-24 93 -61 128.5t-86 35.5q-56 0 -90.5 -37t-34.5 -95q0 -37 18 -74t36 -58.5t54 -58.5q36 -39 54 -62t36 -65.5t18 -87.5q0 -96 -59.5 -150t-150.5 -54q-89 0 -164 46l-7 158l8 2q32 -105 75.5 -145.5t102.5 -40.5q67 0 107 48.5t40 117.5q0 31 -8 57.5
t-27 53.5t-31.5 41.5t-40.5 44.5q-34 35 -53 59t-36.5 63t-17.5 80q0 86 55 131.5t131 45.5q79 0 134 -36zM461 959l31 -57l-251 -120l-4 7z" />
    <glyph glyph-name="sacute" unicode="&#x15b;" horiz-adv-x="313" 
d="M293 375l-8 -2q-44 99 -104 99q-31 0 -49.5 -22t-18.5 -55q0 -28 15.5 -54t37.5 -48l44 -46t37.5 -57t15.5 -71q0 -64 -38.5 -99t-97.5 -35q-72 0 -116 38l-3 113l8 2q23 -67 55 -101t69 -34q36 0 59.5 26t23.5 67q0 30 -15 57.5t-37 49.5l-44 45t-37 54t-15 66
q0 59 36.5 90.5t90.5 31.5q52 0 88 -20zM306 749l42 -44l-195 -172l-5 6z" />
    <glyph glyph-name="Scircumflex" unicode="&#x15c;" horiz-adv-x="438" 
d="M450 565l-9 -2q-24 93 -61 128.5t-86 35.5q-56 0 -90.5 -37t-34.5 -95q0 -37 18 -74t36 -58.5t54 -58.5q36 -39 54 -62t36 -65.5t18 -87.5q0 -96 -59.5 -150t-150.5 -54q-89 0 -164 46l-7 158l8 2q32 -105 75.5 -145.5t102.5 -40.5q67 0 107 48.5t40 117.5q0 31 -8 57.5
t-27 53.5t-31.5 41.5t-40.5 44.5q-34 35 -53 59t-36.5 63t-17.5 80q0 86 55 131.5t131 45.5q79 0 134 -36zM316 875l-166 -93l-4 7l177 156h4l110 -156l-7 -7z" />
    <glyph glyph-name="scircumflex" unicode="&#x15d;" horiz-adv-x="313" 
d="M293 375l-8 -2q-44 99 -104 99q-31 0 -49.5 -22t-18.5 -55q0 -28 15.5 -54t37.5 -48l44 -46t37.5 -57t15.5 -71q0 -64 -38.5 -99t-97.5 -35q-72 0 -116 38l-3 113l8 2q23 -67 55 -101t69 -34q36 0 59.5 26t23.5 67q0 30 -15 57.5t-37 49.5l-44 45t-37 54t-15 66
q0 59 36.5 90.5t90.5 31.5q52 0 88 -20zM220 646l-144 -106l-5 6l157 173h3l88 -173l-8 -6z" />
    <glyph glyph-name="uni015E" unicode="&#x15e;" horiz-adv-x="438" 
d="M37 -247q56 13 89.5 39.5t33.5 60.5q0 14 -6 24t-12.5 15.5t-19 9.5t-18 5t-16.5 2v2l59 75q-31 3 -61 12q-42 14 -75 33l-7 158l8 2q32 -105 75.5 -145.5t102.5 -40.5q67 0 107 48.5t40 117.5q0 31 -8 57.5t-27 53.5t-31.5 41.5t-40.5 44.5q-34 35 -53 59t-36.5 63
t-17.5 80q0 86 55 131.5t131 45.5q79 0 134 -36l7 -146l-9 -2q-24 93 -61 128.5t-86 35.5q-56 0 -90.5 -37t-34.5 -95q0 -37 18 -74t36 -58.5t54 -58.5q36 -39 54 -62t36 -65.5t18 -87.5q0 -96 -59.5 -150t-150.5 -54h-2l-35 -43q65 -18 65 -73q0 -50 -47 -82.5t-119 -41.5
v8z" />
    <glyph glyph-name="uni015F" unicode="&#x15f;" horiz-adv-x="313" 
d="M-8 -247q56 13 89.5 39.5t33.5 60.5q0 14 -6 24t-12.5 15.5t-19 9.5t-18 5t-16.5 2v2l59 75q-20 3 -39 9q-30 9 -52 28l-3 113l8 2q23 -67 55 -101t69 -34q36 0 59.5 26t23.5 67q0 30 -15 57.5t-37 49.5l-44 45t-37 54t-15 66q0 59 36.5 90.5t90.5 31.5q52 0 88 -20
l3 -95l-8 -2q-44 99 -104 99q-31 0 -49.5 -22t-18.5 -55q0 -28 15.5 -54t37.5 -48l44 -46t37.5 -57t15.5 -71q0 -63 -38.5 -98.5t-96.5 -35.5l-35 -43q65 -18 65 -73q0 -50 -47 -82.5t-119 -41.5v8z" />
    <glyph glyph-name="Scaron" unicode="&#x160;" horiz-adv-x="438" 
d="M450 565l-9 -2q-24 93 -61 128.5t-86 35.5q-56 0 -90.5 -37t-34.5 -95q0 -37 18 -74t36 -58.5t54 -58.5q36 -39 54 -62t36 -65.5t18 -87.5q0 -96 -59.5 -150t-150.5 -54q-89 0 -164 46l-7 158l8 2q32 -105 75.5 -145.5t102.5 -40.5q67 0 107 48.5t40 117.5q0 31 -8 57.5
t-27 53.5t-31.5 41.5t-40.5 44.5q-34 35 -53 59t-36.5 63t-17.5 80q0 86 55 131.5t131 45.5q79 0 134 -36zM316 782l-110 156l7 7l114 -93l166 93l4 -7l-177 -156h-4z" />
    <glyph glyph-name="scaron" unicode="&#x161;" horiz-adv-x="313" 
d="M293 375l-8 -2q-44 99 -104 99q-31 0 -49.5 -22t-18.5 -55q0 -28 15.5 -54t37.5 -48l44 -46t37.5 -57t15.5 -71q0 -64 -38.5 -99t-97.5 -35q-72 0 -116 38l-3 113l8 2q23 -67 55 -101t69 -34q36 0 59.5 26t23.5 67q0 30 -15 57.5t-37 49.5l-44 45t-37 54t-15 66
q0 59 36.5 90.5t90.5 31.5q52 0 88 -20zM208 540l-88 173l8 6l91 -106l144 106l5 -6l-157 -173h-3z" />
    <glyph glyph-name="Tcommaaccent" unicode="&#x162;" horiz-adv-x="556" 
d="M185 0v2q22 35 42 130l104 582l-93 -4q-43 -2 -71.5 -30.5t-92.5 -126.5l-8 4l60 175h470v-177l-8 -2q-27 91 -46.5 122.5t-47.5 33.5l-110 4l-104 -582q-14 -79 6 -129v-2h-101zM158 -218q64 38 64 74q0 29 -33 58v2l41 34q36 -30 36 -61q0 -54 -104 -113z" />
    <glyph glyph-name="tcommaaccent" unicode="&#x163;" horiz-adv-x="264" 
d="M89 -15q-28 0 -42.5 22t-4.5 71l82 379h-55v2l121 90h2l-16 -74h118l-4 -18h-118l-81 -377q-12 -54 22 -54q37 0 92 78l9 -6q-62 -113 -125 -113zM23 -218q64 38 64 74q0 29 -33 58v2l41 34q36 -30 36 -61q0 -54 -104 -113z" />
    <glyph glyph-name="Tcaron" unicode="&#x164;" horiz-adv-x="556" 
d="M185 0v2q22 35 42 130l104 582l-93 -4q-43 -2 -71.5 -30.5t-92.5 -126.5l-8 4l60 175h470v-177l-8 -2q-27 91 -46.5 122.5t-47.5 33.5l-110 4l-104 -582q-14 -79 6 -129v-2h-101zM363 782l-110 156l7 7l114 -93l166 93l4 -7l-177 -156h-4z" />
    <glyph glyph-name="tcaron" unicode="&#x165;" horiz-adv-x="264" 
d="M89 -15q-28 0 -42.5 22t-4.5 71l82 379h-55v2l121 90h2l-16 -74h118l-4 -18h-118l-81 -377q-12 -54 22 -54q37 0 92 78l9 -6q-62 -113 -125 -113zM320 775h66l-127 -203l-6 2z" />
    <glyph glyph-name="Tbar" unicode="&#x166;" horiz-adv-x="556" 
d="M185 0v2q22 35 42 130l40 225h-145l4 20h144l61 337l-93 -4q-43 -2 -71.5 -30.5t-92.5 -126.5l-8 4l60 175h470v-177l-8 -2q-27 91 -46.5 122.5t-47.5 33.5l-110 4l-60 -336h156l-4 -20h-156l-40 -226q-14 -79 6 -129v-2h-101z" />
    <glyph glyph-name="tbar" unicode="&#x167;" horiz-adv-x="264" 
d="M89 -15q-28 0 -42.5 22t-4.5 71l50 232h-49l3 16h49l29 131h-55v2l121 90h2l-16 -74h118l-4 -18h-118l-28 -131h122l-3 -16h-123l-49 -230q-12 -54 22 -54q37 0 92 78l9 -6q-62 -113 -125 -113z" />
    <glyph glyph-name="Utilde" unicode="&#x168;" horiz-adv-x="542" 
d="M252 -15q-92 0 -149 61t-35 180l68 375q13 77 -6 129v2h101v-2q-28 -45 -42 -130l-67 -371q-20 -111 21 -166.5t116 -55.5q78 0 121.5 55t57.5 135l70 371q11 52 9 84t-23 78v2h102v-2q-32 -45 -43 -75t-22 -87l-70 -371q-8 -41 -22 -76t-38 -67t-62 -50.5t-87 -18.5z
M328 896q27 0 67 -25.5t65 -25.5q26 0 41.5 15.5t31.5 51.5l7 -1q-30 -109 -107 -109q-29 0 -69 25.5t-64 25.5q-48 0 -76 -67l-8 1q7 24 17.5 45.5t36 42.5t58.5 21z" />
    <glyph glyph-name="utilde" unicode="&#x169;" horiz-adv-x="444" 
d="M317 204q-43 -96 -98.5 -157.5t-111.5 -61.5q-44 0 -66.5 36t-4.5 106l66 253q18 74 -32 93v2h103l-89 -349q-13 -48 -0.5 -72.5t42.5 -24.5q53 0 112.5 79t108.5 210l16 61q21 74 -31 94v2h105l-96 -367q-12 -39 -8.5 -62t33.5 -35v-1l-106 -19zM240 678
q24 0 60.5 -16.5t58.5 -16.5q39 0 63 47l7 -1q-9 -36 -31 -65.5t-64 -29.5q-24 0 -60.5 16.5t-58.5 16.5q-39 0 -63 -47l-7 1q9 36 31 65.5t64 29.5z" />
    <glyph glyph-name="Umacron" unicode="&#x16a;" horiz-adv-x="542" 
d="M252 -15q-92 0 -149 61t-35 180l68 375q13 77 -6 129v2h101v-2q-28 -45 -42 -130l-67 -371q-20 -111 21 -166.5t116 -55.5q78 0 121.5 55t57.5 135l70 371q11 52 9 84t-23 78v2h102v-2q-32 -45 -43 -75t-22 -87l-70 -371q-8 -41 -22 -76t-38 -67t-62 -50.5t-87 -18.5z
M263 873h254l-7 -35h-254z" />
    <glyph glyph-name="umacron" unicode="&#x16b;" horiz-adv-x="444" 
d="M317 204q-43 -96 -98.5 -157.5t-111.5 -61.5q-44 0 -66.5 36t-4.5 106l66 253q18 74 -32 93v2h103l-89 -349q-13 -48 -0.5 -72.5t42.5 -24.5q53 0 112.5 79t108.5 210l16 61q21 74 -31 94v2h105l-96 -367q-12 -39 -8.5 -62t33.5 -35v-1l-106 -19zM180 645h241l-8 -35
h-240z" />
    <glyph glyph-name="Ubreve" unicode="&#x16c;" horiz-adv-x="542" 
d="M252 -15q-92 0 -149 61t-35 180l68 375q13 77 -6 129v2h101v-2q-28 -45 -42 -130l-67 -371q-20 -111 21 -166.5t116 -55.5q78 0 121.5 55t57.5 135l70 371q11 52 9 84t-23 78v2h102v-2q-32 -45 -43 -75t-22 -87l-70 -371q-8 -41 -22 -76t-38 -67t-62 -50.5t-87 -18.5z
M381 846q95 0 128 81h7q-8 -49 -42 -88.5t-97 -39.5q-34 0 -58 13t-36 33t-16.5 41t-3.5 41h7q18 -81 111 -81z" />
    <glyph glyph-name="ubreve" unicode="&#x16d;" horiz-adv-x="444" 
d="M317 204q-43 -96 -98.5 -157.5t-111.5 -61.5q-44 0 -66.5 36t-4.5 106l66 253q18 74 -32 93v2h103l-89 -349q-13 -48 -0.5 -72.5t42.5 -24.5q53 0 112.5 79t108.5 210l16 61q21 74 -31 94v2h105l-96 -367q-12 -39 -8.5 -62t33.5 -35v-1l-106 -19zM293 614q84 0 109 79h8
q-5 -46 -36 -84t-88 -38q-56 0 -80 38t-19 84h8q11 -79 98 -79z" />
    <glyph glyph-name="Uring" unicode="&#x16e;" horiz-adv-x="542" 
d="M252 -15q-92 0 -149 61t-35 180l68 375q13 77 -6 129v2h101v-2q-28 -45 -42 -130l-67 -371q-20 -111 21 -166.5t116 -55.5q78 0 121.5 55t57.5 135l70 371q11 52 9 84t-23 78v2h102v-2q-32 -45 -43 -75t-22 -87l-70 -371q-8 -41 -22 -76t-38 -67t-62 -50.5t-87 -18.5z
M295 865q0 37 23.5 61t60.5 24t60.5 -24t23.5 -61t-23.5 -60t-60.5 -23t-60.5 23t-23.5 60zM323 865q0 -31 14.5 -48.5t41.5 -17.5t41.5 17.5t14.5 48.5q0 68 -56 68t-56 -68z" />
    <glyph glyph-name="uring" unicode="&#x16f;" horiz-adv-x="444" 
d="M317 204q-43 -96 -98.5 -157.5t-111.5 -61.5q-44 0 -66.5 36t-4.5 106l66 253q18 74 -32 93v2h103l-89 -349q-13 -48 -0.5 -72.5t42.5 -24.5q53 0 112.5 79t108.5 210l16 61q21 74 -31 94v2h105l-96 -367q-12 -39 -8.5 -62t33.5 -35v-1l-106 -19zM202 631q0 37 23.5 61
t60.5 24t60.5 -24t23.5 -61t-23.5 -60t-60.5 -23t-60.5 23t-23.5 60zM230 631q0 -31 14.5 -48.5t41.5 -17.5t41.5 17.5t14.5 48.5q0 68 -56 68t-56 -68z" />
    <glyph glyph-name="Uhungarumlaut" unicode="&#x170;" horiz-adv-x="542" 
d="M252 -15q-92 0 -149 61t-35 180l68 375q13 77 -6 129v2h101v-2q-28 -45 -42 -130l-67 -371q-20 -111 21 -166.5t116 -55.5q78 0 121.5 55t57.5 135l70 371q11 52 9 84t-23 78v2h102v-2q-32 -45 -43 -75t-22 -87l-70 -371q-8 -41 -22 -76t-38 -67t-62 -50.5t-87 -18.5z
M538 949l44 -50l-162 -117l-4 4zM375 949l44 -50l-162 -117l-4 4z" />
    <glyph glyph-name="uhungarumlaut" unicode="&#x171;" horiz-adv-x="444" 
d="M317 204q-43 -96 -98.5 -157.5t-111.5 -61.5q-44 0 -66.5 36t-4.5 106l66 253q18 74 -32 93v2h103l-89 -349q-13 -48 -0.5 -72.5t42.5 -24.5q53 0 112.5 79t108.5 210l16 61q21 74 -31 94v2h105l-96 -367q-12 -39 -8.5 -62t33.5 -35v-1l-106 -19zM443 729l41 -31
l-141 -157l-7 5zM304 729l41 -31l-141 -157l-7 5z" />
    <glyph glyph-name="Uogonek" unicode="&#x172;" horiz-adv-x="542" 
d="M214 -245q-34 0 -53.5 19t-19.5 54q0 98 115 157h-10q-89 0 -144 61.5t-34 179.5l68 375q13 77 -6 129v2h101v-2q-28 -45 -42 -130l-67 -371q-20 -111 21 -166.5t116 -55.5q78 0 121.5 55t57.5 135l70 371q11 52 9 84t-23 78v2h102v-2q-32 -45 -43 -75t-22 -87l-70 -371
q-25 -142 -116 -191q-10 -6 -33.5 -13.5t-33.5 -12.5q-45 -23 -67 -58.5t-22 -73.5q0 -54 50 -54q52 0 89 58l6 -4q-50 -93 -120 -93z" />
    <glyph glyph-name="uogonek" unicode="&#x173;" horiz-adv-x="444" 
d="M205 -245q-34 0 -53.5 19t-19.5 54q0 52 36.5 97t93.5 71l55 210q-44 -98 -98.5 -159.5t-111.5 -61.5q-44 0 -66.5 36t-4.5 106l66 253q18 74 -32 93v2h103l-89 -349q-12 -49 0 -73t42 -24q53 0 112.5 79.5t108.5 210.5l16 60q21 74 -31 94v2h105l-96 -367
q-12 -39 -8.5 -62t33.5 -35v-1q-45 -5 -74 -15q-48 -18 -80 -61.5t-32 -88.5q0 -51 50 -51q52 0 89 58l6 -4q-50 -93 -120 -93z" />
    <glyph glyph-name="Wcircumflex" unicode="&#x174;" horiz-adv-x="730" 
d="M153 -8l-33 584q-3 68 -10.5 98.5t-21.5 55.5v2h113v-2q-35 -50 -29 -155l26 -476l213 476v1q-5 100 -34 154v2h116v-2q-36 -52 -30 -155l26 -477l212 479q20 44 25 78t1.5 46.5t-11.5 28.5v2h107v-2q-31 -25 -48 -50t-48 -97l-263 -591h-20l-30 536l-241 -536h-20z
M486 875l-166 -93l-4 7l177 156h4l110 -156l-7 -7z" />
    <glyph glyph-name="wcircumflex" unicode="&#x175;" horiz-adv-x="526" 
d="M95 -5l-12 358q-2 55 -9.5 77t-33.5 43v2h90l12 -380l138 235v23q0 53 -8 75.5t-35 44.5v2h90l5 -378l122 217q26 45 35.5 72.5t4 49t-30.5 37.5v2h103v-2l-271 -478h-10l-4 298l-176 -298h-10zM340 646l-144 -106l-5 6l157 173h3l88 -173l-8 -6z" />
    <glyph glyph-name="Ycircumflex" unicode="&#x176;" horiz-adv-x="466" 
d="M128 2q26 38 37.5 67.5t21.5 80.5l34 188l-66 266q-13 52 -25.5 80t-32.5 46v2h123v-2q-30 -35 -10 -119l58 -249l138 228q54 88 15 140v2h114v-2q-62 -68 -96 -124l-166 -273l-32 -183q-10 -51 -8 -80.5t16 -67.5l-1 -2h-120v2zM351 875l-166 -93l-4 7l177 156h4
l110 -156l-7 -7z" />
    <glyph glyph-name="ycircumflex" unicode="&#x177;" horiz-adv-x="362" 
d="M-89 -157q59 0 104.5 29.5t100.5 127.5l-30 353q-6 64 -12.5 82.5t-30.5 37.5v2h85l32 -394l121 233q25 47 34 73t4 48t-29 38v2h102v-2l-254 -473q-36 -71 -69.5 -116.5t-64.5 -67.5t-53.5 -29.5t-53.5 -11.5zM263 646l-144 -106l-5 6l157 173h3l88 -173l-8 -6z" />
    <glyph glyph-name="Ydieresis" unicode="&#x178;" horiz-adv-x="466" 
d="M128 2q26 38 37.5 67.5t21.5 80.5l34 188l-66 266q-13 52 -25.5 80t-32.5 46v2h123v-2q-30 -35 -10 -119l58 -249l138 228q54 88 15 140v2h114v-2q-62 -68 -96 -124l-166 -273l-32 -183q-10 -51 -8 -80.5t16 -67.5l-1 -2h-120v2zM475 868q0 -17 -12 -29t-29 -12t-29 12
t-12 29t12 29t29 12t29 -12t12 -29zM283 868q0 -17 -12 -29t-29 -12t-29 12t-12 29t12 29t29 12t29 -12t12 -29z" />
    <glyph glyph-name="Zacute" unicode="&#x179;" horiz-adv-x="476" 
d="M-17 0v11l483 703l-160 -5q-27 -1 -47.5 -7t-34.5 -12.5t-34 -29.5t-32 -38t-43 -59l-8 3l61 166h364v-11l-482 -705l179 8q67 4 103 34.5t102 132.5l8 -3l-70 -188h-389zM474 959l31 -57l-251 -120l-4 7z" />
    <glyph glyph-name="zacute" unicode="&#x17a;" horiz-adv-x="370" 
d="M-15 0v7l329 451l-94 -3q-39 -2 -72 -21t-79 -63l-4 2l49 102h266v-9l-329 -451l130 4q46 2 79 23t81 69l4 -2l-62 -109h-298zM352 749l42 -44l-195 -172l-5 6z" />
    <glyph glyph-name="Zdotaccent" unicode="&#x17b;" horiz-adv-x="476" 
d="M-17 0v11l483 703l-160 -5q-27 -1 -47.5 -7t-34.5 -12.5t-34 -29.5t-32 -38t-43 -59l-8 3l61 166h364v-11l-482 -705l179 8q67 4 103 34.5t102 132.5l8 -3l-70 -188h-389zM392 868q0 -17 -12 -29t-29 -12t-29 12t-12 29t12 29t29 12t29 -12t12 -29z" />
    <glyph glyph-name="zdotaccent" unicode="&#x17c;" horiz-adv-x="370" 
d="M-15 0v7l329 451l-94 -3q-39 -2 -72 -21t-79 -63l-4 2l49 102h266v-9l-329 -451l130 4q46 2 79 23t81 69l4 -2l-62 -109h-298zM292 659q0 -17 -12 -29t-29 -12t-29 12t-12 29t12 29t29 12t29 -12t12 -29z" />
    <glyph glyph-name="Zcaron" unicode="&#x17d;" horiz-adv-x="476" 
d="M-17 0v11l483 703l-160 -5q-27 -1 -47.5 -7t-34.5 -12.5t-34 -29.5t-32 -38t-43 -59l-8 3l61 166h364v-11l-482 -705l179 8q67 4 103 34.5t102 132.5l8 -3l-70 -188h-389zM349 782l-110 156l7 7l114 -93l166 93l4 -7l-177 -156h-4z" />
    <glyph glyph-name="zcaron" unicode="&#x17e;" horiz-adv-x="370" 
d="M-15 0v7l329 451l-94 -3q-39 -2 -72 -21t-79 -63l-4 2l49 102h266v-9l-329 -451l130 4q46 2 79 23t81 69l4 -2l-62 -109h-298zM244 540l-88 173l8 6l91 -106l144 106l5 -6l-157 -173h-3z" />
    <glyph glyph-name="uni0192" unicode="&#x192;" horiz-adv-x="436" 
d="M-12 -190q-40 0 -57 10l-9 124l8 2q42 -87 56 -103q12 -13 25 -13q23 0 40.5 39t47.5 140l106 358h-80l5 20h81l36 122q36 122 73.5 180t98.5 58q40 0 57 -10l9 -124l-8 -2q-42 87 -56 103q-12 13 -25 13q-23 0 -40 -38t-47 -138l-50 -164h99l-4 -20h-101l-98 -319
q-16 -52 -26.5 -81t-26 -63.5t-30.5 -52t-36.5 -29.5t-47.5 -12z" />
    <glyph glyph-name="Aringacute" unicode="&#x1fa;" horiz-adv-x="465" 
d="M299 646l-160 -350h191zM68 0h-122v2q34 27 53 54.5t48 88.5l276 594h19l56 -617q3 -49 12 -71.5t30 -48.5v-2h-129v2q41 37 34 125l-13 149h-202l-57 -124q-20 -46 -20.5 -88t15.5 -62v-2zM255 865q0 37 23.5 61t60.5 24t60.5 -24t23.5 -61t-23.5 -60t-60.5 -23
t-60.5 23t-23.5 60zM283 865q0 -31 14.5 -48.5t41.5 -17.5t41.5 17.5t14.5 48.5q0 68 -56 68t-56 -68zM465 1150l31 -57l-251 -120l-4 7z" />
    <glyph glyph-name="aringacute" unicode="&#x1fb;" horiz-adv-x="437" 
d="M130 29q29 0 58.5 24t57.5 69.5t45.5 81l41.5 88.5l37 140q-22 35 -72 35q-59 0 -112 -54.5t-82 -133t-29 -153.5q0 -97 55 -97zM312 202q-43 -98 -96 -157.5t-112 -59.5q-39 0 -61.5 32t-22.5 94q0 93 43 181t114.5 143t149.5 55q46 0 79 -18l24 18h4l-100 -382
q-12 -39 -8.5 -62t33.5 -35v-1l-105 -19zM203 631q0 37 23.5 61t60.5 24t60.5 -24t23.5 -61t-23.5 -60t-60.5 -23t-60.5 23t-23.5 60zM231 631q0 -31 14.5 -48.5t41.5 -17.5t41.5 17.5t14.5 48.5q0 68 -56 68t-56 -68zM447 929l31 -57l-251 -120l-4 7z" />
    <glyph glyph-name="AEacute" unicode="&#x1fc;" horiz-adv-x="806" 
d="M465 630q3 14 5 38l-233 -372h168zM108 0h-118v2q41 27 65 54.5t63 88.5l348 555q-6 17 -22 30v2h336l11 -145l-8 -2q-32 69 -56 96t-61 27l-132 4l-60 -334h97q9 0 18 4t15.5 9t15.5 16l14 17t15 20t13 19h8l-29 -185h-8q-12 30 -18 43t-18 25t-29 12h-98l-61 -340
l162 5q14 0 26 2t24 7t20 8t20 13.5l17.5 15t19.5 20t19 21.5l22 26.5t23 28.5l8 -3l-60 -162h-376v2q22 35 42 130l26 144h-177l-84 -134q-56 -89 -33 -140v-2zM733 959l31 -57l-251 -120l-4 7z" />
    <glyph glyph-name="aeacute" unicode="&#x1fd;" horiz-adv-x="640" 
d="M549 472q-50 0 -98 -44t-74 -116q225 22 225 112q0 48 -53 48zM126 29q33 0 71 42t66 93.5t54 113.5q23 65 65 115q-22 74 -88 74q-54 0 -105.5 -54.5t-82.5 -133.5t-31 -153q0 -97 51 -97zM586 105q-25 -55 -67.5 -87.5t-92.5 -32.5q-60 0 -95 46.5t-35 125.5q0 11 2 35
q-43 -92 -94.5 -149.5t-102.5 -57.5q-37 0 -59 32t-22 94q0 92 43.5 180.5t113.5 143.5t142 55q67 0 105 -55q63 55 138 55q39 0 63.5 -16.5t24.5 -50.5q0 -54 -66 -89.5t-211 -33.5q-19 -59 -19 -124q0 -151 97 -151q68 0 125 85zM523 749l42 -44l-195 -172l-5 6z" />
    <glyph glyph-name="Oslashacute" unicode="&#x1fe;" horiz-adv-x="662" 
d="M117 276q0 -106 35 -175l391 553q-48 73 -136 73t-155.5 -65t-101 -166.5t-33.5 -219.5zM301 5q88 0 155.5 65t101 166.5t33.5 219.5q0 107 -35 176l-392 -553q49 -74 137 -74zM294 -15q-87 0 -152 63l-54 -77h-28l66 94q-73 87 -73 230q0 119 49 223t132.5 166.5
t179.5 62.5q87 0 151 -62l55 77h28l-67 -94q74 -88 74 -231q0 -119 -49 -223t-132.5 -166.5t-179.5 -62.5zM551 959l31 -57l-251 -120l-4 7z" />
    <glyph glyph-name="oslashacute" unicode="&#x1ff;" horiz-adv-x="410" 
d="M390 316q0 -81 -32.5 -158t-87.5 -125t-114 -48q-53 0 -88 35l-60 -87h-27l72 105q-33 46 -33 121q0 81 32.5 158t87.5 125t114 48q52 0 87 -35l61 89h27l-73 -106q34 -50 34 -122zM332 324q0 40 -6 70l-235 -340q19 -51 69 -51q69 0 120.5 91t51.5 230zM78 151
q0 -44 5 -69l235 340q-20 50 -68 50q-69 0 -120.5 -91t-51.5 -230zM348 749l42 -44l-195 -172l-5 6z" />
    <glyph glyph-name="uni0218" unicode="&#x218;" horiz-adv-x="438" 
d="M450 565l-9 -2q-24 93 -61 128.5t-86 35.5q-56 0 -90.5 -37t-34.5 -95q0 -37 18 -74t36 -58.5t54 -58.5q36 -39 54 -62t36 -65.5t18 -87.5q0 -96 -59.5 -150t-150.5 -54q-89 0 -164 46l-7 158l8 2q32 -105 75.5 -145.5t102.5 -40.5q67 0 107 48.5t40 117.5q0 31 -8 57.5
t-27 53.5t-31.5 41.5t-40.5 44.5q-34 35 -53 59t-36.5 63t-17.5 80q0 86 55 131.5t131 45.5q79 0 134 -36zM93 -218q64 38 64 74q0 29 -33 58v2l41 34q36 -30 36 -61q0 -54 -104 -113z" />
    <glyph glyph-name="uni0219" unicode="&#x219;" horiz-adv-x="313" 
d="M293 375l-8 -2q-44 99 -104 99q-31 0 -49.5 -22t-18.5 -55q0 -28 15.5 -54t37.5 -48l44 -46t37.5 -57t15.5 -71q0 -64 -38.5 -99t-97.5 -35q-72 0 -116 38l-3 113l8 2q23 -67 55 -101t69 -34q36 0 59.5 26t23.5 67q0 30 -15 57.5t-37 49.5l-44 45t-37 54t-15 66
q0 59 36.5 90.5t90.5 31.5q52 0 88 -20zM29 -218q64 38 64 74q0 29 -33 58v2l41 34q36 -30 36 -61q0 -54 -104 -113z" />
    <glyph glyph-name="uni021A" unicode="&#x21a;" horiz-adv-x="556" 
d="M185 0v2q22 35 42 130l104 582l-93 -4q-43 -2 -71.5 -30.5t-92.5 -126.5l-8 4l60 175h470v-177l-8 -2q-27 91 -46.5 122.5t-47.5 33.5l-110 4l-104 -582q-14 -79 6 -129v-2h-101zM158 -218q64 38 64 74q0 29 -33 58v2l41 34q36 -30 36 -61q0 -54 -104 -113z" />
    <glyph glyph-name="uni021B" unicode="&#x21b;" horiz-adv-x="264" 
d="M89 -15q-28 0 -42.5 22t-4.5 71l82 379h-55v2l121 90h2l-16 -74h118l-4 -18h-118l-81 -377q-12 -54 22 -54q37 0 92 78l9 -6q-62 -113 -125 -113zM23 -218q64 38 64 74q0 29 -33 58v2l41 34q36 -30 36 -61q0 -54 -104 -113z" />
    <glyph glyph-name="uni0237" unicode="&#x237;" horiz-adv-x="187" 
d="M-59 -210q44 34 63 128l85 423q15 75 -18 119v2l104 33l-118 -547q-15 -70 -44.5 -112.5t-69.5 -50.5z" />
    <glyph glyph-name="circumflex" unicode="&#x2c6;" horiz-adv-x="428" 
d="M297 646l-144 -106l-5 6l157 173h3l88 -173l-8 -6z" />
    <glyph glyph-name="caron" unicode="&#x2c7;" horiz-adv-x="299" 
d="M201 540l-88 173l8 6l91 -106l144 106l5 -6l-157 -173h-3z" />
    <glyph glyph-name="breve" unicode="&#x2d8;" horiz-adv-x="428" 
d="M294 614q84 0 109 79h8q-5 -46 -36 -84t-88 -38q-56 0 -80 38t-19 84h8q11 -79 98 -79z" />
    <glyph glyph-name="dotaccent" unicode="&#x2d9;" horiz-adv-x="428" 
d="M335 659q0 -17 -12 -29t-29 -12t-29 12t-12 29t12 29t29 12t29 -12t12 -29z" />
    <glyph glyph-name="ring" unicode="&#x2da;" horiz-adv-x="300" 
d="M146 631q0 37 23.5 61t60.5 24t60.5 -24t23.5 -61t-23.5 -60t-60.5 -23t-60.5 23t-23.5 60zM174 631q0 -31 14.5 -48.5t41.5 -17.5t41.5 17.5t14.5 48.5q0 68 -56 68t-56 -68z" />
    <glyph glyph-name="ogonek" unicode="&#x2db;" horiz-adv-x="300" 
d="M168 1q-55 -29 -84.5 -72t-29.5 -83q0 -52 50 -52q52 0 89 58l6 -4q-23 -42 -50.5 -67.5t-69.5 -25.5q-34 0 -53.5 19t-19.5 54q0 50 38 96.5t101 76.5h23z" />
    <glyph glyph-name="tilde" unicode="&#x2dc;" horiz-adv-x="428" 
d="M243 678q24 0 60.5 -16.5t58.5 -16.5q39 0 63 47l7 -1q-9 -36 -31 -65.5t-64 -29.5q-24 0 -60.5 16.5t-58.5 16.5q-39 0 -63 -47l-7 1q9 36 31 65.5t64 29.5z" />
    <glyph glyph-name="hungarumlaut" unicode="&#x2dd;" horiz-adv-x="427" 
d="M392 729l41 -31l-141 -157l-7 5zM253 729l41 -31l-141 -157l-7 5z" />
    <glyph glyph-name="Wgrave" unicode="&#x1e80;" horiz-adv-x="730" 
d="M153 -8l-33 584q-3 68 -10.5 98.5t-21.5 55.5v2h113v-2q-35 -50 -29 -155l26 -476l213 476v1q-5 100 -34 154v2h116v-2q-36 -52 -30 -155l26 -477l212 479q20 44 25 78t1.5 46.5t-11.5 28.5v2h107v-2q-31 -25 -48 -50t-48 -97l-263 -591h-20l-30 536l-241 -536h-20z
M553 782l-228 121l41 56l192 -170z" />
    <glyph glyph-name="wgrave" unicode="&#x1e81;" horiz-adv-x="526" 
d="M95 -5l-12 358q-2 55 -9.5 77t-33.5 43v2h90l12 -380l138 235v23q0 53 -8 75.5t-35 44.5v2h90l5 -378l122 217q26 45 35.5 72.5t4 49t-30.5 37.5v2h103v-2l-271 -478h-10l-4 298l-176 -298h-10zM349 533l-146 178l55 38l99 -210z" />
    <glyph glyph-name="Wacute" unicode="&#x1e82;" horiz-adv-x="730" 
d="M153 -8l-33 584q-3 68 -10.5 98.5t-21.5 55.5v2h113v-2q-35 -50 -29 -155l26 -476l213 476v1q-5 100 -34 154v2h116v-2q-36 -52 -30 -155l26 -477l212 479q20 44 25 78t1.5 46.5t-11.5 28.5v2h107v-2q-31 -25 -48 -50t-48 -97l-263 -591h-20l-30 536l-241 -536h-20z
M583 959l31 -57l-251 -120l-4 7z" />
    <glyph glyph-name="wacute" unicode="&#x1e83;" horiz-adv-x="526" 
d="M95 -5l-12 358q-2 55 -9.5 77t-33.5 43v2h90l12 -380l138 235v23q0 53 -8 75.5t-35 44.5v2h90l5 -378l122 217q26 45 35.5 72.5t4 49t-30.5 37.5v2h103v-2l-271 -478h-10l-4 298l-176 -298h-10zM407 749l42 -44l-195 -172l-5 6z" />
    <glyph glyph-name="Wdieresis" unicode="&#x1e84;" horiz-adv-x="730" 
d="M153 -8l-33 584q-3 68 -10.5 98.5t-21.5 55.5v2h113v-2q-35 -50 -29 -155l26 -476l213 476v1q-5 100 -34 154v2h116v-2q-36 -52 -30 -155l26 -477l212 479q20 44 25 78t1.5 46.5t-11.5 28.5v2h107v-2q-31 -25 -48 -50t-48 -97l-263 -591h-20l-30 536l-241 -536h-20z
M605 868q0 -17 -12 -29t-29 -12t-29 12t-12 29t12 29t29 12t29 -12t12 -29zM413 868q0 -17 -12 -29t-29 -12t-29 12t-12 29t12 29t29 12t29 -12t12 -29z" />
    <glyph glyph-name="wdieresis" unicode="&#x1e85;" horiz-adv-x="526" 
d="M95 -5l-12 358q-2 55 -9.5 77t-33.5 43v2h90l12 -380l138 235v23q0 53 -8 75.5t-35 44.5v2h90l5 -378l122 217q26 45 35.5 72.5t4 49t-30.5 37.5v2h103v-2l-271 -478h-10l-4 298l-176 -298h-10zM285 659q0 -17 -12 -29t-29 -12t-29 12t-12 29t12 29t29 12t29 -12t12 -29z
M457 659q0 -17 -12 -29t-29 -12t-29 12t-12 29t12 29t29 12t29 -12t12 -29z" />
    <glyph glyph-name="Ygrave" unicode="&#x1ef2;" horiz-adv-x="466" 
d="M128 2q26 38 37.5 67.5t21.5 80.5l34 188l-66 266q-13 52 -25.5 80t-32.5 46v2h123v-2q-30 -35 -10 -119l58 -249l138 228q54 88 15 140v2h114v-2q-62 -68 -96 -124l-166 -273l-32 -183q-10 -51 -8 -80.5t16 -67.5l-1 -2h-120v2zM432 782l-228 121l41 56l192 -170z" />
    <glyph glyph-name="ygrave" unicode="&#x1ef3;" horiz-adv-x="362" 
d="M-89 -157q59 0 104.5 29.5t100.5 127.5l-30 353q-6 64 -12.5 82.5t-30.5 37.5v2h85l32 -394l121 233q25 47 34 73t4 48t-29 38v2h102v-2l-254 -473q-36 -71 -69.5 -116.5t-64.5 -67.5t-53.5 -29.5t-53.5 -11.5zM272 533l-146 178l55 38l99 -210z" />
    <glyph glyph-name="uni2009" unicode="&#x2009;" horiz-adv-x="100" 
 />
    <glyph glyph-name="endash" unicode="&#x2013;" horiz-adv-x="465" 
d="M45 271l2 18h398l-3 -18h-397z" />
    <glyph glyph-name="emdash" unicode="&#x2014;" horiz-adv-x="695" 
d="M45 271l2 18h628l-3 -18h-627z" />
    <glyph glyph-name="quoteleft" unicode="&#x2018;" horiz-adv-x="157" 
d="M222 749q-76 -55 -76 -102q0 -24 36 -60v-2l-47 -41q-35 28 -35 63q0 67 117 148z" />
    <glyph glyph-name="quoteright" unicode="&#x2019;" horiz-adv-x="157" 
d="M88 550q76 55 76 102q0 24 -36 60v2l47 41q35 -28 35 -63q0 -67 -117 -148z" />
    <glyph glyph-name="quotesinglbase" unicode="&#x201a;" horiz-adv-x="157" 
d="M-27 -80q76 55 76 102q0 24 -36 60v2l47 41q35 -28 35 -63q0 -67 -117 -148z" />
    <glyph glyph-name="quotedblleft" unicode="&#x201c;" horiz-adv-x="292" 
d="M357 749q-76 -55 -76 -102q0 -24 36 -60v-2l-47 -41q-35 28 -35 63q0 67 117 148zM222 749q-76 -55 -76 -102q0 -24 36 -60v-2l-47 -41q-35 28 -35 63q0 67 117 148z" />
    <glyph glyph-name="quotedblright" unicode="&#x201d;" horiz-adv-x="292" 
d="M88 550q76 55 76 102q0 24 -36 60v2l47 41q35 -28 35 -63q0 -67 -117 -148zM223 550q76 55 76 102q0 24 -36 60v2l47 41q35 -28 35 -63q0 -67 -117 -148z" />
    <glyph glyph-name="quotedblbase" unicode="&#x201e;" horiz-adv-x="292" 
d="M-27 -80q76 55 76 102q0 24 -36 60v2l47 41q35 -28 35 -63q0 -67 -117 -148zM108 -80q76 55 76 102q0 24 -36 60v2l47 41q35 -28 35 -63q0 -67 -117 -148z" />
    <glyph glyph-name="dagger" unicode="&#x2020;" horiz-adv-x="398" 
d="M155 0h-18l30 272l66 246l-167 -23l11 58l158 -23l10 202h64l-62 -202l166 23l-11 -58l-158 23l-23 -256z" />
    <glyph glyph-name="daggerdbl" unicode="&#x2021;" horiz-adv-x="398" 
d="M188 202l-10 -202h-64l62 202l-166 -23l11 58l157 -23l6 154l49 150l-167 -23l11 58l158 -23l10 202h64l-62 -202l166 23l-11 -58l-157 23l-10 -158l-45 -146l167 23l-11 -58z" />
    <glyph glyph-name="bullet" unicode="&#x2022;" horiz-adv-x="228" 
d="M123 211q-30 0 -52 22.5t-22 51.5q0 32 21.5 54t52.5 22q30 0 52 -22t22 -54q0 -29 -22 -51.5t-52 -22.5z" />
    <glyph glyph-name="ellipsis" unicode="&#x2026;" horiz-adv-x="669" 
d="M82 -3q-19 0 -33 13.5t-14 33.5t14 33.5t33 13.5q20 0 33.5 -13.5t13.5 -33.5t-13.5 -33.5t-33.5 -13.5zM312 -3q-19 0 -33 13.5t-14 33.5t14 33.5t33 13.5q20 0 33.5 -13.5t13.5 -33.5t-13.5 -33.5t-33.5 -13.5zM542 -3q-19 0 -33 13.5t-14 33.5t14 33.5t33 13.5
q20 0 33.5 -13.5t13.5 -33.5t-13.5 -33.5t-33.5 -13.5z" />
    <glyph glyph-name="perthousand" unicode="&#x2030;" horiz-adv-x="1033" 
d="M366 598q0 -101 -54 -176.5t-121 -75.5q-48 0 -77 40.5t-29 108.5q0 100 54.5 176t120.5 76q49 0 77.5 -40.5t28.5 -108.5zM192 357q55 0 88.5 88.5t33.5 192.5q0 98 -54 98q-37 0 -66 -45t-42.5 -108t-13.5 -128q0 -98 54 -98zM111 14l521 729l17 -11l-522 -731z
M670 244q0 -101 -54 -176.5t-121 -75.5q-48 0 -77 40.5t-29 108.5q0 100 54.5 176t120.5 76q49 0 77.5 -40.5t28.5 -108.5zM496 3q55 0 88.5 88.5t33.5 192.5q0 98 -54 98q-37 0 -66 -45t-42.5 -108t-13.5 -128q0 -98 54 -98zM993 244q0 -101 -54 -176.5t-121 -75.5
q-48 0 -77 40.5t-29 108.5q0 100 54.5 176t120.5 76q49 0 77.5 -40.5t28.5 -108.5zM819 3q55 0 88.5 88.5t33.5 192.5q0 98 -54 98q-37 0 -66 -45t-42.5 -108t-13.5 -128q0 -98 54 -98z" />
    <glyph glyph-name="guilsinglleft" unicode="&#x2039;" horiz-adv-x="217" 
d="M142 52l-101 175l5 20l175 175l6 -6l-129 -182l53 -176z" />
    <glyph glyph-name="guilsinglright" unicode="&#x203a;" horiz-adv-x="217" 
d="M81 422l101 -175l-5 -20l-175 -175l-6 6l129 182l-53 176z" />
    <glyph glyph-name="fraction" unicode="&#x2044;" horiz-adv-x="263" 
d="M-117 14l521 729l17 -11l-522 -731z" />
    <glyph glyph-name="Euro" unicode="&#x20ac;" horiz-adv-x="598" 
d="M525 53q-22 -22 -79.5 -45t-122.5 -23q-116 0 -177 82t-63 224h-85l4 18h81q1 56 13 114h-71l5 18h71q33 132 120.5 219t198.5 87q54 0 104 -18.5t72 -34.5l10 -129l-8 -2q-70 164 -187 164q-90 0 -155 -80t-92 -206h211l-5 -18h-210q-10 -55 -12 -114h199l-4 -18h-196
v-10q0 -121 46 -198.5t130 -77.5q66 0 118.5 48.5t113.5 147.5l10 -2z" />
    <glyph glyph-name="trademark" unicode="&#x2122;" horiz-adv-x="651" 
d="M356 403h-51v2q22 31 29 73l35 191q4 21 2 33t-14 29v1h62l42 -249l129 249h61v-1q-23 -18 -29 -48l-5 -25l-35 -196q-7 -37 3 -57v-2h-66v2q12 16 19 57l38 212l-137 -262h-9l-45 265l-36 -199q-9 -39 7 -73v-2zM112 403v2q12 16 19 57l47 257l-35 -1q-16 -1 -33 -19.5
t-44 -60.5l-6 3l24 91h236v-93l-6 -1q-17 45 -27 62t-24 18l-42 2l-46 -258q-7 -38 3 -57v-2h-66z" />
    <glyph glyph-name="onethird" unicode="&#x2153;" horiz-adv-x="634" 
d="M191 433q-5 -28 -4 -43t9 -35v-1h-89v1q26 35 34 78l40 228h-38l1 5q51 28 96 78h5zM64 14l521 729l17 -11l-522 -731zM436 -8q-47 0 -72 18l-7 83l5 1q31 -91 80 -91q38 0 62.5 44t24.5 95q0 81 -61 81q-29 0 -59 -23l-4 6l141 131h-134l25 47h173l-1 -5l-163 -150
q15 7 35 7q40 0 69 -26.5t29 -75.5q0 -58 -39 -100t-104 -42z" />
    <glyph glyph-name="twothirds" unicode="&#x2154;" horiz-adv-x="652" 
d="M39 354l2 7q118 107 162.5 175t44.5 133q0 67 -47 67q-22 0 -43 -22.5t-48 -66.5l-5 2l25 83q36 15 75 15q46 0 70.5 -22t24.5 -63q0 -62 -47.5 -119.5t-157.5 -141.5h90q27 0 44.5 11t37.5 35l3 -2l-35 -91h-196zM87 14l521 729l17 -11l-522 -731zM454 -8q-47 0 -72 18
l-7 83l5 1q31 -91 80 -91q38 0 62.5 44t24.5 95q0 81 -61 81q-29 0 -59 -23l-4 6l141 131h-134l25 47h173l-1 -5l-163 -150q15 7 35 7q40 0 69 -26.5t29 -75.5q0 -58 -39 -100t-104 -42z" />
    <glyph glyph-name="oneeighth" unicode="&#x215b;" horiz-adv-x="637" 
d="M201 433q-5 -28 -4 -43t9 -35v-1h-89v1q26 35 34 78l40 228h-38l1 5q51 28 96 78h5zM64 14l521 729l17 -11l-522 -731zM456 -8q-44 0 -72 23t-28 65q0 83 98 112q-24 22 -36 42t-12 50q0 47 31.5 77t76.5 30q38 0 60.5 -21.5t22.5 -56.5q0 -32 -20 -61t-65 -41
q23 -21 33 -31t21.5 -31.5t11.5 -45.5q0 -51 -36 -81t-86 -30zM459 3q32 0 54 21.5t22 53.5q0 21 -13.5 43t-23 31l-34.5 32l-5 4q-67 -40 -67 -108q0 -36 18.5 -56.5t48.5 -20.5zM507 216q52 37 52 102q0 62 -50 62q-27 0 -45 -18.5t-18 -47.5t15 -50t45 -47z" />
    <glyph glyph-name="threeeighths" unicode="&#x215c;" horiz-adv-x="645" 
d="M140 346q-47 0 -72 18l-7 83l5 1q31 -91 80 -91q38 0 62.5 44t24.5 95q0 81 -61 81q-29 0 -59 -23l-4 6l141 131h-134l25 47h173l-1 -5l-163 -150q15 7 35 7q40 0 69 -26.5t29 -75.5q0 -58 -39 -100t-104 -42zM72 14l521 729l17 -11l-522 -731zM464 -8q-44 0 -72 23
t-28 65q0 83 98 112q-24 22 -36 42t-12 50q0 47 31.5 77t76.5 30q38 0 60.5 -21.5t22.5 -56.5q0 -32 -20 -61t-65 -41q23 -21 33 -31t21.5 -31.5t11.5 -45.5q0 -51 -36 -81t-86 -30zM467 3q32 0 54 21.5t22 53.5q0 21 -13.5 43t-23 31l-34.5 32l-5 4q-67 -40 -67 -108
q0 -36 18.5 -56.5t48.5 -20.5zM515 216q52 37 52 102q0 62 -50 62q-27 0 -45 -18.5t-18 -47.5t15 -50t45 -47z" />
    <glyph glyph-name="fiveeighths" unicode="&#x215d;" horiz-adv-x="642" 
d="M135 346q-46 0 -71 18l-7 83l5 1q31 -91 80 -91q37 0 60.5 42.5t23.5 99.5q0 89 -65 89q-31 0 -62 -23l-3 3l52 171h157l-15 -47h-144l-35 -109q25 17 65 17q47 0 74.5 -26t27.5 -79q0 -64 -39.5 -106.5t-103.5 -42.5zM69 14l521 729l17 -11l-522 -731zM461 -8
q-44 0 -72 23t-28 65q0 83 98 112q-24 22 -36 42t-12 50q0 47 31.5 77t76.5 30q38 0 60.5 -21.5t22.5 -56.5q0 -32 -20 -61t-65 -41q23 -21 33 -31t21.5 -31.5t11.5 -45.5q0 -51 -36 -81t-86 -30zM464 3q32 0 54 21.5t22 53.5q0 21 -13.5 43t-23 31l-34.5 32l-5 4
q-67 -40 -67 -108q0 -36 18.5 -56.5t48.5 -20.5zM512 216q52 37 52 102q0 62 -50 62q-27 0 -45 -18.5t-18 -47.5t15 -50t45 -47z" />
    <glyph glyph-name="seveneighths" unicode="&#x215e;" horiz-adv-x="648" 
d="M139 354q67 165 202 338h-177l17 47h197v-5q-129 -193 -186 -380h-53zM75 14l521 729l17 -11l-522 -731zM467 -8q-44 0 -72 23t-28 65q0 83 98 112q-24 22 -36 42t-12 50q0 47 31.5 77t76.5 30q38 0 60.5 -21.5t22.5 -56.5q0 -32 -20 -61t-65 -41q23 -21 33 -31
t21.5 -31.5t11.5 -45.5q0 -51 -36 -81t-86 -30zM470 3q32 0 54 21.5t22 53.5q0 21 -13.5 43t-23 31l-34.5 32l-5 4q-67 -40 -67 -108q0 -36 18.5 -56.5t48.5 -20.5zM518 216q52 37 52 102q0 62 -50 62q-27 0 -45 -18.5t-18 -47.5t15 -50t45 -47z" />
    <glyph glyph-name="minus" unicode="&#x2212;" horiz-adv-x="532" 
d="M65 298v20h442v-20h-442z" />
    <glyph glyph-name="uni24C5" unicode="&#x24c5;" horiz-adv-x="848" 
d="M55 367q0 159 111 269.5t270 110.5t270.5 -110.5t111.5 -269.5t-111.5 -270t-270.5 -111t-270 111t-111 270zM80 367q0 -150 104 -255.5t252 -105.5t252 105.5t104 255.5t-104 255t-252 105t-252 -105t-104 -255zM323 155q14 17 18 28.5t4 35.5v271q0 24 -4 35.5
t-18 28.5v2h130q123 0 123 -112q0 -60 -34.5 -93t-97.5 -33h-64v-99q0 -24 3.5 -35.5t17.5 -28.5v-2h-78v2zM444 539h-22q-23 0 -42 -1v-202h64q48 0 71.5 29.5t23.5 78.5q0 95 -95 95z" />
    <glyph glyph-name="f.alt" unicode="&#xe4c5;" horiz-adv-x="257" 
d="M23 2q5 8 9.5 17t7.5 16t7 19t5.5 17.5l5.5 21t5 20.5t5.5 25t5.5 25l64 294h-56l4 18h55l22 100q22 104 67 154t104 50q28 0 60 -17l7 -91l-4 -1q-27 47 -46.5 67.5t-43.5 20.5q-27 0 -49.5 -36t-42.5 -131l-25 -116h100l-4 -18h-99l-62 -291q-15 -71 -17.5 -102
t5.5 -62v-2h-90v2z" />
    <glyph glyph-name="k.alt" unicode="&#xe4ca;" horiz-adv-x="407" 
d="M5 0v2q5 7 8.5 13.5t7.5 15.5l6.5 14.5t5.5 17t4.5 16.5t5 19.5t4.5 19.5l4.5 22.5l4.5 22.5l97 462q10 48 6 72.5t-24 46.5v2l100 33l-130 -614q-15 -71 -17.5 -101.5t5.5 -61.5v-2h-88zM301 -5q-50 0 -98 87q-36 70 -69 164l145 145q53 53 28 82v2h120v-2
q-42 -16 -80 -48t-166 -160q31 -87 65 -153q23 -41 39 -56t35 -15q23 0 42 19l3 -2q-18 -63 -64 -63z" />
    <glyph glyph-name="v.alt" unicode="&#xe4d5;" horiz-adv-x="369" 
d="M82 112q-22 -89 35 -89q62 0 121 95q35 53 65.5 134.5t30.5 139.5q0 59 -38 81v2h93v-2q-17 -106 -56 -209t-83 -168q-74 -111 -152 -111q-40 0 -61 33t-6 88l70 274q16 74 -32 93v2h105z" />
    <glyph glyph-name="w.alt" unicode="&#xe4d6;" horiz-adv-x="580" 
d="M316 -15q-43 0 -62 31.5t-4 89.5l9 34q-30 -54 -31 -56q-61 -99 -133 -99q-43 0 -61 31.5t-3 89.5l70 274q16 74 -32 93v2h105l-92 -363q-23 -89 33 -89q53 0 104 84q52 86 94 246l7 27q16 74 -32 93v2h105l-92 -363q-23 -89 34 -89q55 0 111 89q37 62 67 142.5t30 137.5
q0 59 -38 81v2h93v-2q-17 -106 -56 -209t-85 -174q-67 -105 -141 -105z" />
    <glyph glyph-name="x.alt" unicode="&#xe4d7;" horiz-adv-x="379" 
d="M135 124q-36 -70 -69.5 -99.5t-90.5 -29.5l9 50q45 0 78.5 24.5t62.5 77.5l47 94l-30 117q-13 51 -27 76t-40 39v2h88l52 -204l50 100q27 58 60 83.5t84 25.5l-9 -50q-87 0 -125 -82l-53 -105l32 -126q13 -51 27 -76t40 -39v-2h-86l-55 213z" />
    <glyph glyph-name="y.alt" unicode="&#xe4d8;" horiz-adv-x="362" 
d="M-93 -177q49 -2 104 22.5t103 78.5q-1 225 -20 387q-8 75 -22.5 110t-43.5 52v2h90q14 -34 32 -164q15 -111 15 -316q62 98 103.5 201t41.5 186q0 61 -44 91v2h106v-2q-32 -210 -158 -435q-64 -111 -140.5 -186t-188.5 -97z" />
    <glyph glyph-name="z.alt" unicode="&#xe4d9;" horiz-adv-x="360" 
d="M-20 0l2 7l343 424l-138 -2q-31 0 -53.5 -13t-57.5 -45l-4 2l39 102h274l-3 -9l-344 -425l166 4q38 1 62 15.5t58 50.5l4 -2l-52 -109h-296z" />
    <glyph glyph-name="idotaccent" 
d="M216 659q0 -17 -12 -29t-29 -12t-29 12t-12 29t12 29t29 12t29 -12t12 -29zM7 2q5 7 8.5 13.5t7.5 15.5l6.5 14.5t5.5 17t4.5 16.5t5 19.5t4.5 19.5l4.5 22.5l4.5 22.5l35 178q15 75 -18 119v2l96 33l-73 -372q-16 -76 -3 -121v-2h-88v2z" />
    <glyph glyph-name="space_uni0326" horiz-adv-x="300" 
d="M51 -218q64 38 64 74q0 29 -33 58v2l41 34q36 -30 36 -61q0 -54 -104 -113z" />
    <glyph glyph-name="five.num" horiz-adv-x="238" 
d="M125 346q-46 0 -71 18l-7 83l5 1q31 -91 80 -91q37 0 60.5 42.5t23.5 99.5q0 89 -65 89q-31 0 -62 -23l-3 3l52 171h157l-15 -47h-144l-35 -109q25 17 65 17q47 0 74.5 -26t27.5 -79q0 -64 -39.5 -106.5t-103.5 -42.5z" />
    <glyph glyph-name="zero.num" horiz-adv-x="321" 
d="M356 598q0 -101 -54 -176.5t-121 -75.5q-48 0 -77 40.5t-29 108.5q0 100 54.5 176t120.5 76q49 0 77.5 -40.5t28.5 -108.5zM182 357q55 0 88.5 88.5t33.5 192.5q0 98 -54 98q-37 0 -66 -45t-42.5 -108t-13.5 -128q0 -98 54 -98z" />
    <glyph glyph-name="one.num" horiz-adv-x="156" 
d="M138 433q-5 -28 -4 -43t9 -35v-1h-89v1q26 35 34 78l40 228h-38l1 5q51 28 96 78h5z" />
    <glyph glyph-name="two.num" horiz-adv-x="256" 
d="M29 354l2 7q118 107 162.5 175t44.5 133q0 67 -47 67q-22 0 -43 -22.5t-48 -66.5l-5 2l25 83q36 15 75 15q46 0 70.5 -22t24.5 -63q0 -62 -47.5 -119.5t-157.5 -141.5h90q27 0 44.5 11t37.5 35l3 -2l-35 -91h-196z" />
    <glyph glyph-name="three.num" horiz-adv-x="253" 
d="M130 346q-47 0 -72 18l-7 83l5 1q31 -91 80 -91q38 0 62.5 44t24.5 95q0 81 -61 81q-29 0 -59 -23l-4 6l141 131h-134l25 47h173l-1 -5l-163 -150q15 7 35 7q40 0 69 -26.5t29 -75.5q0 -58 -39 -100t-104 -42z" />
    <glyph glyph-name="four.num" horiz-adv-x="248" 
d="M156 355q20 32 29 78l4 21h-141l1 7l190 278h57l-233 -273h128l23 129h49l-22 -129h37l-5 -12h-34l-4 -21q-5 -29 -5 -43.5t7 -34.5v-1h-82z" />
    <glyph glyph-name="six.num" horiz-adv-x="276" 
d="M163 346q-44 0 -68.5 32t-24.5 87q0 52 21 103.5t72.5 101.5t125.5 77l1 -5q-100 -52 -147 -176q29 44 74 44q39 0 61.5 -25.5t22.5 -72.5q0 -68 -42 -117t-96 -49zM164 357q34 0 59 48t25 109q0 75 -46 75q-43 0 -66 -46v1q-16 -51 -16 -104q0 -83 44 -83z" />
    <glyph glyph-name="seven.num" horiz-adv-x="219" 
d="M65 354q67 165 202 338h-177l17 47h197v-5q-129 -193 -186 -380h-53z" />
    <glyph glyph-name="eight.num" horiz-adv-x="271" 
d="M170 346q-44 0 -72 23t-28 65q0 83 98 112q-24 23 -36 42.5t-12 49.5q0 47 31.5 77t76.5 30q38 0 60.5 -21.5t22.5 -56.5q0 -32 -20 -61t-65 -41q23 -21 33 -31t21.5 -31.5t11.5 -45.5q0 -51 -36 -81t-86 -30zM173 357q32 0 54 21.5t22 53.5q0 21 -13.5 43t-23 31
l-34.5 32l-5 4q-67 -40 -67 -108q0 -36 18.5 -56.5t48.5 -20.5zM221 570q52 37 52 102q0 62 -50 62q-27 0 -45 -18.5t-18 -47.5t15 -50t45 -47z" />
    <glyph glyph-name="nine.num" horiz-adv-x="276" 
d="M101 351q99 51 146 176q-27 -44 -73 -44q-39 0 -61.5 25.5t-22.5 72.5q0 68 42 117t96 49q44 0 68.5 -32t24.5 -87q0 -81 -55 -161t-164 -121zM255 549q16 51 16 104q0 83 -44 83q-34 0 -59 -48t-25 -109q0 -75 46 -75q43 0 66 46v-1z" />
    <glyph glyph-name="five.den" horiz-adv-x="238" 
d="M60 -8q-46 0 -71 18l-7 83l5 1q31 -91 80 -91q37 0 60.5 42.5t23.5 99.5q0 89 -65 89q-31 0 -62 -23l-3 3l52 171h157l-15 -47h-144l-35 -109q25 17 65 17q47 0 74.5 -26t27.5 -79q0 -64 -39.5 -106.5t-103.5 -42.5z" />
    <glyph glyph-name="zero.den" horiz-adv-x="321" 
d="M291 244q0 -101 -54 -176.5t-121 -75.5q-48 0 -77 40.5t-29 108.5q0 100 54.5 176t120.5 76q49 0 77.5 -40.5t28.5 -108.5zM117 3q55 0 88.5 88.5t33.5 192.5q0 98 -54 98q-37 0 -66 -45t-42.5 -108t-13.5 -128q0 -98 54 -98z" />
    <glyph glyph-name="one.den" horiz-adv-x="156" 
d="M81 79q-5 -28 -4 -43t9 -35v-1h-89v1q26 35 34 78l40 228h-38l1 5q51 28 96 78h5z" />
    <glyph glyph-name="two.den" horiz-adv-x="256" 
d="M-36 0l2 7q118 107 162.5 175t44.5 133q0 67 -47 67q-22 0 -43 -22.5t-48 -66.5l-5 2l25 83q36 15 75 15q46 0 70.5 -22t24.5 -63q0 -62 -47.5 -119.5t-157.5 -141.5h90q27 0 44.5 11t37.5 35l3 -2l-35 -91h-196z" />
    <glyph glyph-name="three.den" horiz-adv-x="253" 
d="M65 -8q-47 0 -72 18l-7 83l5 1q31 -91 80 -91q38 0 62.5 44t24.5 95q0 81 -61 81q-29 0 -59 -23l-4 6l141 131h-134l25 47h173l-1 -5l-163 -150q15 7 35 7q40 0 69 -26.5t29 -75.5q0 -58 -39 -100t-104 -42z" />
    <glyph glyph-name="four.den" horiz-adv-x="248" 
d="M91 1q20 32 29 78l4 21h-141l1 7l190 278h57l-233 -273h128l23 129h49l-22 -129h37l-5 -12h-34l-4 -21q-5 -29 -5 -43.5t7 -34.5v-1h-82z" />
    <glyph glyph-name="six.den" horiz-adv-x="276" 
d="M98 -8q-44 0 -68.5 32t-24.5 87q0 52 21 103.5t72.5 101.5t125.5 77l1 -5q-100 -52 -147 -176q29 44 74 44q39 0 61.5 -25.5t22.5 -72.5q0 -68 -42 -117t-96 -49zM99 3q34 0 59 48t25 109q0 75 -46 75q-43 0 -66 -46v1q-16 -51 -16 -104q0 -83 44 -83z" />
    <glyph glyph-name="seven.den" horiz-adv-x="219" 
d="M0 0q67 165 202 338h-177l17 47h197v-5q-129 -193 -186 -380h-53z" />
    <glyph glyph-name="eight.den" horiz-adv-x="271" 
d="M105 -8q-44 0 -72 23t-28 65q0 83 98 112q-24 22 -36 42t-12 50q0 47 31.5 77t76.5 30q38 0 60.5 -21.5t22.5 -56.5q0 -32 -20 -61t-65 -41q23 -21 33 -31t21.5 -31.5t11.5 -45.5q0 -51 -36 -81t-86 -30zM108 3q32 0 54 21.5t22 53.5q0 21 -13.5 43t-23 31l-34.5 32l-5 4
q-67 -40 -67 -108q0 -36 18.5 -56.5t48.5 -20.5zM156 216q52 37 52 102q0 62 -50 62q-27 0 -45 -18.5t-18 -47.5t15 -50t45 -47z" />
    <glyph glyph-name="nine.den" horiz-adv-x="276" 
d="M36 -3q99 51 146 176q-28 -44 -73 -44q-39 0 -61.5 25.5t-22.5 72.5q0 68 42 117t96 49q44 0 68.5 -32t24.5 -87q0 -81 -55 -161t-164 -121zM190 195q16 51 16 104q0 83 -44 83q-34 0 -59 -48t-25 -109q0 -75 46 -75q43 0 66 46v-1z" />
    <glyph glyph-name="five.sub" horiz-adv-x="238" 
d="M48 -88q-46 0 -71 18l-7 83l5 1q31 -91 80 -91q37 0 60.5 42.5t23.5 99.5q0 89 -65 89q-31 0 -62 -23l-3 3l52 171h157l-15 -47h-144l-35 -109q25 17 65 17q47 0 74.5 -26t27.5 -79q0 -64 -39.5 -106.5t-103.5 -42.5z" />
    <glyph glyph-name="zero.sub" horiz-adv-x="321" 
d="M279 164q0 -101 -54 -176.5t-121 -75.5q-48 0 -77 40.5t-29 108.5q0 100 54.5 176t120.5 76q49 0 77.5 -40.5t28.5 -108.5zM105 -77q55 0 88.5 88.5t33.5 192.5q0 98 -54 98q-37 0 -66 -45t-42.5 -108t-13.5 -128q0 -98 54 -98z" />
    <glyph glyph-name="one.sub" horiz-adv-x="156" 
d="M69 -1q-5 -28 -4 -43t9 -35v-1h-89v1q26 35 34 78l40 228h-38l1 5q51 28 96 78h5z" />
    <glyph glyph-name="two.sub" horiz-adv-x="256" 
d="M-48 -80l2 7q118 107 162.5 175t44.5 133q0 67 -47 67q-22 0 -43 -22.5t-48 -66.5l-5 2l25 83q36 15 75 15q46 0 70.5 -22t24.5 -63q0 -62 -47.5 -119.5t-157.5 -141.5h90q27 0 44.5 11t37.5 35l3 -2l-35 -91h-196z" />
    <glyph glyph-name="three.sub" horiz-adv-x="253" 
d="M53 -88q-47 0 -72 18l-7 83l5 1q31 -91 80 -91q38 0 62.5 44t24.5 95q0 81 -61 81q-29 0 -59 -23l-4 6l141 131h-134l25 47h173l-1 -5l-163 -150q15 7 35 7q40 0 69 -26.5t29 -75.5q0 -58 -39 -100t-104 -42z" />
    <glyph glyph-name="four.sub" horiz-adv-x="248" 
d="M79 -79q20 32 29 78l4 21h-141l1 7l190 278h57l-233 -273h128l23 129h49l-22 -129h37l-5 -12h-34l-4 -21q-5 -29 -5 -43.5t7 -34.5v-1h-82z" />
    <glyph glyph-name="six.sub" horiz-adv-x="276" 
d="M86 -88q-44 0 -68.5 32t-24.5 87q0 52 21 103.5t72.5 101.5t125.5 77l1 -5q-100 -52 -147 -176q29 44 74 44q39 0 61.5 -25.5t22.5 -72.5q0 -68 -42 -117t-96 -49zM87 -77q34 0 59 48t25 109q0 75 -46 75q-43 0 -66 -46v1q-16 -51 -16 -104q0 -83 44 -83z" />
    <glyph glyph-name="seven.sub" horiz-adv-x="219" 
d="M-12 -80q67 165 202 338h-177l17 47h197v-5q-129 -193 -186 -380h-53z" />
    <glyph glyph-name="eight.sub" horiz-adv-x="271" 
d="M93 -88q-44 0 -72 23t-28 65q0 83 98 112q-24 22 -36 42t-12 50q0 47 31.5 77t76.5 30q38 0 60.5 -21.5t22.5 -56.5q0 -32 -20 -61t-65 -41q23 -21 33 -31t21.5 -31.5t11.5 -45.5q0 -51 -36 -81t-86 -30zM96 -77q32 0 54 21.5t22 53.5q0 21 -13.5 43t-23 31l-34.5 32
l-5 4q-67 -40 -67 -108q0 -36 18.5 -56.5t48.5 -20.5zM144 136q52 37 52 102q0 62 -50 62q-27 0 -45 -18.5t-18 -47.5t15 -50t45 -47z" />
    <glyph glyph-name="nine.sub" horiz-adv-x="276" 
d="M145 312q44 0 68.5 -31.5t24.5 -86.5q0 -52 -21 -103.5t-72.5 -101.5t-125.5 -77l-1 5q100 52 147 176q-29 -44 -74 -44q-39 0 -61.5 25.5t-22.5 72.5q0 68 42 116.5t96 48.5zM144 302q-34 0 -59 -48t-25 -109q0 -75 46 -75q43 0 66 46v-1q16 51 16 104q0 83 -44 83z" />
    <glyph glyph-name="plus.sub" horiz-adv-x="315" 
d="M147 106v-123h-20v123h-122v18h122v123h20v-123h123v-18h-123z" />
    <glyph glyph-name="minus.sub" horiz-adv-x="315" 
d="M5 106v18h265v-18h-265z" />
    <glyph glyph-name="five.sup" horiz-adv-x="238" 
d="M135 426q-46 0 -71 18l-7 83l5 1q31 -91 80 -91q37 0 60.5 42.5t23.5 99.5q0 89 -65 89q-31 0 -62 -23l-3 3l52 171h157l-15 -47h-144l-35 -109q25 17 65 17q47 0 74.5 -26t27.5 -79q0 -64 -39.5 -106.5t-103.5 -42.5z" />
    <glyph glyph-name="zero.sup" horiz-adv-x="321" 
d="M366 678q0 -101 -54 -176.5t-121 -75.5q-48 0 -77 40.5t-29 108.5q0 100 54.5 176t120.5 76q49 0 77.5 -40.5t28.5 -108.5zM192 437q55 0 88.5 88.5t33.5 192.5q0 98 -54 98q-37 0 -66 -45t-42.5 -108t-13.5 -128q0 -98 54 -98z" />
    <glyph glyph-name="one.sup" horiz-adv-x="156" 
d="M151 513q-5 -28 -4 -43t9 -35v-1h-89v1q26 35 34 78l40 228h-38l1 5q51 28 96 78h5z" />
    <glyph glyph-name="two.sup" horiz-adv-x="256" 
d="M39 434l2 7q118 107 162.5 175t44.5 133q0 67 -47 67q-22 0 -43 -22.5t-48 -66.5l-5 2l25 83q36 15 75 15q46 0 70.5 -22t24.5 -63q0 -62 -47.5 -119.5t-157.5 -141.5h90q27 0 44.5 11t37.5 35l3 -2l-35 -91h-196z" />
    <glyph glyph-name="three.sup" horiz-adv-x="253" 
d="M140 426q-47 0 -72 18l-7 83l5 1q31 -91 80 -91q38 0 62.5 44t24.5 95q0 81 -61 81q-29 0 -59 -23l-4 6l141 131h-134l25 47h173l-1 -5l-163 -150q15 7 35 7q40 0 69 -26.5t29 -75.5q0 -58 -39 -100t-104 -42z" />
    <glyph glyph-name="four.sup" horiz-adv-x="248" 
d="M166 435q20 32 29 78l4 21h-141l1 7l190 278h57l-233 -273h128l23 129h49l-22 -129h37l-5 -12h-34l-4 -21q-5 -29 -5 -43.5t7 -34.5v-1h-82z" />
    <glyph glyph-name="six.sup" horiz-adv-x="276" 
d="M173 426q-44 0 -68.5 32t-24.5 87q0 52 21 103.5t72.5 101.5t125.5 77l1 -5q-100 -52 -147 -176q29 44 74 44q39 0 61.5 -25.5t22.5 -72.5q0 -68 -42 -117t-96 -49zM174 437q34 0 59 48t25 109q0 75 -46 75q-43 0 -66 -46v1q-16 -51 -16 -104q0 -83 44 -83z" />
    <glyph glyph-name="seven.sup" horiz-adv-x="219" 
d="M75 434q67 165 202 338h-177l17 47h197v-5q-129 -193 -186 -380h-53z" />
    <glyph glyph-name="eight.sup" horiz-adv-x="271" 
d="M180 426q-44 0 -72 23t-28 65q0 83 98 112q-24 22 -36 42t-12 50q0 47 31.5 77t76.5 30q38 0 60.5 -21.5t22.5 -56.5q0 -32 -20 -61t-65 -41q23 -21 33 -31t21.5 -31.5t11.5 -45.5q0 -51 -36 -81t-86 -30zM183 437q32 0 54 21.5t22 53.5q0 21 -13.5 43t-23 31l-34.5 32
l-5 4q-67 -40 -67 -108q0 -36 18.5 -56.5t48.5 -20.5zM231 650q52 37 52 102q0 62 -50 62q-27 0 -45 -18.5t-18 -47.5t15 -50t45 -47z" />
    <glyph glyph-name="nine.sup" horiz-adv-x="276" 
d="M111 431q99 51 146 176q-27 -44 -73 -44q-39 0 -61.5 25.5t-22.5 72.5q0 68 42 117t96 49q44 0 68.5 -32t24.5 -87q0 -81 -55 -161t-164 -121zM265 629q16 51 16 104q0 83 -44 83q-34 0 -59 -48t-25 -109q0 -75 46 -75q43 0 66 46v-1z" />
    <glyph glyph-name="plus.sup" horiz-adv-x="315" 
d="M235 616v-123h-20v123h-122v18h122v123h20v-123h123v-18h-123z" />
    <glyph glyph-name="minus.sup" horiz-adv-x="315" 
d="M93 616v18h265v-18h-265z" />
    <glyph glyph-name="space_uni0326.alt" horiz-adv-x="300" 
d="M290 748q-64 -38 -64 -74q0 -29 33 -58v-2l-41 -34q-36 30 -36 61q0 54 104 113z" />
    <glyph glyph-name="caron.alt" horiz-adv-x="427" 
d="M228 775h66l-127 -203l-6 2z" />
    <glyph glyph-name="space.uc" horiz-adv-x="191" 
 />
    <glyph glyph-name="questiondown.uc" horiz-adv-x="370" 
d="M332 538q-15 -55 -50.5 -102t-74.5 -80.5l-76 -67.5t-61 -78t-24 -96q0 -111 99 -111q51 0 92 33t93 107l7 -3l-44 -123q-70 -32 -152 -32q-73 0 -113.5 33.5t-40.5 98.5q0 51 26.5 94.5t68 78l85.5 68.5t86 81t63 99h16zM350 735q19 0 33 -13.5t14 -33.5t-14 -33.5
t-33 -13.5q-20 0 -33.5 13.5t-13.5 33.5t13.5 33.5t33.5 13.5z" />
    <glyph glyph-name="exclamdown.uc" horiz-adv-x="200" 
d="M17 2l136 536h14l-90 -536l-1 -2h-59v2zM189 735q19 0 33 -13.5t14 -33.5t-14 -33.5t-33 -13.5q-20 0 -33.5 13.5t-13.5 33.5t13.5 33.5t33.5 13.5z" />
    <glyph glyph-name="hyphen.uc" horiz-adv-x="282" 
d="M55 363l8 40h214l-7 -40h-215z" />
    <glyph glyph-name="endash.uc" horiz-adv-x="465" 
d="M58 371l2 18h398l-3 -18h-397z" />
    <glyph glyph-name="emdash.uc" horiz-adv-x="695" 
d="M58 371l2 18h628l-3 -18h-627z" />
    <glyph glyph-name="guilsinglleft.uc" horiz-adv-x="239" 
d="M164 112l-101 175l5 20l175 175l6 -6l-129 -182l53 -176z" />
    <glyph glyph-name="guilsinglright.uc" horiz-adv-x="239" 
d="M94 482l101 -175l-5 -20l-175 -175l-6 6l129 182l-53 176z" />
    <glyph glyph-name="guillemotleft.uc" horiz-adv-x="357" 
d="M294 112l-101 175l5 20l175 175l6 -6l-129 -182l53 -176zM154 112l-101 175l5 20l175 175l6 -6l-129 -182l53 -176z" />
    <glyph glyph-name="guillemotright.uc" horiz-adv-x="357" 
d="M231 482l101 -175l-5 -20l-175 -175l-6 6l129 182l-53 176zM91 482l101 -175l-5 -20l-175 -175l-6 6l129 182l-53 176z" />
    <glyph glyph-name="parenleft.uc" horiz-adv-x="275" 
d="M178 -90q-43 46 -75.5 137.5t-32.5 204.5q0 329 279 543l8 -10q-243 -225 -243 -554q0 -101 21 -186t52 -126z" />
    <glyph glyph-name="parenright.uc" horiz-adv-x="275" 
d="M137 795q43 -46 75.5 -137.5t32.5 -204.5q0 -329 -279 -543l-8 10q243 225 243 554q0 101 -21 186t-52 126z" />
    <glyph glyph-name="bracketleft.uc" horiz-adv-x="295" 
d="M193 795h184l-4 -18h-144l-165 -849h145l-5 -18h-184z" />
    <glyph glyph-name="bracketright.uc" horiz-adv-x="295" 
d="M142 -90h-184l4 18h144l165 849h-145l5 18h184z" />
    <glyph glyph-name="braceleft.uc" horiz-adv-x="280" 
d="M153 -90q-58 0 -88.5 25.5t-30.5 68.5q0 38 25.5 83.5l51 92.5t25.5 90q0 40 -22.5 56.5t-67.5 16.5h-12l4 19h12q105 0 123 92q7 38 -4.5 112t-3.5 113q10 55 51 85.5t110 30.5h35l-3 -18h-35q-93 0 -114 -101q-8 -37 -4 -111.5t-2 -109.5q-9 -52 -39 -74t-75 -29l-1 -3
q78 -10 78 -79q0 -40 -42.5 -130t-42.5 -136q0 -40 21.5 -58t54.5 -18h35l-4 -18h-35z" />
    <glyph glyph-name="braceright.uc" horiz-adv-x="280" 
d="M167 795q58 0 88.5 -25.5t30.5 -68.5q0 -38 -25.5 -83.5l-51 -92.5t-25.5 -90q0 -40 22.5 -56.5t67.5 -16.5h12l-4 -19h-12q-105 0 -123 -92q-7 -38 4.5 -112t3.5 -113q-10 -55 -51 -85.5t-110 -30.5h-35l3 18h35q93 0 114 101q8 37 4 111.5t2 109.5q9 52 39 74t75 29
l1 3q-78 10 -78 79q0 40 42.5 130t42.5 136q0 40 -21.5 58t-54.5 18h-35l4 18h35z" />
    <glyph glyph-name="slash.uc" horiz-adv-x="358" 
d="M449 821h27l-535 -911h-27z" />
    <glyph glyph-name="backslash.uc" horiz-adv-x="358" 
d="M75 821l286 -911h-24l-286 911h24z" />
    <glyph glyph-name="bar.uc" horiz-adv-x="203" 
d="M115 -89v911h23v-911h-23z" />
    <glyph glyph-name="at.uc" horiz-adv-x="829" 
d="M428 -41q-164 0 -268.5 98t-104.5 262q0 181 124 309t317 128q151 0 239.5 -81.5t88.5 -226.5q0 -122 -61 -209t-158 -87q-73 0 -95 51t-2 122l7 26q-36 -89 -86 -148.5t-100 -59.5q-36 0 -56.5 27t-20.5 80q0 121 81 221.5t183 100.5q45 0 71 -17l28 17h4l-65 -244
q-22 -66 -10.5 -111.5t67.5 -45.5q80 0 129 79.5t49 193.5q0 139 -80.5 215.5t-215.5 76.5q-175 0 -284 -121.5t-109 -295.5q0 -157 91 -248.5t241 -91.5q128 0 214 60l8 -16q-89 -64 -226 -64zM351 182q25 0 50 20.5t48.5 59t39.5 70t35 75.5l29 113q-21 33 -61 33
q-75 0 -132.5 -95t-57.5 -195q0 -81 49 -81z" />
    <glyph glyph-name="grave.uc" horiz-adv-x="427" 
d="M404 782l-228 121l41 56l192 -170z" />
    <glyph glyph-name="dieresis.uc" horiz-adv-x="428" 
d="M460 868q0 -17 -12 -29t-29 -12t-29 12t-12 29t12 29t29 12t29 -12t12 -29zM268 868q0 -17 -12 -29t-29 -12t-29 12t-12 29t12 29t29 12t29 -12t12 -29z" />
    <glyph glyph-name="macron.uc" horiz-adv-x="298" 
d="M134 873h254l-7 -35h-254z" />
    <glyph glyph-name="acute.uc" horiz-adv-x="427" 
d="M410 959l31 -57l-251 -120l-4 7z" />
    <glyph glyph-name="circumflex.uc" horiz-adv-x="428" 
d="M341 875l-166 -93l-4 7l177 156h4l110 -156l-7 -7z" />
    <glyph glyph-name="caron.uc" horiz-adv-x="299" 
d="M255 782l-110 156l7 7l114 -93l166 93l4 -7l-177 -156h-4z" />
    <glyph glyph-name="breve.uc" horiz-adv-x="428" 
d="M325 846q95 0 128 81h7q-8 -49 -42 -88.5t-97 -39.5q-34 0 -58 13t-36 33t-16.5 41t-3.5 41h7q18 -81 111 -81z" />
    <glyph glyph-name="dotaccent.uc" horiz-adv-x="428" 
d="M364 868q0 -17 -12 -29t-29 -12t-29 12t-12 29t12 29t29 12t29 -12t12 -29z" />
    <glyph glyph-name="ring.uc" horiz-adv-x="300" 
d="M164 865q0 37 23.5 61t60.5 24t60.5 -24t23.5 -61t-23.5 -60t-60.5 -23t-60.5 23t-23.5 60zM192 865q0 -31 14.5 -48.5t41.5 -17.5t41.5 17.5t14.5 48.5q0 68 -56 68t-56 -68z" />
    <glyph glyph-name="tilde.uc" horiz-adv-x="428" 
d="M269 896q27 0 67 -25.5t65 -25.5q26 0 41.5 15.5t31.5 51.5l7 -1q-30 -109 -107 -109q-29 0 -69 25.5t-64 25.5q-48 0 -76 -67l-8 1q7 24 17.5 45.5t36 42.5t58.5 21z" />
    <glyph glyph-name="hungarumlaut.uc" horiz-adv-x="427" 
d="M456 949l44 -50l-162 -117l-4 4zM293 949l44 -50l-162 -117l-4 4z" />
    <glyph glyph-name="Cacute.pl" horiz-adv-x="598" 
d="M525 53q-29 -24 -87.5 -46t-129.5 -22q-126 0 -190.5 84.5t-64.5 230.5q0 117 46 219t130.5 165t187.5 63q56 0 106.5 -18.5t72.5 -34.5l11 -139l-8 -2q-37 92 -85 133t-111 41q-88 0 -155 -66t-99 -165.5t-32 -214.5q0 -121 50.5 -198.5t142.5 -77.5q76 0 131 48.5
t114 147.5l10 -2zM470 961l57 -30l-123 -149l-8 4z" />
    <glyph glyph-name="Nacute.pl" horiz-adv-x="597" 
d="M180 647l-87 -483q-11 -52 -9 -84t23 -78v-2h-101v2q32 45 43 75t22 87l73 404q13 56 10 90.5t-31 71.5v2h80l267 -630l84 466q11 52 9 84t-23 78v2h101v-2q-32 -45 -44 -76t-21 -86l-102 -568l-18 -3zM467 961l57 -30l-123 -149l-8 4z" />
    <glyph glyph-name="Oacute.pl" horiz-adv-x="662" 
d="M655 437q0 -119 -49 -223t-132.5 -166.5t-179.5 -62.5q-106 0 -173.5 87.5t-67.5 222.5q0 119 49 223t132.5 166.5t179.5 62.5q106 0 173.5 -87.5t67.5 -222.5zM117 276q0 -122 47 -196.5t137 -74.5q88 0 155.5 65t101 166.5t33.5 219.5q0 122 -47 196.5t-137 74.5
q-88 0 -155.5 -65t-101 -166.5t-33.5 -219.5zM495 961l57 -30l-123 -149l-8 4z" />
    <glyph glyph-name="Sacute.pl" horiz-adv-x="438" 
d="M450 565l-9 -2q-24 93 -61 128.5t-86 35.5q-56 0 -90.5 -37t-34.5 -95q0 -37 18 -74t36 -58.5t54 -58.5q36 -39 54 -62t36 -65.5t18 -87.5q0 -96 -59.5 -150t-150.5 -54q-89 0 -164 46l-7 158l8 2q32 -105 75.5 -145.5t102.5 -40.5q67 0 107 48.5t40 117.5q0 31 -8 57.5
t-27 53.5t-31.5 41.5t-40.5 44.5q-34 35 -53 59t-36.5 63t-17.5 80q0 86 55 131.5t131 45.5q79 0 134 -36zM385 961l57 -30l-123 -149l-8 4z" />
    <glyph glyph-name="Zacute.pl" horiz-adv-x="476" 
d="M-17 0v11l483 703l-160 -5q-27 -1 -47.5 -7t-34.5 -12.5t-34 -29.5t-32 -38t-43 -59l-8 3l61 166h364v-11l-482 -705l179 8q67 4 103 34.5t102 132.5l8 -3l-70 -188h-389zM403 961l57 -30l-123 -149l-8 4z" />
    <glyph glyph-name="acute.pl" horiz-adv-x="300" 
d="M219 749l55 -22l-122 -184l-6 3z" />
    <glyph glyph-name="acute.ucpl" horiz-adv-x="300" 
d="M290 961l57 -30l-123 -149l-8 4z" />
    <glyph glyph-name="cacute.pl" horiz-adv-x="374" 
d="M329 132q-22 -68 -64 -107.5t-102 -39.5q-68 0 -105.5 51.5t-37.5 134.5q0 124 75 221.5t176 97.5q51 0 87 -26l8 -98l-10 -2q-22 50 -46 79t-58 29q-60 0 -117 -77t-57 -202q0 -165 110 -165q78 0 131 108zM297 749l55 -22l-122 -184l-6 3z" />
    <glyph glyph-name="divide.osf" horiz-adv-x="532" 
d="M45 233v20h442v-20h-442zM249 29q-19 0 -33 13.5t-14 33.5t14 33.5t33 13.5q20 0 33.5 -13.5t13.5 -33.5t-13.5 -33.5t-33.5 -13.5zM249 363q-19 0 -33 13.5t-14 33.5t14 33.5t33 13.5q20 0 33.5 -13.5t13.5 -33.5t-13.5 -33.5t-33.5 -13.5z" />
    <glyph glyph-name="eight.osf" horiz-adv-x="426" 
d="M191 -10q-71 0 -121 43.5t-50 120.5q0 72 47.5 133t142.5 93q-34 32 -53 54t-36.5 60t-17.5 79q0 78 50 126t120 48q62 0 105 -40t43 -107q0 -59 -34 -114t-112 -88q109 -103 109 -215q0 -89 -57.5 -141t-135.5 -52zM146 596q0 -18 3 -34.5t11.5 -32.5l14 -26.5t21.5 -27
l21.5 -22.5t25.5 -24.5t24 -22.5q106 72 106 185q0 62 -29 99t-80 37q-52 0 -85 -37t-33 -94zM199 10q65 0 101 40.5t36 108.5q0 63 -30.5 111t-85.5 101l-2 1q-148 -79 -148 -218q0 -69 34 -106.5t95 -37.5z" />
    <glyph glyph-name="equal.osf" horiz-adv-x="532" 
d="M45 314v20h442v-20h-442zM45 172v20h442v-20h-442z" />
    <glyph glyph-name="f.short" horiz-adv-x="257" 
d="M137 457h-56l4 18h55l20 92q45 212 140 212q34 0 47 -13l7 -95l-4 -1l-19 33l-14 25.5t-10 16t-11 11t-11 2.5q-11 0 -21 -13t-22.5 -52.5t-28.5 -109.5l-23 -108h99l-4 -18h-99l-132 -622h-50z" />
    <glyph glyph-name="f_f.short" horiz-adv-x="476" 
d="M137 457h-56l4 18h56l15 72q23 108 69 160t106 52q20 0 29 -4l20 -8l7 -85l-4 -1q-21 39 -39 58t-40 19q-28 0 -50.5 -37t-44.5 -138l-19 -88h170l20 92q45 212 140 212q34 0 47 -13l7 -95l-4 -1l-19 33l-14 25.5t-10 16t-11 11t-11 2.5q-11 0 -21 -13t-22.5 -52.5
t-28.5 -109.5l-23 -108h99l-4 -18h-99l-132 -622h-50l133 622h-171l-132 -622h-50z" />
    <glyph glyph-name="five.osf" horiz-adv-x="357" 
d="M65 -245q-47 0 -87 16t-56 36l-10 126l5 1q27 -82 64 -121t92 -39q72 0 113 60t41 145q0 87 -45 149.5t-136 91.5l112 277h227l-20 -50h-204l-75 -185q87 -27 137.5 -94t50.5 -165q0 -105 -55.5 -176.5t-153.5 -71.5z" />
    <glyph glyph-name="four.osf" horiz-adv-x="402" 
d="M215 0h-245v8l378 499h7l-85 -467h96l-14 -40h-89l-36 -195h-47zM284 391l-266 -351h204z" />
    <glyph glyph-name="four.osfalt" horiz-adv-x="402" 
d="M215 0h-245v8l356 469h73l-406 -455h226l28 158h48l-28 -158h92l-7 -22h-89l-34 -195h-48z" />
    <glyph glyph-name="greater.osf" horiz-adv-x="530" 
d="M65 20v25l409 196l-409 196v25l430 -208v-26z" />
    <glyph glyph-name="less.osf" horiz-adv-x="530" 
d="M25 228v26l430 208v-25l-409 -196l409 -196v-25z" />
    <glyph glyph-name="minus.osf" horiz-adv-x="532" 
d="M45 233v20h442v-20h-442z" />
    <glyph glyph-name="multiply.osf" horiz-adv-x="472" 
d="M236 227l-170 -170l-15 15l170 170l-170 170l15 15l170 -170l170 170l15 -15l-170 -170l170 -170l-15 -15z" />
    <glyph glyph-name="nacute.pl" horiz-adv-x="466" 
d="M371 358q9 40 -0.5 66.5t-38.5 26.5q-43 0 -99.5 -69.5t-121.5 -214.5l-10 -44q-16 -76 -3 -121v-2h-88v2q5 7 8.5 13.5t7.5 15.5l6.5 14.5t5.5 17t4.5 16.5t5 19.5t4.5 19.5l4.5 22.5l4.5 22.5l38 178q17 72 -18 119v2l100 33l-58 -262q50 115 113 186t122 71
q42 0 58.5 -36t2.5 -99l-54 -240q-14 -56 -6.5 -79.5t46.5 -27.5v-2l-115 -15zM342 749l55 -22l-122 -184l-6 3z" />
    <glyph glyph-name="nine.osf" horiz-adv-x="457" 
d="M266 511q75 0 118.5 -58t43.5 -157q0 -73 -26 -150t-76.5 -151.5t-135.5 -140t-193 -105.5l-3 9q105 45 184 128t129 184q-54 -61 -130 -61q-73 0 -112.5 52t-39.5 137q0 122 71.5 217.5t169.5 95.5zM264 491q-45 0 -82 -32t-58 -82t-32.5 -104t-11.5 -103
q0 -143 101 -143q87 0 145 87q47 113 47 216q0 77 -28.5 119t-80.5 42z" />
    <glyph glyph-name="oacute.pl" horiz-adv-x="410" 
d="M390 316q0 -81 -32.5 -158t-87.5 -125t-114 -48q-61 0 -98.5 46t-37.5 128q0 81 32.5 158t87.5 125t114 48q61 0 98.5 -46t37.5 -128zM78 151q0 -148 82 -148q69 0 120.5 91t51.5 230q0 148 -82 148q-69 0 -120.5 -91t-51.5 -230zM312 749l55 -22l-122 -184l-6 3z" />
    <glyph glyph-name="one.osf" horiz-adv-x="244" 
d="M134 124q-9 -52 -6 -74.5t20 -47.5v-2h-126v2q30 26 43 50t21 72l52 305h-76l2 11l136 67h2z" />
    <glyph glyph-name="plus.osf" horiz-adv-x="532" 
d="M277 233v-210h-22v210h-210v20h210v210h22v-210h210v-20h-210z" />
    <glyph glyph-name="sacute.pl" horiz-adv-x="313" 
d="M293 375l-8 -2q-44 99 -104 99q-31 0 -49.5 -22t-18.5 -55q0 -28 15.5 -54t37.5 -48l44 -46t37.5 -57t15.5 -71q0 -64 -38.5 -99t-97.5 -35q-72 0 -116 38l-3 113l8 2q23 -67 55 -101t69 -34q36 0 59.5 26t23.5 67q0 30 -15 57.5t-37 49.5l-44 45t-37 54t-15 66
q0 59 36.5 90.5t90.5 31.5q52 0 88 -20zM268 749l55 -22l-122 -184l-6 3z" />
    <glyph glyph-name="seven.osf" horiz-adv-x="387" 
d="M-23 -245q65 182 174.5 375t210.5 317h-307l19 50h338v-10q-97 -124 -200.5 -329t-167.5 -403h-67z" />
    <glyph glyph-name="six.osf" horiz-adv-x="457" 
d="M190 -10q-75 0 -118.5 58t-43.5 157q0 73 26 150t76.5 151.5t135.5 140t193 105.5l3 -9q-105 -45 -184 -128t-129 -184q54 61 130 61q73 0 112.5 -52t39.5 -137q0 -122 -71.5 -217.5t-169.5 -95.5zM192 10q45 0 82 32t58 82t32.5 104t11.5 103q0 143 -101 143
q-87 0 -145 -87q-47 -113 -47 -216q0 -77 28.5 -119t80.5 -42z" />
    <glyph glyph-name="three.osf" horiz-adv-x="376" 
d="M81 -245q-52 0 -93.5 16.5t-59.5 35.5l-10 126l5 1q51 -160 173 -160q76 0 114.5 53.5t38.5 125.5q0 83 -48 135t-115 70v5q201 66 201 217q0 50 -19.5 79t-56.5 29q-38 0 -72 -32.5t-80 -100.5l-5 2l41 118q55 32 122 32q59 0 91.5 -35.5t32.5 -89.5q0 -66 -46 -120.5
t-130 -78.5q56 -26 94 -76.5t38 -128.5q0 -94 -58.5 -158.5t-157.5 -64.5z" />
    <glyph glyph-name="three.osfalt" horiz-adv-x="376" 
d="M81 -245q-52 0 -93.5 16.5t-59.5 35.5l-10 126l5 1q51 -160 173 -160q76 0 114.5 53t38.5 124q0 84 -48 136.5t-115 70.5v5q104 34 154 91t50 121q0 47 -24.5 71t-68.5 24q-59 0 -110 -38l-4 6q67 69 137 69q53 0 87 -31.5t34 -87.5q0 -64 -48 -122t-129 -83
q56 -25 94.5 -76.5t38.5 -129.5q0 -93 -58.5 -157.5t-157.5 -64.5z" />
    <glyph glyph-name="two.osf" horiz-adv-x="363" 
d="M-25 0v8q104 67 173.5 140.5t97.5 132t28 109.5q0 46 -21.5 72t-53.5 26q-34 0 -67.5 -32t-77.5 -104l-6 2l41 120q59 33 116 33q56 0 89.5 -35.5t33.5 -89.5q0 -79 -73 -165t-199 -167h156q34 0 52.5 13t39.5 47l5 -3l-36 -107h-298z" />
    <glyph glyph-name="two.osfalt" horiz-adv-x="373" 
d="M-15 0v8q151 90 224 190t73 176q0 97 -93 97q-59 0 -111 -39l-4 6q40 35 72.5 52t71.5 17q52 0 86 -30.5t34 -90.5q0 -86 -73 -173.5t-198 -162.5h155q34 0 52.5 13t39.5 47l5 -3l-36 -107h-298z" />
    <glyph glyph-name="zacute.pl" horiz-adv-x="370" 
d="M-15 0v7l329 451l-94 -3q-39 -2 -72 -21t-79 -63l-4 2l49 102h266v-9l-329 -451l130 4q46 2 79 23t81 69l4 -2l-62 -109h-298zM306 749l55 -22l-122 -184l-6 3z" />
    <glyph glyph-name="zero.osf" horiz-adv-x="446" 
d="M164 -10q-63 0 -103.5 50t-40.5 130q0 79 38.5 157.5t100 129t123.5 50.5q63 0 103.5 -50t40.5 -130q0 -122 -82.5 -229.5t-179.5 -107.5zM172 9q60 0 107.5 55t70 128.5t22.5 145.5q0 68 -24 109t-74 41q-60 0 -107.5 -54.5t-70 -128.5t-22.5 -145q0 -68 24 -109.5
t74 -41.5z" />
    <glyph glyph-name="kcommaaccent.alt" horiz-adv-x="407" 
d="M5 0v2q5 7 8.5 13.5t7.5 15.5l6.5 14.5t5.5 17t4.5 16.5t5 19.5t4.5 19.5l4.5 22.5l4.5 22.5l97 462q10 48 6 72.5t-24 46.5v2l100 33l-130 -614q-15 -71 -17.5 -101.5t5.5 -61.5v-2h-88zM301 -5q-50 0 -98 87q-36 70 -69 164l145 145q53 53 28 82v2h120v-2
q-42 -16 -80 -48t-166 -160q31 -87 65 -153q23 -41 39 -56t35 -15q23 0 42 19l3 -2q-18 -63 -64 -63zM96 -218q64 38 64 74q0 29 -33 58v2l41 34q36 -30 36 -61q0 -54 -104 -113z" />
    <glyph glyph-name="yacute.alt" horiz-adv-x="362" 
d="M-93 -177q49 -2 104 22.5t103 78.5q-1 225 -20 387q-8 75 -22.5 110t-43.5 52v2h90q14 -34 32 -164q15 -111 15 -316q62 98 103.5 201t41.5 186q0 61 -44 91v2h106v-2q-32 -210 -158 -435q-64 -111 -140.5 -186t-188.5 -97zM338 749l42 -44l-195 -172l-5 6z" />
    <glyph glyph-name="ydieresis.alt" horiz-adv-x="362" 
d="M-93 -177q49 -2 104 22.5t103 78.5q-1 225 -20 387q-8 75 -22.5 110t-43.5 52v2h90q14 -34 32 -164q15 -111 15 -316q62 98 103.5 201t41.5 186q0 61 -44 91v2h106v-2q-32 -210 -158 -435q-64 -111 -140.5 -186t-188.5 -97zM198 659q0 -17 -12 -29t-29 -12t-29 12t-12 29
t12 29t29 12t29 -12t12 -29zM370 659q0 -17 -12 -29t-29 -12t-29 12t-12 29t12 29t29 12t29 -12t12 -29z" />
    <glyph glyph-name="zacute.alt" horiz-adv-x="360" 
d="M-20 0l2 7l343 424l-138 -2q-31 0 -53.5 -13t-57.5 -45l-4 2l39 102h274l-3 -9l-344 -425l166 4q38 1 62 15.5t58 50.5l4 -2l-52 -109h-296zM352 749l42 -44l-195 -172l-5 6z" />
    <glyph glyph-name="zdotaccent.alt" horiz-adv-x="360" 
d="M-20 0l2 7l343 424l-138 -2q-31 0 -53.5 -13t-57.5 -45l-4 2l39 102h274l-3 -9l-344 -425l166 4q38 1 62 15.5t58 50.5l4 -2l-52 -109h-296zM287 659q0 -17 -12 -29t-29 -12t-29 12t-12 29t12 29t29 12t29 -12t12 -29z" />
    <glyph glyph-name="zcaron.alt" horiz-adv-x="360" 
d="M-20 0l2 7l343 424l-138 -2q-31 0 -53.5 -13t-57.5 -45l-4 2l39 102h274l-3 -9l-344 -425l166 4q38 1 62 15.5t58 50.5l4 -2l-52 -109h-296zM246 540l-88 173l8 6l91 -106l144 106l5 -6l-157 -173h-3z" />
    <glyph glyph-name="germandbls.alt" horiz-adv-x="476" 
d="M302 -15q-70 0 -114 38l-3 113l8 2q46 -135 125 -135q35 0 58.5 26t23.5 67q0 29 -15 56.5t-36 49.5l-42.5 45t-36.5 53t-15 64q0 39 20 69.5t48 51.5l56 43.5t48 56.5t20 78q0 45 -19.5 76t-63.5 31q-49 0 -90.5 -45.5t-60.5 -141.5l-90 -421q-14 -67 -16.5 -99t5.5 -61
v-2h-90v2q5 7 8.5 13.5t7.5 15.5l6.5 14.5t5.5 17t4.5 16.5t5 19.5t4.5 19.5l4.5 22.5l4.5 22.5l63 294h-55l4 18h55l14 64q26 121 83.5 185t134.5 64q58 0 90 -33t32 -86q0 -41 -20.5 -74.5t-50 -56.5t-59.5 -44t-50.5 -47t-20.5 -56q0 -25 15 -50t36.5 -47l43.5 -46.5
t37 -57.5t15 -71q0 -64 -38.5 -99t-99.5 -35z" />
    <glyph glyph-name="zacute.altpl" horiz-adv-x="360" 
d="M-20 0l2 7l343 424l-138 -2q-31 0 -53.5 -13t-57.5 -45l-4 2l39 102h274l-3 -9l-344 -425l166 4q38 1 62 15.5t58 50.5l4 -2l-52 -109h-296zM292 749l55 -22l-122 -184l-6 3z" />
    <glyph glyph-name="f.shortalt" horiz-adv-x="257" 
d="M23 2q18 30 27.5 62.5t23.5 98.5l63 294h-55l4 18h54l20 92q45 212 140 212q34 0 47 -13l7 -95l-4 -1l-19 33l-14 25.5t-10 16t-11 11t-11 2.5q-37 0 -72 -175l-23 -108h100l-4 -18h-100l-61 -291q-15 -71 -17.5 -102t5.5 -62v-2h-90v2z" />
    <glyph glyph-name="f_f.shortalt" horiz-adv-x="476" 
d="M23 2q18 30 27.5 62.5t23.5 98.5l63 294h-56l4 18h56l15 72q23 108 69 160t106 52q20 0 29 -4l20 -8l7 -85l-4 -1q-21 39 -39 58t-40 19q-28 0 -51.5 -37.5t-43.5 -137.5l-19 -88h169l20 92q45 212 140 212q34 0 47 -13l7 -95l-4 -1l-19 33l-14 25.5t-10 16t-11 11
t-11 2.5q-37 0 -72 -175l-23 -108h100l-4 -18h-100l-61 -291q-15 -71 -17.5 -102t5.5 -62v-2h-90v2q18 30 27.5 62.5t23.5 98.5l63 294h-169l-62 -291q-15 -71 -17.5 -102t5.5 -62v-2h-90v2z" />
    <glyph glyph-name="ampersand.alt" horiz-adv-x="738" 
d="M551 -15q-80 0 -144 44q-62 -44 -147 -44q-104 0 -162 56.5t-58 145.5q0 80 48 142t139 85q-1 5 -1 16v17q0 127 50 213.5t142 86.5q57 0 90.5 -32.5t33.5 -85.5q0 -72 -66 -126.5t-192 -86.5q13 -102 52.5 -192.5t102.5 -141.5q10 10 15 17q37 49 60.5 114t23.5 114
q0 34 -8.5 50t-36.5 24v4h155v-4l-12 -4q-12 -4 -15.5 -6.5l-12.5 -9t-15.5 -16.5t-12.5 -24q-4 -9 -30 -86q-42 -117 -87 -173l-9 -11q58 -42 129 -42q101 0 152 87l3 -2q-60 -129 -187 -129zM277 9q62 0 114 32q-71 55 -112.5 152.5t-50.5 208.5q-66 -23 -98.5 -78
t-32.5 -125q0 -84 47 -137t133 -53zM280 487q0 -30 3 -60q124 40 171 92t47 111q0 49 -23 73t-61 24q-66 0 -101.5 -68t-35.5 -172z" />
    <glyph glyph-name="wacute.alt" horiz-adv-x="580" 
d="M316 -15q-43 0 -62 31.5t-4 89.5l9 34q-30 -54 -31 -56q-61 -99 -133 -99q-43 0 -61 31.5t-3 89.5l70 274q16 74 -32 93v2h105l-92 -363q-23 -89 33 -89q53 0 104 84q52 86 94 246l7 27q16 74 -32 93v2h105l-92 -363q-23 -89 34 -89q55 0 111 89q37 62 67 142.5t30 137.5
q0 59 -38 81v2h93v-2q-17 -106 -56 -209t-85 -174q-67 -105 -141 -105zM453 749l42 -44l-195 -172l-5 6z" />
    <glyph glyph-name="wcircumflex.alt" horiz-adv-x="580" 
d="M316 -15q-43 0 -62 31.5t-4 89.5l9 34q-30 -54 -31 -56q-61 -99 -133 -99q-43 0 -61 31.5t-3 89.5l70 274q16 74 -32 93v2h105l-92 -363q-23 -89 33 -89q53 0 104 84q52 86 94 246l7 27q16 74 -32 93v2h105l-92 -363q-23 -89 34 -89q55 0 111 89q37 62 67 142.5t30 137.5
q0 59 -38 81v2h93v-2q-17 -106 -56 -209t-85 -174q-67 -105 -141 -105zM400 646l-144 -106l-5 6l157 173h3l88 -173l-8 -6z" />
    <glyph glyph-name="wdieresis.alt" horiz-adv-x="580" 
d="M316 -15q-43 0 -62 31.5t-4 89.5l9 34q-30 -54 -31 -56q-61 -99 -133 -99q-43 0 -61 31.5t-3 89.5l70 274q16 74 -32 93v2h105l-92 -363q-23 -89 33 -89q53 0 104 84q52 86 94 246l7 27q16 74 -32 93v2h105l-92 -363q-23 -89 34 -89q55 0 111 89q37 62 67 142.5t30 137.5
q0 59 -38 81v2h93v-2q-17 -106 -56 -209t-85 -174q-67 -105 -141 -105zM323 659q0 -17 -12 -29t-29 -12t-29 12t-12 29t12 29t29 12t29 -12t12 -29zM495 659q0 -17 -12 -29t-29 -12t-29 12t-12 29t12 29t29 12t29 -12t12 -29z" />
    <glyph glyph-name="wgrave.alt" horiz-adv-x="580" 
d="M316 -15q-43 0 -62 31.5t-4 89.5l9 34q-30 -54 -31 -56q-61 -99 -133 -99q-43 0 -61 31.5t-3 89.5l70 274q16 74 -32 93v2h105l-92 -363q-23 -89 33 -89q53 0 104 84q52 86 94 246l7 27q16 74 -32 93v2h105l-92 -363q-23 -89 34 -89q55 0 111 89q37 62 67 142.5t30 137.5
q0 59 -38 81v2h93v-2q-17 -106 -56 -209t-85 -174q-67 -105 -141 -105zM424 533l-146 178l55 38l99 -210z" />
    <glyph glyph-name="ycircumflex.alt" horiz-adv-x="362" 
d="M-93 -177q49 -2 104 22.5t103 78.5q-1 225 -20 387q-8 75 -22.5 110t-43.5 52v2h90q14 -34 32 -164q15 -111 15 -316q62 98 103.5 201t41.5 186q0 61 -44 91v2h106v-2q-32 -210 -158 -435q-64 -111 -140.5 -186t-188.5 -97zM253 646l-144 -106l-5 6l157 173h3l88 -173
l-8 -6z" />
    <glyph glyph-name="ygrave.alt" horiz-adv-x="362" 
d="M-93 -177q49 -2 104 22.5t103 78.5q-1 225 -20 387q-8 75 -22.5 110t-43.5 52v2h90q14 -34 32 -164q15 -111 15 -316q62 98 103.5 201t41.5 186q0 61 -44 91v2h106v-2q-32 -210 -158 -435q-64 -111 -140.5 -186t-188.5 -97zM282 533l-146 178l55 38l99 -210z" />
    </font>
</defs>
</svg>
